M48
; DRILL file {KiCad 9.0.7} date 2026-03-15T09:41:40-0500
; FORMAT={-:-/ absolute / metric / decimal}
; #@! TF.CreationDate,2026-03-15T09:41:40-05:00
; #@! TF.GenerationSoftware,Kicad,Pcbnew,9.0.7
; #@! TF.FileFunction,MixedPlating,1,2
FMAT,2
METRIC
; #@! TA.AperFunction,Plated,PTH,ViaDrill
T1C0.300
; #@! TA.AperFunction,Plated,PTH,ComponentDrill
T2C0.900
; #@! TA.AperFunction,Plated,PTH,ComponentDrill
T3C1.020
%
G90
G05
T1
X128.475Y-101.7
X131.3Y-97.9
X131.55Y-101.4
X134.45Y-101.4
X134.9Y-96.1
X134.9Y-97.8
X135.4Y-99.6
X136.1Y-96.1
X136.1Y-97.8
X136.1Y-100.8
X136.727Y-98.5
X137.05Y-101.4
X137.725Y-97.0
X139.95Y-101.4
X140.4Y-96.1
X140.4Y-97.8
X140.9Y-99.6
X141.594Y-100.813
X141.6Y-96.1
X141.6Y-97.8
X142.227Y-98.5
X142.55Y-101.4
X143.225Y-97.0
X145.45Y-101.4
X145.9Y-96.1
X145.9Y-97.8
X146.4Y-99.6
T2
X100.0Y-98.735
X100.0Y-101.275
X106.0Y-98.735
X106.0Y-101.275
X112.0Y-98.735
X112.0Y-101.275
X118.0Y-98.735
X118.0Y-101.275
X124.0Y-98.735
X124.0Y-101.275
T3
X96.71Y-92.38
X96.71Y-107.62
X99.25Y-92.38
X99.25Y-107.62
X101.79Y-92.38
X101.79Y-107.62
X104.33Y-92.38
X104.33Y-107.62
X106.87Y-92.38
X106.87Y-107.62
X109.41Y-92.38
X109.41Y-107.62
X111.95Y-92.38
X111.95Y-107.62
X114.49Y-92.38
X114.49Y-107.62
X117.03Y-92.38
X117.03Y-107.62
X119.57Y-92.38
X119.57Y-107.62
X122.11Y-92.38
X122.11Y-107.62
X124.65Y-92.38
X124.65Y-107.62
X127.19Y-92.38
X127.19Y-107.62
X129.73Y-92.38
X129.73Y-107.62
X132.27Y-92.38
X132.27Y-107.62
X134.81Y-92.38
X134.81Y-107.62
X137.35Y-92.38
X137.35Y-107.62
X139.89Y-92.38
X139.89Y-107.62
X142.43Y-92.38
X142.43Y-107.62
X144.97Y-92.38
X144.97Y-107.62
X147.51Y-92.38
X147.51Y-107.62
X150.05Y-92.38
X150.05Y-107.62
X152.59Y-92.38
X152.59Y-107.62
X155.13Y-92.38
X155.13Y-107.62
X157.67Y-92.38
X157.67Y-107.62
X160.21Y-92.38
X160.21Y-107.62
X162.75Y-92.38
X162.75Y-107.62
X165.29Y-92.38
X165.29Y-107.62
M30
