%TF.GenerationSoftware,KiCad,Pcbnew,9.0.7*%
%TF.CreationDate,2026-03-15T09:41:37-05:00*%
%TF.ProjectId,Sensor-LCD5,53656e73-6f72-42d4-9c43-44352e6b6963,rev?*%
%TF.SameCoordinates,Original*%
%TF.FileFunction,Legend,Top*%
%TF.FilePolarity,Positive*%
%FSLAX46Y46*%
G04 Gerber Fmt 4.6, Leading zero omitted, Abs format (unit mm)*
G04 Created by KiCad (PCBNEW 9.0.7) date 2026-03-15 09:41:37*
%MOMM*%
%LPD*%
G01*
G04 APERTURE LIST*
%ADD10C,0.150000*%
%ADD11C,0.120000*%
G04 APERTURE END LIST*
D10*
X153683333Y-103679580D02*
X153635714Y-103727200D01*
X153635714Y-103727200D02*
X153492857Y-103774819D01*
X153492857Y-103774819D02*
X153397619Y-103774819D01*
X153397619Y-103774819D02*
X153254762Y-103727200D01*
X153254762Y-103727200D02*
X153159524Y-103631961D01*
X153159524Y-103631961D02*
X153111905Y-103536723D01*
X153111905Y-103536723D02*
X153064286Y-103346247D01*
X153064286Y-103346247D02*
X153064286Y-103203390D01*
X153064286Y-103203390D02*
X153111905Y-103012914D01*
X153111905Y-103012914D02*
X153159524Y-102917676D01*
X153159524Y-102917676D02*
X153254762Y-102822438D01*
X153254762Y-102822438D02*
X153397619Y-102774819D01*
X153397619Y-102774819D02*
X153492857Y-102774819D01*
X153492857Y-102774819D02*
X153635714Y-102822438D01*
X153635714Y-102822438D02*
X153683333Y-102870057D01*
X154540476Y-103108152D02*
X154540476Y-103774819D01*
X154302381Y-102727200D02*
X154064286Y-103441485D01*
X154064286Y-103441485D02*
X154683333Y-103441485D01*
X132833333Y-96959580D02*
X132785714Y-97007200D01*
X132785714Y-97007200D02*
X132642857Y-97054819D01*
X132642857Y-97054819D02*
X132547619Y-97054819D01*
X132547619Y-97054819D02*
X132404762Y-97007200D01*
X132404762Y-97007200D02*
X132309524Y-96911961D01*
X132309524Y-96911961D02*
X132261905Y-96816723D01*
X132261905Y-96816723D02*
X132214286Y-96626247D01*
X132214286Y-96626247D02*
X132214286Y-96483390D01*
X132214286Y-96483390D02*
X132261905Y-96292914D01*
X132261905Y-96292914D02*
X132309524Y-96197676D01*
X132309524Y-96197676D02*
X132404762Y-96102438D01*
X132404762Y-96102438D02*
X132547619Y-96054819D01*
X132547619Y-96054819D02*
X132642857Y-96054819D01*
X132642857Y-96054819D02*
X132785714Y-96102438D01*
X132785714Y-96102438D02*
X132833333Y-96150057D01*
X133166667Y-96054819D02*
X133785714Y-96054819D01*
X133785714Y-96054819D02*
X133452381Y-96435771D01*
X133452381Y-96435771D02*
X133595238Y-96435771D01*
X133595238Y-96435771D02*
X133690476Y-96483390D01*
X133690476Y-96483390D02*
X133738095Y-96531009D01*
X133738095Y-96531009D02*
X133785714Y-96626247D01*
X133785714Y-96626247D02*
X133785714Y-96864342D01*
X133785714Y-96864342D02*
X133738095Y-96959580D01*
X133738095Y-96959580D02*
X133690476Y-97007200D01*
X133690476Y-97007200D02*
X133595238Y-97054819D01*
X133595238Y-97054819D02*
X133309524Y-97054819D01*
X133309524Y-97054819D02*
X133214286Y-97007200D01*
X133214286Y-97007200D02*
X133166667Y-96959580D01*
X109454819Y-97766666D02*
X108978628Y-98099999D01*
X109454819Y-98338094D02*
X108454819Y-98338094D01*
X108454819Y-98338094D02*
X108454819Y-97957142D01*
X108454819Y-97957142D02*
X108502438Y-97861904D01*
X108502438Y-97861904D02*
X108550057Y-97814285D01*
X108550057Y-97814285D02*
X108645295Y-97766666D01*
X108645295Y-97766666D02*
X108788152Y-97766666D01*
X108788152Y-97766666D02*
X108883390Y-97814285D01*
X108883390Y-97814285D02*
X108931009Y-97861904D01*
X108931009Y-97861904D02*
X108978628Y-97957142D01*
X108978628Y-97957142D02*
X108978628Y-98338094D01*
X108550057Y-97385713D02*
X108502438Y-97338094D01*
X108502438Y-97338094D02*
X108454819Y-97242856D01*
X108454819Y-97242856D02*
X108454819Y-97004761D01*
X108454819Y-97004761D02*
X108502438Y-96909523D01*
X108502438Y-96909523D02*
X108550057Y-96861904D01*
X108550057Y-96861904D02*
X108645295Y-96814285D01*
X108645295Y-96814285D02*
X108740533Y-96814285D01*
X108740533Y-96814285D02*
X108883390Y-96861904D01*
X108883390Y-96861904D02*
X109454819Y-97433332D01*
X109454819Y-97433332D02*
X109454819Y-96814285D01*
X132238095Y-101454819D02*
X132238095Y-102264342D01*
X132238095Y-102264342D02*
X132285714Y-102359580D01*
X132285714Y-102359580D02*
X132333333Y-102407200D01*
X132333333Y-102407200D02*
X132428571Y-102454819D01*
X132428571Y-102454819D02*
X132619047Y-102454819D01*
X132619047Y-102454819D02*
X132714285Y-102407200D01*
X132714285Y-102407200D02*
X132761904Y-102359580D01*
X132761904Y-102359580D02*
X132809523Y-102264342D01*
X132809523Y-102264342D02*
X132809523Y-101454819D01*
X133190476Y-101454819D02*
X133809523Y-101454819D01*
X133809523Y-101454819D02*
X133476190Y-101835771D01*
X133476190Y-101835771D02*
X133619047Y-101835771D01*
X133619047Y-101835771D02*
X133714285Y-101883390D01*
X133714285Y-101883390D02*
X133761904Y-101931009D01*
X133761904Y-101931009D02*
X133809523Y-102026247D01*
X133809523Y-102026247D02*
X133809523Y-102264342D01*
X133809523Y-102264342D02*
X133761904Y-102359580D01*
X133761904Y-102359580D02*
X133714285Y-102407200D01*
X133714285Y-102407200D02*
X133619047Y-102454819D01*
X133619047Y-102454819D02*
X133333333Y-102454819D01*
X133333333Y-102454819D02*
X133238095Y-102407200D01*
X133238095Y-102407200D02*
X133190476Y-102359580D01*
X129533333Y-102654819D02*
X129200000Y-102178628D01*
X128961905Y-102654819D02*
X128961905Y-101654819D01*
X128961905Y-101654819D02*
X129342857Y-101654819D01*
X129342857Y-101654819D02*
X129438095Y-101702438D01*
X129438095Y-101702438D02*
X129485714Y-101750057D01*
X129485714Y-101750057D02*
X129533333Y-101845295D01*
X129533333Y-101845295D02*
X129533333Y-101988152D01*
X129533333Y-101988152D02*
X129485714Y-102083390D01*
X129485714Y-102083390D02*
X129438095Y-102131009D01*
X129438095Y-102131009D02*
X129342857Y-102178628D01*
X129342857Y-102178628D02*
X128961905Y-102178628D01*
X129866667Y-101654819D02*
X130533333Y-101654819D01*
X130533333Y-101654819D02*
X130104762Y-102654819D01*
X137738095Y-101454819D02*
X137738095Y-102264342D01*
X137738095Y-102264342D02*
X137785714Y-102359580D01*
X137785714Y-102359580D02*
X137833333Y-102407200D01*
X137833333Y-102407200D02*
X137928571Y-102454819D01*
X137928571Y-102454819D02*
X138119047Y-102454819D01*
X138119047Y-102454819D02*
X138214285Y-102407200D01*
X138214285Y-102407200D02*
X138261904Y-102359580D01*
X138261904Y-102359580D02*
X138309523Y-102264342D01*
X138309523Y-102264342D02*
X138309523Y-101454819D01*
X138738095Y-101550057D02*
X138785714Y-101502438D01*
X138785714Y-101502438D02*
X138880952Y-101454819D01*
X138880952Y-101454819D02*
X139119047Y-101454819D01*
X139119047Y-101454819D02*
X139214285Y-101502438D01*
X139214285Y-101502438D02*
X139261904Y-101550057D01*
X139261904Y-101550057D02*
X139309523Y-101645295D01*
X139309523Y-101645295D02*
X139309523Y-101740533D01*
X139309523Y-101740533D02*
X139261904Y-101883390D01*
X139261904Y-101883390D02*
X138690476Y-102454819D01*
X138690476Y-102454819D02*
X139309523Y-102454819D01*
X129133333Y-98354819D02*
X128800000Y-97878628D01*
X128561905Y-98354819D02*
X128561905Y-97354819D01*
X128561905Y-97354819D02*
X128942857Y-97354819D01*
X128942857Y-97354819D02*
X129038095Y-97402438D01*
X129038095Y-97402438D02*
X129085714Y-97450057D01*
X129085714Y-97450057D02*
X129133333Y-97545295D01*
X129133333Y-97545295D02*
X129133333Y-97688152D01*
X129133333Y-97688152D02*
X129085714Y-97783390D01*
X129085714Y-97783390D02*
X129038095Y-97831009D01*
X129038095Y-97831009D02*
X128942857Y-97878628D01*
X128942857Y-97878628D02*
X128561905Y-97878628D01*
X129990476Y-97354819D02*
X129800000Y-97354819D01*
X129800000Y-97354819D02*
X129704762Y-97402438D01*
X129704762Y-97402438D02*
X129657143Y-97450057D01*
X129657143Y-97450057D02*
X129561905Y-97592914D01*
X129561905Y-97592914D02*
X129514286Y-97783390D01*
X129514286Y-97783390D02*
X129514286Y-98164342D01*
X129514286Y-98164342D02*
X129561905Y-98259580D01*
X129561905Y-98259580D02*
X129609524Y-98307200D01*
X129609524Y-98307200D02*
X129704762Y-98354819D01*
X129704762Y-98354819D02*
X129895238Y-98354819D01*
X129895238Y-98354819D02*
X129990476Y-98307200D01*
X129990476Y-98307200D02*
X130038095Y-98259580D01*
X130038095Y-98259580D02*
X130085714Y-98164342D01*
X130085714Y-98164342D02*
X130085714Y-97926247D01*
X130085714Y-97926247D02*
X130038095Y-97831009D01*
X130038095Y-97831009D02*
X129990476Y-97783390D01*
X129990476Y-97783390D02*
X129895238Y-97735771D01*
X129895238Y-97735771D02*
X129704762Y-97735771D01*
X129704762Y-97735771D02*
X129609524Y-97783390D01*
X129609524Y-97783390D02*
X129561905Y-97831009D01*
X129561905Y-97831009D02*
X129514286Y-97926247D01*
X143833333Y-96959580D02*
X143785714Y-97007200D01*
X143785714Y-97007200D02*
X143642857Y-97054819D01*
X143642857Y-97054819D02*
X143547619Y-97054819D01*
X143547619Y-97054819D02*
X143404762Y-97007200D01*
X143404762Y-97007200D02*
X143309524Y-96911961D01*
X143309524Y-96911961D02*
X143261905Y-96816723D01*
X143261905Y-96816723D02*
X143214286Y-96626247D01*
X143214286Y-96626247D02*
X143214286Y-96483390D01*
X143214286Y-96483390D02*
X143261905Y-96292914D01*
X143261905Y-96292914D02*
X143309524Y-96197676D01*
X143309524Y-96197676D02*
X143404762Y-96102438D01*
X143404762Y-96102438D02*
X143547619Y-96054819D01*
X143547619Y-96054819D02*
X143642857Y-96054819D01*
X143642857Y-96054819D02*
X143785714Y-96102438D01*
X143785714Y-96102438D02*
X143833333Y-96150057D01*
X144785714Y-97054819D02*
X144214286Y-97054819D01*
X144500000Y-97054819D02*
X144500000Y-96054819D01*
X144500000Y-96054819D02*
X144404762Y-96197676D01*
X144404762Y-96197676D02*
X144309524Y-96292914D01*
X144309524Y-96292914D02*
X144214286Y-96340533D01*
X143238095Y-101454819D02*
X143238095Y-102264342D01*
X143238095Y-102264342D02*
X143285714Y-102359580D01*
X143285714Y-102359580D02*
X143333333Y-102407200D01*
X143333333Y-102407200D02*
X143428571Y-102454819D01*
X143428571Y-102454819D02*
X143619047Y-102454819D01*
X143619047Y-102454819D02*
X143714285Y-102407200D01*
X143714285Y-102407200D02*
X143761904Y-102359580D01*
X143761904Y-102359580D02*
X143809523Y-102264342D01*
X143809523Y-102264342D02*
X143809523Y-101454819D01*
X144809523Y-102454819D02*
X144238095Y-102454819D01*
X144523809Y-102454819D02*
X144523809Y-101454819D01*
X144523809Y-101454819D02*
X144428571Y-101597676D01*
X144428571Y-101597676D02*
X144333333Y-101692914D01*
X144333333Y-101692914D02*
X144238095Y-101740533D01*
X127454819Y-97766666D02*
X126978628Y-98099999D01*
X127454819Y-98338094D02*
X126454819Y-98338094D01*
X126454819Y-98338094D02*
X126454819Y-97957142D01*
X126454819Y-97957142D02*
X126502438Y-97861904D01*
X126502438Y-97861904D02*
X126550057Y-97814285D01*
X126550057Y-97814285D02*
X126645295Y-97766666D01*
X126645295Y-97766666D02*
X126788152Y-97766666D01*
X126788152Y-97766666D02*
X126883390Y-97814285D01*
X126883390Y-97814285D02*
X126931009Y-97861904D01*
X126931009Y-97861904D02*
X126978628Y-97957142D01*
X126978628Y-97957142D02*
X126978628Y-98338094D01*
X126454819Y-96861904D02*
X126454819Y-97338094D01*
X126454819Y-97338094D02*
X126931009Y-97385713D01*
X126931009Y-97385713D02*
X126883390Y-97338094D01*
X126883390Y-97338094D02*
X126835771Y-97242856D01*
X126835771Y-97242856D02*
X126835771Y-97004761D01*
X126835771Y-97004761D02*
X126883390Y-96909523D01*
X126883390Y-96909523D02*
X126931009Y-96861904D01*
X126931009Y-96861904D02*
X127026247Y-96814285D01*
X127026247Y-96814285D02*
X127264342Y-96814285D01*
X127264342Y-96814285D02*
X127359580Y-96861904D01*
X127359580Y-96861904D02*
X127407200Y-96909523D01*
X127407200Y-96909523D02*
X127454819Y-97004761D01*
X127454819Y-97004761D02*
X127454819Y-97242856D01*
X127454819Y-97242856D02*
X127407200Y-97338094D01*
X127407200Y-97338094D02*
X127359580Y-97385713D01*
X103454819Y-97766666D02*
X102978628Y-98099999D01*
X103454819Y-98338094D02*
X102454819Y-98338094D01*
X102454819Y-98338094D02*
X102454819Y-97957142D01*
X102454819Y-97957142D02*
X102502438Y-97861904D01*
X102502438Y-97861904D02*
X102550057Y-97814285D01*
X102550057Y-97814285D02*
X102645295Y-97766666D01*
X102645295Y-97766666D02*
X102788152Y-97766666D01*
X102788152Y-97766666D02*
X102883390Y-97814285D01*
X102883390Y-97814285D02*
X102931009Y-97861904D01*
X102931009Y-97861904D02*
X102978628Y-97957142D01*
X102978628Y-97957142D02*
X102978628Y-98338094D01*
X103454819Y-96814285D02*
X103454819Y-97385713D01*
X103454819Y-97099999D02*
X102454819Y-97099999D01*
X102454819Y-97099999D02*
X102597676Y-97195237D01*
X102597676Y-97195237D02*
X102692914Y-97290475D01*
X102692914Y-97290475D02*
X102740533Y-97385713D01*
X121454819Y-97766666D02*
X120978628Y-98099999D01*
X121454819Y-98338094D02*
X120454819Y-98338094D01*
X120454819Y-98338094D02*
X120454819Y-97957142D01*
X120454819Y-97957142D02*
X120502438Y-97861904D01*
X120502438Y-97861904D02*
X120550057Y-97814285D01*
X120550057Y-97814285D02*
X120645295Y-97766666D01*
X120645295Y-97766666D02*
X120788152Y-97766666D01*
X120788152Y-97766666D02*
X120883390Y-97814285D01*
X120883390Y-97814285D02*
X120931009Y-97861904D01*
X120931009Y-97861904D02*
X120978628Y-97957142D01*
X120978628Y-97957142D02*
X120978628Y-98338094D01*
X120788152Y-96909523D02*
X121454819Y-96909523D01*
X120407200Y-97147618D02*
X121121485Y-97385713D01*
X121121485Y-97385713D02*
X121121485Y-96766666D01*
X115454819Y-97766666D02*
X114978628Y-98099999D01*
X115454819Y-98338094D02*
X114454819Y-98338094D01*
X114454819Y-98338094D02*
X114454819Y-97957142D01*
X114454819Y-97957142D02*
X114502438Y-97861904D01*
X114502438Y-97861904D02*
X114550057Y-97814285D01*
X114550057Y-97814285D02*
X114645295Y-97766666D01*
X114645295Y-97766666D02*
X114788152Y-97766666D01*
X114788152Y-97766666D02*
X114883390Y-97814285D01*
X114883390Y-97814285D02*
X114931009Y-97861904D01*
X114931009Y-97861904D02*
X114978628Y-97957142D01*
X114978628Y-97957142D02*
X114978628Y-98338094D01*
X114454819Y-97433332D02*
X114454819Y-96814285D01*
X114454819Y-96814285D02*
X114835771Y-97147618D01*
X114835771Y-97147618D02*
X114835771Y-97004761D01*
X114835771Y-97004761D02*
X114883390Y-96909523D01*
X114883390Y-96909523D02*
X114931009Y-96861904D01*
X114931009Y-96861904D02*
X115026247Y-96814285D01*
X115026247Y-96814285D02*
X115264342Y-96814285D01*
X115264342Y-96814285D02*
X115359580Y-96861904D01*
X115359580Y-96861904D02*
X115407200Y-96909523D01*
X115407200Y-96909523D02*
X115454819Y-97004761D01*
X115454819Y-97004761D02*
X115454819Y-97290475D01*
X115454819Y-97290475D02*
X115407200Y-97385713D01*
X115407200Y-97385713D02*
X115359580Y-97433332D01*
X138333333Y-96959580D02*
X138285714Y-97007200D01*
X138285714Y-97007200D02*
X138142857Y-97054819D01*
X138142857Y-97054819D02*
X138047619Y-97054819D01*
X138047619Y-97054819D02*
X137904762Y-97007200D01*
X137904762Y-97007200D02*
X137809524Y-96911961D01*
X137809524Y-96911961D02*
X137761905Y-96816723D01*
X137761905Y-96816723D02*
X137714286Y-96626247D01*
X137714286Y-96626247D02*
X137714286Y-96483390D01*
X137714286Y-96483390D02*
X137761905Y-96292914D01*
X137761905Y-96292914D02*
X137809524Y-96197676D01*
X137809524Y-96197676D02*
X137904762Y-96102438D01*
X137904762Y-96102438D02*
X138047619Y-96054819D01*
X138047619Y-96054819D02*
X138142857Y-96054819D01*
X138142857Y-96054819D02*
X138285714Y-96102438D01*
X138285714Y-96102438D02*
X138333333Y-96150057D01*
X138714286Y-96150057D02*
X138761905Y-96102438D01*
X138761905Y-96102438D02*
X138857143Y-96054819D01*
X138857143Y-96054819D02*
X139095238Y-96054819D01*
X139095238Y-96054819D02*
X139190476Y-96102438D01*
X139190476Y-96102438D02*
X139238095Y-96150057D01*
X139238095Y-96150057D02*
X139285714Y-96245295D01*
X139285714Y-96245295D02*
X139285714Y-96340533D01*
X139285714Y-96340533D02*
X139238095Y-96483390D01*
X139238095Y-96483390D02*
X138666667Y-97054819D01*
X138666667Y-97054819D02*
X139285714Y-97054819D01*
D11*
%TO.C,C4*%
X153588748Y-104265000D02*
X154111252Y-104265000D01*
X153588748Y-105735000D02*
X154111252Y-105735000D01*
%TO.C,C3*%
X133140580Y-97390000D02*
X132859420Y-97390000D01*
X133140580Y-98410000D02*
X132859420Y-98410000D01*
%TO.C,R2*%
X108477500Y-100237258D02*
X108477500Y-99762742D01*
X109522500Y-100237258D02*
X109522500Y-99762742D01*
%TO.C,U3*%
X131500000Y-98890000D02*
X134500000Y-98890000D01*
X131500000Y-101110000D02*
X134500000Y-101110000D01*
X130990000Y-98910000D02*
X130710000Y-98910000D01*
X130990000Y-98630000D01*
X130990000Y-98910000D01*
G36*
X130990000Y-98910000D02*
G01*
X130710000Y-98910000D01*
X130990000Y-98630000D01*
X130990000Y-98910000D01*
G37*
%TO.C,R7*%
X129537258Y-100227500D02*
X129062742Y-100227500D01*
X129537258Y-101272500D02*
X129062742Y-101272500D01*
%TO.C,U2*%
X137000000Y-98890000D02*
X140000000Y-98890000D01*
X137000000Y-101110000D02*
X140000000Y-101110000D01*
X136490000Y-98910000D02*
X136210000Y-98910000D01*
X136490000Y-98630000D01*
X136490000Y-98910000D01*
G36*
X136490000Y-98910000D02*
G01*
X136210000Y-98910000D01*
X136490000Y-98630000D01*
X136490000Y-98910000D01*
G37*
%TO.C,R6*%
X129062742Y-98727500D02*
X129537258Y-98727500D01*
X129062742Y-99772500D02*
X129537258Y-99772500D01*
%TO.C,C1*%
X144140580Y-97390000D02*
X143859420Y-97390000D01*
X144140580Y-98410000D02*
X143859420Y-98410000D01*
%TO.C,U1*%
X142500000Y-98890000D02*
X145500000Y-98890000D01*
X142500000Y-101110000D02*
X145500000Y-101110000D01*
X141990000Y-98910000D02*
X141710000Y-98910000D01*
X141990000Y-98630000D01*
X141990000Y-98910000D01*
G36*
X141990000Y-98910000D02*
G01*
X141710000Y-98910000D01*
X141990000Y-98630000D01*
X141990000Y-98910000D01*
G37*
%TO.C,R5*%
X126477500Y-100237258D02*
X126477500Y-99762742D01*
X127522500Y-100237258D02*
X127522500Y-99762742D01*
%TO.C,R1*%
X102477500Y-100237258D02*
X102477500Y-99762742D01*
X103522500Y-100237258D02*
X103522500Y-99762742D01*
%TO.C,R4*%
X120477500Y-100237258D02*
X120477500Y-99762742D01*
X121522500Y-100237258D02*
X121522500Y-99762742D01*
%TO.C,R3*%
X114477500Y-100237258D02*
X114477500Y-99762742D01*
X115522500Y-100237258D02*
X115522500Y-99762742D01*
%TO.C,C2*%
X138640580Y-97390000D02*
X138359420Y-97390000D01*
X138640580Y-98410000D02*
X138359420Y-98410000D01*
%TD*%
M02*
