%TF.GenerationSoftware,KiCad,Pcbnew,9.0.7*%
%TF.CreationDate,2026-03-15T09:41:37-05:00*%
%TF.ProjectId,Sensor-LCD5,53656e73-6f72-42d4-9c43-44352e6b6963,rev?*%
%TF.SameCoordinates,Original*%
%TF.FileFunction,Copper,L2,Bot*%
%TF.FilePolarity,Positive*%
%FSLAX46Y46*%
G04 Gerber Fmt 4.6, Leading zero omitted, Abs format (unit mm)*
G04 Created by KiCad (PCBNEW 9.0.7) date 2026-03-15 09:41:37*
%MOMM*%
%LPD*%
G01*
G04 APERTURE LIST*
%TA.AperFunction,ComponentPad*%
%ADD10C,1.778000*%
%TD*%
%TA.AperFunction,ComponentPad*%
%ADD11R,1.800000X1.800000*%
%TD*%
%TA.AperFunction,ComponentPad*%
%ADD12C,1.800000*%
%TD*%
%TA.AperFunction,ViaPad*%
%ADD13C,0.600000*%
%TD*%
%TA.AperFunction,Conductor*%
%ADD14C,0.254000*%
%TD*%
G04 APERTURE END LIST*
D10*
%TO.P,U4,1,RESERVED*%
%TO.N,unconnected-(U4-RESERVED-Pad1)*%
X165290000Y-92380000D03*
%TO.P,U4,2,ID*%
%TO.N,unconnected-(U4-ID-Pad2)*%
X162750000Y-92380000D03*
%TO.P,U4,3,CDC_RX*%
%TO.N,unconnected-(U4-CDC_RX-Pad3)*%
X160210000Y-92380000D03*
%TO.P,U4,4,CDC_TX*%
%TO.N,unconnected-(U4-CDC_TX-Pad4)*%
X157670000Y-92380000D03*
%TO.P,U4,5,DBG1*%
%TO.N,unconnected-(U4-DBG1-Pad5)*%
X155130000Y-92380000D03*
%TO.P,U4,6,DBG2*%
%TO.N,unconnected-(U4-DBG2-Pad6)*%
X152590000Y-92380000D03*
%TO.P,U4,7,0_TX*%
%TO.N,unconnected-(U4-0_TX-Pad7)*%
X150050000Y-92380000D03*
%TO.P,U4,8,1_RX*%
%TO.N,unconnected-(U4-1_RX-Pad8)*%
X147510000Y-92380000D03*
%TO.P,U4,9,2_SDA*%
%TO.N,unconnected-(U4-2_SDA-Pad9)*%
X144970000Y-92380000D03*
%TO.P,U4,10,3_SCL*%
%TO.N,unconnected-(U4-3_SCL-Pad10)*%
X142430000Y-92380000D03*
%TO.P,U4,11,4_MOSI*%
%TO.N,unconnected-(U4-4_MOSI-Pad11)*%
X139890000Y-92380000D03*
%TO.P,U4,12,5_MISO*%
%TO.N,unconnected-(U4-5_MISO-Pad12)*%
X137350000Y-92380000D03*
%TO.P,U4,13,6_SCK*%
%TO.N,unconnected-(U4-6_SCK-Pad13)*%
X134810000Y-92380000D03*
%TO.P,U4,14,7_SS*%
%TO.N,unconnected-(U4-7_SS-Pad14)*%
X132270000Y-92380000D03*
%TO.P,U4,15,GND*%
%TO.N,COM*%
X129730000Y-92380000D03*
%TO.P,U4,16,0_(TX)*%
%TO.N,unconnected-(U4-0_(TX)-Pad16)*%
X127190000Y-92380000D03*
%TO.P,U4,17,1_(RX)*%
%TO.N,unconnected-(U4-1_(RX)-Pad17)*%
X124650000Y-92380000D03*
%TO.P,U4,18,2*%
%TO.N,unconnected-(U4-2-Pad18)*%
X122110000Y-92380000D03*
%TO.P,U4,19,3*%
%TO.N,unconnected-(U4-3-Pad19)*%
X119570000Y-92380000D03*
%TO.P,U4,20,0*%
%TO.N,unconnected-(U4-0-Pad20)*%
X117030000Y-92380000D03*
%TO.P,U4,21,1*%
%TO.N,unconnected-(U4-1-Pad21)*%
X114490000Y-92380000D03*
%TO.P,U4,22,2*%
%TO.N,unconnected-(U4-2-Pad22)*%
X111950000Y-92380000D03*
%TO.P,U4,23,3*%
%TO.N,unconnected-(U4-3-Pad23)*%
X109410000Y-92380000D03*
%TO.P,U4,24,GND*%
%TO.N,COM*%
X106870000Y-92380000D03*
%TO.P,U4,25,0*%
%TO.N,unconnected-(U4-0-Pad25)*%
X104330000Y-92380000D03*
%TO.P,U4,26,1*%
%TO.N,unconnected-(U4-1-Pad26)*%
X101790000Y-92380000D03*
%TO.P,U4,27,2*%
%TO.N,unconnected-(U4-2-Pad27)*%
X99250000Y-92380000D03*
%TO.P,U4,28,3*%
%TO.N,unconnected-(U4-3-Pad28)*%
X96710000Y-92380000D03*
%TO.P,U4,29,4*%
%TO.N,unconnected-(U4-4-Pad29)*%
X96710000Y-107620000D03*
%TO.P,U4,30,5*%
%TO.N,unconnected-(U4-5-Pad30)*%
X99250000Y-107620000D03*
%TO.P,U4,31,6*%
%TO.N,unconnected-(U4-6-Pad31)*%
X101790000Y-107620000D03*
%TO.P,U4,32,7*%
%TO.N,unconnected-(U4-7-Pad32)*%
X104330000Y-107620000D03*
%TO.P,U4,33,GND*%
%TO.N,COM*%
X106870000Y-107620000D03*
%TO.P,U4,34,4*%
%TO.N,unconnected-(U4-4-Pad34)*%
X109410000Y-107620000D03*
%TO.P,U4,35,5*%
%TO.N,unconnected-(U4-5-Pad35)*%
X111950000Y-107620000D03*
%TO.P,U4,36,6*%
%TO.N,unconnected-(U4-6-Pad36)*%
X114490000Y-107620000D03*
%TO.P,U4,37,7*%
%TO.N,unconnected-(U4-7-Pad37)*%
X117030000Y-107620000D03*
%TO.P,U4,38,4*%
%TO.N,unconnected-(U4-4-Pad38)*%
X119570000Y-107620000D03*
%TO.P,U4,39,5*%
%TO.N,unconnected-(U4-5-Pad39)*%
X122110000Y-107620000D03*
%TO.P,U4,40,6*%
%TO.N,unconnected-(U4-6-Pad40)*%
X124650000Y-107620000D03*
%TO.P,U4,41,7*%
%TO.N,unconnected-(U4-7-Pad41)*%
X127190000Y-107620000D03*
%TO.P,U4,42,GND*%
%TO.N,COM*%
X129730000Y-107620000D03*
%TO.P,U4,43,ADC_0*%
%TO.N,/TRACK_ORANGE*%
X132270000Y-107620000D03*
%TO.P,U4,44,ADC_1*%
%TO.N,/TRACK_BLUE*%
X134810000Y-107620000D03*
%TO.P,U4,45,ADC_2*%
%TO.N,/TRACK_YELLOW*%
X137350000Y-107620000D03*
%TO.P,U4,46,PWM_3*%
%TO.N,unconnected-(U4-PWM_3-Pad46)*%
X139890000Y-107620000D03*
%TO.P,U4,47,PWM_4*%
%TO.N,unconnected-(U4-PWM_4-Pad47)*%
X142430000Y-107620000D03*
%TO.P,U4,48,ADC_5*%
%TO.N,/TRACK_RED*%
X144970000Y-107620000D03*
%TO.P,U4,49,ADC_6*%
%TO.N,/TRACK_GREEN*%
X147510000Y-107620000D03*
%TO.P,U4,50,ADC_7*%
%TO.N,unconnected-(U4-ADC_7-Pad50)*%
X150050000Y-107620000D03*
%TO.P,U4,51,VCC*%
%TO.N,VCC*%
X152590000Y-107620000D03*
%TO.P,U4,52,GND*%
%TO.N,COM*%
X155130000Y-107620000D03*
%TO.P,U4,53,DBG0*%
%TO.N,unconnected-(U4-DBG0-Pad53)*%
X157670000Y-107620000D03*
%TO.P,U4,54,DBG3*%
%TO.N,unconnected-(U4-DBG3-Pad54)*%
X160210000Y-107620000D03*
%TO.P,U4,55,VOFF*%
%TO.N,unconnected-(U4-VOFF-Pad55)*%
X162750000Y-107620000D03*
%TO.P,U4,56,VBUS*%
%TO.N,unconnected-(U4-VBUS-Pad56)*%
X165290000Y-107620000D03*
%TD*%
D11*
%TO.P,Q2,1,C*%
%TO.N,Net-(Q2-C)*%
X106000000Y-98735000D03*
D12*
%TO.P,Q2,2,E*%
%TO.N,COM*%
X106000000Y-101275000D03*
%TD*%
D11*
%TO.P,Q3,1,C*%
%TO.N,Net-(Q3-C)*%
X112000000Y-98735000D03*
D12*
%TO.P,Q3,2,E*%
%TO.N,COM*%
X112000000Y-101275000D03*
%TD*%
D11*
%TO.P,Q1,1,C*%
%TO.N,Net-(Q1-C)*%
X100000000Y-98735000D03*
D12*
%TO.P,Q1,2,E*%
%TO.N,COM*%
X100000000Y-101275000D03*
%TD*%
D11*
%TO.P,Q4,1,C*%
%TO.N,Net-(Q4-C)*%
X118000000Y-98735000D03*
D12*
%TO.P,Q4,2,E*%
%TO.N,COM*%
X118000000Y-101275000D03*
%TD*%
D11*
%TO.P,Q5,1,C*%
%TO.N,Net-(Q5-C)*%
X124000000Y-98735000D03*
D12*
%TO.P,Q5,2,E*%
%TO.N,COM*%
X124000000Y-101275000D03*
%TD*%
D13*
%TO.N,COM*%
X142550000Y-101400000D03*
X143225000Y-97000000D03*
X128475000Y-101700000D03*
X131550000Y-101400000D03*
X137050000Y-101400000D03*
X131300000Y-97900000D03*
X137725000Y-97000000D03*
%TO.N,Net-(Q1-C)*%
X145450000Y-101400000D03*
X145900000Y-97800000D03*
X146400000Y-99600000D03*
X145900000Y-96100000D03*
%TO.N,Net-(Q2-C)*%
X141600000Y-96100000D03*
X141600000Y-97800000D03*
%TO.N,Net-(Q3-C)*%
X139950000Y-101400000D03*
X140900000Y-99600000D03*
X140400000Y-97800000D03*
X140400000Y-96100000D03*
%TO.N,Net-(Q4-C)*%
X136100000Y-97800000D03*
X136100000Y-96100000D03*
%TO.N,Net-(Q5-C)*%
X134900000Y-97800000D03*
X134450000Y-101400000D03*
X134900000Y-96100000D03*
X135400000Y-99600000D03*
%TO.N,/TRACK_RED*%
X141593523Y-100813242D03*
X142227000Y-98500000D03*
%TO.N,/TRACK_BLUE*%
X136727000Y-98500000D03*
X136100000Y-100800000D03*
%TD*%
D14*
%TO.N,Net-(Q1-C)*%
X145900000Y-97800000D02*
X145900000Y-96100000D01*
X145450000Y-101400000D02*
X145450000Y-100550000D01*
X145450000Y-100550000D02*
X146400000Y-99600000D01*
%TO.N,Net-(Q2-C)*%
X141600000Y-97800000D02*
X141600000Y-96100000D01*
%TO.N,Net-(Q3-C)*%
X140900000Y-99600000D02*
X139950000Y-100550000D01*
X139950000Y-100550000D02*
X139950000Y-101400000D01*
X140400000Y-97800000D02*
X140400000Y-96100000D01*
%TO.N,Net-(Q4-C)*%
X136100000Y-97800000D02*
X136100000Y-96100000D01*
%TO.N,Net-(Q5-C)*%
X134900000Y-97800000D02*
X134900000Y-96100000D01*
X134450000Y-100550000D02*
X135400000Y-99600000D01*
X134450000Y-101400000D02*
X134450000Y-100550000D01*
%TO.N,/TRACK_RED*%
X141593523Y-100806477D02*
X141593523Y-100813242D01*
X142227000Y-100173000D02*
X141593523Y-100806477D01*
X142227000Y-98500000D02*
X142227000Y-100173000D01*
%TO.N,/TRACK_BLUE*%
X136727000Y-100173000D02*
X136100000Y-100800000D01*
X136727000Y-98500000D02*
X136727000Y-100173000D01*
%TD*%
%TA.AperFunction,Conductor*%
%TO.N,COM*%
G36*
X169495781Y-90360185D02*
G01*
X169541536Y-90412989D01*
X169551480Y-90482147D01*
X169522455Y-90545703D01*
X169490743Y-90571886D01*
X169318359Y-90671413D01*
X169318356Y-90671414D01*
X169318351Y-90671418D01*
X169105111Y-90835042D01*
X169105104Y-90835048D01*
X168915048Y-91025104D01*
X168915042Y-91025111D01*
X168751416Y-91238354D01*
X168617019Y-91471133D01*
X168617011Y-91471149D01*
X168514152Y-91719475D01*
X168444585Y-91979106D01*
X168444582Y-91979119D01*
X168409500Y-92245602D01*
X168409500Y-92514397D01*
X168444582Y-92780880D01*
X168444583Y-92780885D01*
X168444584Y-92780891D01*
X168464507Y-92855245D01*
X168514152Y-93040524D01*
X168617011Y-93288850D01*
X168617019Y-93288866D01*
X168672124Y-93384309D01*
X168751413Y-93521641D01*
X168751415Y-93521644D01*
X168751416Y-93521645D01*
X168915042Y-93734888D01*
X168915048Y-93734895D01*
X169105104Y-93924951D01*
X169105110Y-93924956D01*
X169318359Y-94088587D01*
X169467968Y-94174964D01*
X169551133Y-94222980D01*
X169551149Y-94222988D01*
X169706008Y-94287132D01*
X169799474Y-94325847D01*
X170059109Y-94395416D01*
X170247319Y-94420193D01*
X170325602Y-94430500D01*
X170325603Y-94430500D01*
X170594398Y-94430500D01*
X170654905Y-94422534D01*
X170860891Y-94395416D01*
X171120526Y-94325847D01*
X171307457Y-94248417D01*
X171368850Y-94222988D01*
X171368853Y-94222986D01*
X171368859Y-94222984D01*
X171601641Y-94088587D01*
X171814890Y-93924956D01*
X172004956Y-93734890D01*
X172168587Y-93521641D01*
X172268113Y-93349256D01*
X172318680Y-93301041D01*
X172387287Y-93287819D01*
X172452152Y-93313787D01*
X172492680Y-93370701D01*
X172499500Y-93411257D01*
X172499500Y-106588742D01*
X172479815Y-106655781D01*
X172427011Y-106701536D01*
X172357853Y-106711480D01*
X172294297Y-106682455D01*
X172268113Y-106650743D01*
X172255732Y-106629298D01*
X172168587Y-106478359D01*
X172132704Y-106431595D01*
X172004957Y-106265111D01*
X172004951Y-106265104D01*
X171814895Y-106075048D01*
X171814888Y-106075042D01*
X171601645Y-105911416D01*
X171601644Y-105911415D01*
X171601641Y-105911413D01*
X171508832Y-105857830D01*
X171368866Y-105777019D01*
X171368850Y-105777011D01*
X171120524Y-105674152D01*
X170990708Y-105639368D01*
X170860891Y-105604584D01*
X170860885Y-105604583D01*
X170860880Y-105604582D01*
X170594398Y-105569500D01*
X170594397Y-105569500D01*
X170325603Y-105569500D01*
X170325602Y-105569500D01*
X170059119Y-105604582D01*
X170059112Y-105604583D01*
X170059109Y-105604584D01*
X170004239Y-105619286D01*
X169799475Y-105674152D01*
X169551149Y-105777011D01*
X169551133Y-105777019D01*
X169318354Y-105911416D01*
X169105111Y-106075042D01*
X169105104Y-106075048D01*
X168915048Y-106265104D01*
X168915042Y-106265111D01*
X168751416Y-106478354D01*
X168617019Y-106711133D01*
X168617011Y-106711149D01*
X168514152Y-106959475D01*
X168444585Y-107219106D01*
X168444582Y-107219119D01*
X168409500Y-107485602D01*
X168409500Y-107754397D01*
X168444582Y-108020880D01*
X168444583Y-108020885D01*
X168444584Y-108020891D01*
X168464507Y-108095245D01*
X168514152Y-108280524D01*
X168617011Y-108528850D01*
X168617019Y-108528866D01*
X168672124Y-108624309D01*
X168751413Y-108761641D01*
X168751415Y-108761644D01*
X168751416Y-108761645D01*
X168915042Y-108974888D01*
X168915048Y-108974895D01*
X169105104Y-109164951D01*
X169105111Y-109164957D01*
X169318351Y-109328581D01*
X169318359Y-109328587D01*
X169490743Y-109428113D01*
X169538958Y-109478680D01*
X169552180Y-109547288D01*
X169526212Y-109612152D01*
X169469298Y-109652680D01*
X169428742Y-109659500D01*
X86071258Y-109659500D01*
X86004219Y-109639815D01*
X85958464Y-109587011D01*
X85948520Y-109517853D01*
X85977545Y-109454297D01*
X86009257Y-109428113D01*
X86181641Y-109328587D01*
X86394890Y-109164956D01*
X86584956Y-108974890D01*
X86748587Y-108761641D01*
X86882984Y-108528859D01*
X86985847Y-108280526D01*
X87055416Y-108020891D01*
X87090500Y-107754397D01*
X87090500Y-107510638D01*
X95320500Y-107510638D01*
X95320500Y-107729361D01*
X95354714Y-107945376D01*
X95422297Y-108153380D01*
X95422298Y-108153383D01*
X95487081Y-108280524D01*
X95509722Y-108324960D01*
X95521595Y-108348260D01*
X95650142Y-108525193D01*
X95804806Y-108679857D01*
X95917380Y-108761645D01*
X95981743Y-108808407D01*
X96109132Y-108873315D01*
X96176616Y-108907701D01*
X96176619Y-108907702D01*
X96280621Y-108941493D01*
X96384625Y-108975286D01*
X96484672Y-108991132D01*
X96600639Y-109009500D01*
X96600644Y-109009500D01*
X96819361Y-109009500D01*
X96924082Y-108992912D01*
X97035375Y-108975286D01*
X97243383Y-108907701D01*
X97438257Y-108808407D01*
X97572172Y-108711113D01*
X97615193Y-108679857D01*
X97615195Y-108679854D01*
X97615199Y-108679852D01*
X97769852Y-108525199D01*
X97879683Y-108374028D01*
X97935011Y-108331364D01*
X98004624Y-108325385D01*
X98066420Y-108357990D01*
X98080313Y-108374023D01*
X98189906Y-108524866D01*
X98190148Y-108525199D01*
X98344806Y-108679857D01*
X98457380Y-108761645D01*
X98521743Y-108808407D01*
X98649132Y-108873315D01*
X98716616Y-108907701D01*
X98716619Y-108907702D01*
X98820621Y-108941493D01*
X98924625Y-108975286D01*
X99024672Y-108991132D01*
X99140639Y-109009500D01*
X99140644Y-109009500D01*
X99359361Y-109009500D01*
X99464082Y-108992912D01*
X99575375Y-108975286D01*
X99783383Y-108907701D01*
X99978257Y-108808407D01*
X100112172Y-108711113D01*
X100155193Y-108679857D01*
X100155195Y-108679854D01*
X100155199Y-108679852D01*
X100309852Y-108525199D01*
X100419683Y-108374028D01*
X100475011Y-108331364D01*
X100544624Y-108325385D01*
X100606420Y-108357990D01*
X100620313Y-108374023D01*
X100729906Y-108524866D01*
X100730148Y-108525199D01*
X100884806Y-108679857D01*
X100997380Y-108761645D01*
X101061743Y-108808407D01*
X101189132Y-108873315D01*
X101256616Y-108907701D01*
X101256619Y-108907702D01*
X101360621Y-108941493D01*
X101464625Y-108975286D01*
X101564672Y-108991132D01*
X101680639Y-109009500D01*
X101680644Y-109009500D01*
X101899361Y-109009500D01*
X102004082Y-108992912D01*
X102115375Y-108975286D01*
X102323383Y-108907701D01*
X102518257Y-108808407D01*
X102652172Y-108711113D01*
X102695193Y-108679857D01*
X102695195Y-108679854D01*
X102695199Y-108679852D01*
X102849852Y-108525199D01*
X102959683Y-108374028D01*
X103015011Y-108331364D01*
X103084624Y-108325385D01*
X103146420Y-108357990D01*
X103160313Y-108374023D01*
X103269906Y-108524866D01*
X103270148Y-108525199D01*
X103424806Y-108679857D01*
X103537380Y-108761645D01*
X103601743Y-108808407D01*
X103729132Y-108873315D01*
X103796616Y-108907701D01*
X103796619Y-108907702D01*
X103900621Y-108941493D01*
X104004625Y-108975286D01*
X104104672Y-108991132D01*
X104220639Y-109009500D01*
X104220644Y-109009500D01*
X104439361Y-109009500D01*
X104544082Y-108992912D01*
X104655375Y-108975286D01*
X104863383Y-108907701D01*
X105058257Y-108808407D01*
X105192172Y-108711113D01*
X105235193Y-108679857D01*
X105235195Y-108679854D01*
X105235199Y-108679852D01*
X105389852Y-108525199D01*
X105499991Y-108373603D01*
X105555320Y-108330939D01*
X105624933Y-108324960D01*
X105686729Y-108357565D01*
X105700627Y-108373605D01*
X105810524Y-108524866D01*
X105810528Y-108524871D01*
X105965128Y-108679471D01*
X105965133Y-108679475D01*
X106142001Y-108807976D01*
X106336808Y-108907237D01*
X106336811Y-108907238D01*
X106544739Y-108974797D01*
X106619999Y-108986717D01*
X106620000Y-108986717D01*
X106620000Y-108064560D01*
X106673147Y-108095245D01*
X106802857Y-108130000D01*
X106937143Y-108130000D01*
X107066853Y-108095245D01*
X107120000Y-108064560D01*
X107120000Y-108986717D01*
X107195258Y-108974797D01*
X107195261Y-108974797D01*
X107403188Y-108907238D01*
X107403191Y-108907237D01*
X107597998Y-108807976D01*
X107774866Y-108679475D01*
X107774871Y-108679471D01*
X107929469Y-108524873D01*
X108039371Y-108373605D01*
X108094701Y-108330939D01*
X108164314Y-108324960D01*
X108226110Y-108357565D01*
X108240008Y-108373605D01*
X108350142Y-108525192D01*
X108350146Y-108525197D01*
X108504806Y-108679857D01*
X108617380Y-108761645D01*
X108681743Y-108808407D01*
X108809132Y-108873315D01*
X108876616Y-108907701D01*
X108876619Y-108907702D01*
X108980621Y-108941493D01*
X109084625Y-108975286D01*
X109184672Y-108991132D01*
X109300639Y-109009500D01*
X109300644Y-109009500D01*
X109519361Y-109009500D01*
X109624082Y-108992912D01*
X109735375Y-108975286D01*
X109943383Y-108907701D01*
X110138257Y-108808407D01*
X110272172Y-108711113D01*
X110315193Y-108679857D01*
X110315195Y-108679854D01*
X110315199Y-108679852D01*
X110469852Y-108525199D01*
X110579683Y-108374028D01*
X110635011Y-108331364D01*
X110704624Y-108325385D01*
X110766420Y-108357990D01*
X110780313Y-108374023D01*
X110889906Y-108524866D01*
X110890148Y-108525199D01*
X111044806Y-108679857D01*
X111157380Y-108761645D01*
X111221743Y-108808407D01*
X111349132Y-108873315D01*
X111416616Y-108907701D01*
X111416619Y-108907702D01*
X111520621Y-108941493D01*
X111624625Y-108975286D01*
X111724672Y-108991132D01*
X111840639Y-109009500D01*
X111840644Y-109009500D01*
X112059361Y-109009500D01*
X112164082Y-108992912D01*
X112275375Y-108975286D01*
X112483383Y-108907701D01*
X112678257Y-108808407D01*
X112812172Y-108711113D01*
X112855193Y-108679857D01*
X112855195Y-108679854D01*
X112855199Y-108679852D01*
X113009852Y-108525199D01*
X113119683Y-108374028D01*
X113175011Y-108331364D01*
X113244624Y-108325385D01*
X113306420Y-108357990D01*
X113320313Y-108374023D01*
X113429906Y-108524866D01*
X113430148Y-108525199D01*
X113584806Y-108679857D01*
X113697380Y-108761645D01*
X113761743Y-108808407D01*
X113889132Y-108873315D01*
X113956616Y-108907701D01*
X113956619Y-108907702D01*
X114060621Y-108941493D01*
X114164625Y-108975286D01*
X114264672Y-108991132D01*
X114380639Y-109009500D01*
X114380644Y-109009500D01*
X114599361Y-109009500D01*
X114704082Y-108992912D01*
X114815375Y-108975286D01*
X115023383Y-108907701D01*
X115218257Y-108808407D01*
X115352172Y-108711113D01*
X115395193Y-108679857D01*
X115395195Y-108679854D01*
X115395199Y-108679852D01*
X115549852Y-108525199D01*
X115659683Y-108374028D01*
X115715011Y-108331364D01*
X115784624Y-108325385D01*
X115846420Y-108357990D01*
X115860313Y-108374023D01*
X115969906Y-108524866D01*
X115970148Y-108525199D01*
X116124806Y-108679857D01*
X116237380Y-108761645D01*
X116301743Y-108808407D01*
X116429132Y-108873315D01*
X116496616Y-108907701D01*
X116496619Y-108907702D01*
X116600621Y-108941493D01*
X116704625Y-108975286D01*
X116804672Y-108991132D01*
X116920639Y-109009500D01*
X116920644Y-109009500D01*
X117139361Y-109009500D01*
X117244082Y-108992912D01*
X117355375Y-108975286D01*
X117563383Y-108907701D01*
X117758257Y-108808407D01*
X117892172Y-108711113D01*
X117935193Y-108679857D01*
X117935195Y-108679854D01*
X117935199Y-108679852D01*
X118089852Y-108525199D01*
X118199683Y-108374028D01*
X118255011Y-108331364D01*
X118324624Y-108325385D01*
X118386420Y-108357990D01*
X118400313Y-108374023D01*
X118509906Y-108524866D01*
X118510148Y-108525199D01*
X118664806Y-108679857D01*
X118777380Y-108761645D01*
X118841743Y-108808407D01*
X118969132Y-108873315D01*
X119036616Y-108907701D01*
X119036619Y-108907702D01*
X119140621Y-108941493D01*
X119244625Y-108975286D01*
X119344672Y-108991132D01*
X119460639Y-109009500D01*
X119460644Y-109009500D01*
X119679361Y-109009500D01*
X119784082Y-108992912D01*
X119895375Y-108975286D01*
X120103383Y-108907701D01*
X120298257Y-108808407D01*
X120432172Y-108711113D01*
X120475193Y-108679857D01*
X120475195Y-108679854D01*
X120475199Y-108679852D01*
X120629852Y-108525199D01*
X120739683Y-108374028D01*
X120795011Y-108331364D01*
X120864624Y-108325385D01*
X120926420Y-108357990D01*
X120940313Y-108374023D01*
X121049906Y-108524866D01*
X121050148Y-108525199D01*
X121204806Y-108679857D01*
X121317380Y-108761645D01*
X121381743Y-108808407D01*
X121509132Y-108873315D01*
X121576616Y-108907701D01*
X121576619Y-108907702D01*
X121680621Y-108941493D01*
X121784625Y-108975286D01*
X121884672Y-108991132D01*
X122000639Y-109009500D01*
X122000644Y-109009500D01*
X122219361Y-109009500D01*
X122324082Y-108992912D01*
X122435375Y-108975286D01*
X122643383Y-108907701D01*
X122838257Y-108808407D01*
X122972172Y-108711113D01*
X123015193Y-108679857D01*
X123015195Y-108679854D01*
X123015199Y-108679852D01*
X123169852Y-108525199D01*
X123279683Y-108374028D01*
X123335011Y-108331364D01*
X123404624Y-108325385D01*
X123466420Y-108357990D01*
X123480313Y-108374023D01*
X123589906Y-108524866D01*
X123590148Y-108525199D01*
X123744806Y-108679857D01*
X123857380Y-108761645D01*
X123921743Y-108808407D01*
X124049132Y-108873315D01*
X124116616Y-108907701D01*
X124116619Y-108907702D01*
X124220621Y-108941493D01*
X124324625Y-108975286D01*
X124424672Y-108991132D01*
X124540639Y-109009500D01*
X124540644Y-109009500D01*
X124759361Y-109009500D01*
X124864082Y-108992912D01*
X124975375Y-108975286D01*
X125183383Y-108907701D01*
X125378257Y-108808407D01*
X125512172Y-108711113D01*
X125555193Y-108679857D01*
X125555195Y-108679854D01*
X125555199Y-108679852D01*
X125709852Y-108525199D01*
X125819683Y-108374028D01*
X125875011Y-108331364D01*
X125944624Y-108325385D01*
X126006420Y-108357990D01*
X126020313Y-108374023D01*
X126129906Y-108524866D01*
X126130148Y-108525199D01*
X126284806Y-108679857D01*
X126397380Y-108761645D01*
X126461743Y-108808407D01*
X126589132Y-108873315D01*
X126656616Y-108907701D01*
X126656619Y-108907702D01*
X126760621Y-108941493D01*
X126864625Y-108975286D01*
X126964672Y-108991132D01*
X127080639Y-109009500D01*
X127080644Y-109009500D01*
X127299361Y-109009500D01*
X127404082Y-108992912D01*
X127515375Y-108975286D01*
X127723383Y-108907701D01*
X127918257Y-108808407D01*
X128052172Y-108711113D01*
X128095193Y-108679857D01*
X128095195Y-108679854D01*
X128095199Y-108679852D01*
X128249852Y-108525199D01*
X128359991Y-108373603D01*
X128415320Y-108330939D01*
X128484933Y-108324960D01*
X128546729Y-108357565D01*
X128560627Y-108373605D01*
X128670524Y-108524866D01*
X128670528Y-108524871D01*
X128825128Y-108679471D01*
X128825133Y-108679475D01*
X129002001Y-108807976D01*
X129196808Y-108907237D01*
X129196811Y-108907238D01*
X129404739Y-108974797D01*
X129479999Y-108986717D01*
X129480000Y-108986717D01*
X129480000Y-108064560D01*
X129533147Y-108095245D01*
X129662857Y-108130000D01*
X129797143Y-108130000D01*
X129926853Y-108095245D01*
X129980000Y-108064560D01*
X129980000Y-108986717D01*
X130055258Y-108974797D01*
X130055261Y-108974797D01*
X130263188Y-108907238D01*
X130263191Y-108907237D01*
X130457998Y-108807976D01*
X130634866Y-108679475D01*
X130634871Y-108679471D01*
X130789469Y-108524873D01*
X130899371Y-108373605D01*
X130954701Y-108330939D01*
X131024314Y-108324960D01*
X131086110Y-108357565D01*
X131100008Y-108373605D01*
X131210142Y-108525192D01*
X131210146Y-108525197D01*
X131364806Y-108679857D01*
X131477380Y-108761645D01*
X131541743Y-108808407D01*
X131669132Y-108873315D01*
X131736616Y-108907701D01*
X131736619Y-108907702D01*
X131840621Y-108941493D01*
X131944625Y-108975286D01*
X132044672Y-108991132D01*
X132160639Y-109009500D01*
X132160644Y-109009500D01*
X132379361Y-109009500D01*
X132484082Y-108992912D01*
X132595375Y-108975286D01*
X132803383Y-108907701D01*
X132998257Y-108808407D01*
X133132172Y-108711113D01*
X133175193Y-108679857D01*
X133175195Y-108679854D01*
X133175199Y-108679852D01*
X133329852Y-108525199D01*
X133439683Y-108374028D01*
X133495011Y-108331364D01*
X133564624Y-108325385D01*
X133626420Y-108357990D01*
X133640313Y-108374023D01*
X133749906Y-108524866D01*
X133750148Y-108525199D01*
X133904806Y-108679857D01*
X134017380Y-108761645D01*
X134081743Y-108808407D01*
X134209132Y-108873315D01*
X134276616Y-108907701D01*
X134276619Y-108907702D01*
X134380621Y-108941493D01*
X134484625Y-108975286D01*
X134584672Y-108991132D01*
X134700639Y-109009500D01*
X134700644Y-109009500D01*
X134919361Y-109009500D01*
X135024082Y-108992912D01*
X135135375Y-108975286D01*
X135343383Y-108907701D01*
X135538257Y-108808407D01*
X135672172Y-108711113D01*
X135715193Y-108679857D01*
X135715195Y-108679854D01*
X135715199Y-108679852D01*
X135869852Y-108525199D01*
X135979683Y-108374028D01*
X136035011Y-108331364D01*
X136104624Y-108325385D01*
X136166420Y-108357990D01*
X136180313Y-108374023D01*
X136289906Y-108524866D01*
X136290148Y-108525199D01*
X136444806Y-108679857D01*
X136557380Y-108761645D01*
X136621743Y-108808407D01*
X136749132Y-108873315D01*
X136816616Y-108907701D01*
X136816619Y-108907702D01*
X136920621Y-108941493D01*
X137024625Y-108975286D01*
X137124672Y-108991132D01*
X137240639Y-109009500D01*
X137240644Y-109009500D01*
X137459361Y-109009500D01*
X137564082Y-108992912D01*
X137675375Y-108975286D01*
X137883383Y-108907701D01*
X138078257Y-108808407D01*
X138212172Y-108711113D01*
X138255193Y-108679857D01*
X138255195Y-108679854D01*
X138255199Y-108679852D01*
X138409852Y-108525199D01*
X138519683Y-108374028D01*
X138575011Y-108331364D01*
X138644624Y-108325385D01*
X138706420Y-108357990D01*
X138720313Y-108374023D01*
X138829906Y-108524866D01*
X138830148Y-108525199D01*
X138984806Y-108679857D01*
X139097380Y-108761645D01*
X139161743Y-108808407D01*
X139289132Y-108873315D01*
X139356616Y-108907701D01*
X139356619Y-108907702D01*
X139460621Y-108941493D01*
X139564625Y-108975286D01*
X139664672Y-108991132D01*
X139780639Y-109009500D01*
X139780644Y-109009500D01*
X139999361Y-109009500D01*
X140104082Y-108992912D01*
X140215375Y-108975286D01*
X140423383Y-108907701D01*
X140618257Y-108808407D01*
X140752172Y-108711113D01*
X140795193Y-108679857D01*
X140795195Y-108679854D01*
X140795199Y-108679852D01*
X140949852Y-108525199D01*
X141059683Y-108374028D01*
X141115011Y-108331364D01*
X141184624Y-108325385D01*
X141246420Y-108357990D01*
X141260313Y-108374023D01*
X141369906Y-108524866D01*
X141370148Y-108525199D01*
X141524806Y-108679857D01*
X141637380Y-108761645D01*
X141701743Y-108808407D01*
X141829132Y-108873315D01*
X141896616Y-108907701D01*
X141896619Y-108907702D01*
X142000621Y-108941493D01*
X142104625Y-108975286D01*
X142204672Y-108991132D01*
X142320639Y-109009500D01*
X142320644Y-109009500D01*
X142539361Y-109009500D01*
X142644082Y-108992912D01*
X142755375Y-108975286D01*
X142963383Y-108907701D01*
X143158257Y-108808407D01*
X143292172Y-108711113D01*
X143335193Y-108679857D01*
X143335195Y-108679854D01*
X143335199Y-108679852D01*
X143489852Y-108525199D01*
X143599683Y-108374028D01*
X143655011Y-108331364D01*
X143724624Y-108325385D01*
X143786420Y-108357990D01*
X143800313Y-108374023D01*
X143909906Y-108524866D01*
X143910148Y-108525199D01*
X144064806Y-108679857D01*
X144177380Y-108761645D01*
X144241743Y-108808407D01*
X144369132Y-108873315D01*
X144436616Y-108907701D01*
X144436619Y-108907702D01*
X144540621Y-108941493D01*
X144644625Y-108975286D01*
X144744672Y-108991132D01*
X144860639Y-109009500D01*
X144860644Y-109009500D01*
X145079361Y-109009500D01*
X145184082Y-108992912D01*
X145295375Y-108975286D01*
X145503383Y-108907701D01*
X145698257Y-108808407D01*
X145832172Y-108711113D01*
X145875193Y-108679857D01*
X145875195Y-108679854D01*
X145875199Y-108679852D01*
X146029852Y-108525199D01*
X146139683Y-108374028D01*
X146195011Y-108331364D01*
X146264624Y-108325385D01*
X146326420Y-108357990D01*
X146340313Y-108374023D01*
X146449906Y-108524866D01*
X146450148Y-108525199D01*
X146604806Y-108679857D01*
X146717380Y-108761645D01*
X146781743Y-108808407D01*
X146909132Y-108873315D01*
X146976616Y-108907701D01*
X146976619Y-108907702D01*
X147080621Y-108941493D01*
X147184625Y-108975286D01*
X147284672Y-108991132D01*
X147400639Y-109009500D01*
X147400644Y-109009500D01*
X147619361Y-109009500D01*
X147724082Y-108992912D01*
X147835375Y-108975286D01*
X148043383Y-108907701D01*
X148238257Y-108808407D01*
X148372172Y-108711113D01*
X148415193Y-108679857D01*
X148415195Y-108679854D01*
X148415199Y-108679852D01*
X148569852Y-108525199D01*
X148679683Y-108374028D01*
X148735011Y-108331364D01*
X148804624Y-108325385D01*
X148866420Y-108357990D01*
X148880313Y-108374023D01*
X148989906Y-108524866D01*
X148990148Y-108525199D01*
X149144806Y-108679857D01*
X149257380Y-108761645D01*
X149321743Y-108808407D01*
X149449132Y-108873315D01*
X149516616Y-108907701D01*
X149516619Y-108907702D01*
X149620621Y-108941493D01*
X149724625Y-108975286D01*
X149824672Y-108991132D01*
X149940639Y-109009500D01*
X149940644Y-109009500D01*
X150159361Y-109009500D01*
X150264082Y-108992912D01*
X150375375Y-108975286D01*
X150583383Y-108907701D01*
X150778257Y-108808407D01*
X150912172Y-108711113D01*
X150955193Y-108679857D01*
X150955195Y-108679854D01*
X150955199Y-108679852D01*
X151109852Y-108525199D01*
X151219683Y-108374028D01*
X151275011Y-108331364D01*
X151344624Y-108325385D01*
X151406420Y-108357990D01*
X151420313Y-108374023D01*
X151529906Y-108524866D01*
X151530148Y-108525199D01*
X151684806Y-108679857D01*
X151797380Y-108761645D01*
X151861743Y-108808407D01*
X151989132Y-108873315D01*
X152056616Y-108907701D01*
X152056619Y-108907702D01*
X152160621Y-108941493D01*
X152264625Y-108975286D01*
X152364672Y-108991132D01*
X152480639Y-109009500D01*
X152480644Y-109009500D01*
X152699361Y-109009500D01*
X152804082Y-108992912D01*
X152915375Y-108975286D01*
X153123383Y-108907701D01*
X153318257Y-108808407D01*
X153452172Y-108711113D01*
X153495193Y-108679857D01*
X153495195Y-108679854D01*
X153495199Y-108679852D01*
X153649852Y-108525199D01*
X153759991Y-108373603D01*
X153815320Y-108330939D01*
X153884933Y-108324960D01*
X153946729Y-108357565D01*
X153960627Y-108373605D01*
X154070524Y-108524866D01*
X154070528Y-108524871D01*
X154225128Y-108679471D01*
X154225133Y-108679475D01*
X154402001Y-108807976D01*
X154596808Y-108907237D01*
X154596811Y-108907238D01*
X154804739Y-108974797D01*
X154879999Y-108986717D01*
X154880000Y-108986717D01*
X154880000Y-108064560D01*
X154933147Y-108095245D01*
X155062857Y-108130000D01*
X155197143Y-108130000D01*
X155326853Y-108095245D01*
X155380000Y-108064560D01*
X155380000Y-108986717D01*
X155455258Y-108974797D01*
X155455261Y-108974797D01*
X155663188Y-108907238D01*
X155663191Y-108907237D01*
X155857998Y-108807976D01*
X156034866Y-108679475D01*
X156034871Y-108679471D01*
X156189469Y-108524873D01*
X156299371Y-108373605D01*
X156354701Y-108330939D01*
X156424314Y-108324960D01*
X156486110Y-108357565D01*
X156500008Y-108373605D01*
X156610142Y-108525192D01*
X156610146Y-108525197D01*
X156764806Y-108679857D01*
X156877380Y-108761645D01*
X156941743Y-108808407D01*
X157069132Y-108873315D01*
X157136616Y-108907701D01*
X157136619Y-108907702D01*
X157240621Y-108941493D01*
X157344625Y-108975286D01*
X157444672Y-108991132D01*
X157560639Y-109009500D01*
X157560644Y-109009500D01*
X157779361Y-109009500D01*
X157884082Y-108992912D01*
X157995375Y-108975286D01*
X158203383Y-108907701D01*
X158398257Y-108808407D01*
X158532172Y-108711113D01*
X158575193Y-108679857D01*
X158575195Y-108679854D01*
X158575199Y-108679852D01*
X158729852Y-108525199D01*
X158839683Y-108374028D01*
X158895011Y-108331364D01*
X158964624Y-108325385D01*
X159026420Y-108357990D01*
X159040313Y-108374023D01*
X159149906Y-108524866D01*
X159150148Y-108525199D01*
X159304806Y-108679857D01*
X159417380Y-108761645D01*
X159481743Y-108808407D01*
X159609132Y-108873315D01*
X159676616Y-108907701D01*
X159676619Y-108907702D01*
X159780621Y-108941493D01*
X159884625Y-108975286D01*
X159984672Y-108991132D01*
X160100639Y-109009500D01*
X160100644Y-109009500D01*
X160319361Y-109009500D01*
X160424082Y-108992912D01*
X160535375Y-108975286D01*
X160743383Y-108907701D01*
X160938257Y-108808407D01*
X161072172Y-108711113D01*
X161115193Y-108679857D01*
X161115195Y-108679854D01*
X161115199Y-108679852D01*
X161269852Y-108525199D01*
X161379683Y-108374028D01*
X161435011Y-108331364D01*
X161504624Y-108325385D01*
X161566420Y-108357990D01*
X161580313Y-108374023D01*
X161689906Y-108524866D01*
X161690148Y-108525199D01*
X161844806Y-108679857D01*
X161957380Y-108761645D01*
X162021743Y-108808407D01*
X162149132Y-108873315D01*
X162216616Y-108907701D01*
X162216619Y-108907702D01*
X162320621Y-108941493D01*
X162424625Y-108975286D01*
X162524672Y-108991132D01*
X162640639Y-109009500D01*
X162640644Y-109009500D01*
X162859361Y-109009500D01*
X162964082Y-108992912D01*
X163075375Y-108975286D01*
X163283383Y-108907701D01*
X163478257Y-108808407D01*
X163612172Y-108711113D01*
X163655193Y-108679857D01*
X163655195Y-108679854D01*
X163655199Y-108679852D01*
X163809852Y-108525199D01*
X163919683Y-108374028D01*
X163975011Y-108331364D01*
X164044624Y-108325385D01*
X164106420Y-108357990D01*
X164120313Y-108374023D01*
X164229906Y-108524866D01*
X164230148Y-108525199D01*
X164384806Y-108679857D01*
X164497380Y-108761645D01*
X164561743Y-108808407D01*
X164689132Y-108873315D01*
X164756616Y-108907701D01*
X164756619Y-108907702D01*
X164860621Y-108941493D01*
X164964625Y-108975286D01*
X165064672Y-108991132D01*
X165180639Y-109009500D01*
X165180644Y-109009500D01*
X165399361Y-109009500D01*
X165504082Y-108992912D01*
X165615375Y-108975286D01*
X165823383Y-108907701D01*
X166018257Y-108808407D01*
X166152172Y-108711113D01*
X166195193Y-108679857D01*
X166195195Y-108679854D01*
X166195199Y-108679852D01*
X166349852Y-108525199D01*
X166349854Y-108525195D01*
X166349857Y-108525193D01*
X166418092Y-108431274D01*
X166478407Y-108348257D01*
X166577701Y-108153383D01*
X166645286Y-107945375D01*
X166665642Y-107816853D01*
X166679500Y-107729361D01*
X166679500Y-107510638D01*
X166659595Y-107384971D01*
X166645286Y-107294625D01*
X166590260Y-107125269D01*
X166577702Y-107086619D01*
X166577701Y-107086616D01*
X166512918Y-106959475D01*
X166478407Y-106891743D01*
X166459681Y-106865969D01*
X166349857Y-106714806D01*
X166195193Y-106560142D01*
X166018260Y-106431595D01*
X166018259Y-106431594D01*
X166018257Y-106431593D01*
X165955825Y-106399782D01*
X165823383Y-106332298D01*
X165823380Y-106332297D01*
X165615376Y-106264714D01*
X165399361Y-106230500D01*
X165399356Y-106230500D01*
X165180644Y-106230500D01*
X165180639Y-106230500D01*
X164964623Y-106264714D01*
X164756619Y-106332297D01*
X164756616Y-106332298D01*
X164561739Y-106431595D01*
X164384806Y-106560142D01*
X164230142Y-106714806D01*
X164120318Y-106865969D01*
X164064989Y-106908635D01*
X163995375Y-106914614D01*
X163933580Y-106882009D01*
X163919682Y-106865969D01*
X163809857Y-106714806D01*
X163655193Y-106560142D01*
X163478260Y-106431595D01*
X163478259Y-106431594D01*
X163478257Y-106431593D01*
X163415825Y-106399782D01*
X163283383Y-106332298D01*
X163283380Y-106332297D01*
X163075376Y-106264714D01*
X162859361Y-106230500D01*
X162859356Y-106230500D01*
X162640644Y-106230500D01*
X162640639Y-106230500D01*
X162424623Y-106264714D01*
X162216619Y-106332297D01*
X162216616Y-106332298D01*
X162021739Y-106431595D01*
X161844806Y-106560142D01*
X161690142Y-106714806D01*
X161580318Y-106865969D01*
X161524989Y-106908635D01*
X161455375Y-106914614D01*
X161393580Y-106882009D01*
X161379682Y-106865969D01*
X161269857Y-106714806D01*
X161115193Y-106560142D01*
X160938260Y-106431595D01*
X160938259Y-106431594D01*
X160938257Y-106431593D01*
X160875825Y-106399782D01*
X160743383Y-106332298D01*
X160743380Y-106332297D01*
X160535376Y-106264714D01*
X160319361Y-106230500D01*
X160319356Y-106230500D01*
X160100644Y-106230500D01*
X160100639Y-106230500D01*
X159884623Y-106264714D01*
X159676619Y-106332297D01*
X159676616Y-106332298D01*
X159481739Y-106431595D01*
X159304806Y-106560142D01*
X159150142Y-106714806D01*
X159040318Y-106865969D01*
X158984989Y-106908635D01*
X158915375Y-106914614D01*
X158853580Y-106882009D01*
X158839682Y-106865969D01*
X158729857Y-106714806D01*
X158575193Y-106560142D01*
X158398260Y-106431595D01*
X158398259Y-106431594D01*
X158398257Y-106431593D01*
X158335825Y-106399782D01*
X158203383Y-106332298D01*
X158203380Y-106332297D01*
X157995376Y-106264714D01*
X157779361Y-106230500D01*
X157779356Y-106230500D01*
X157560644Y-106230500D01*
X157560639Y-106230500D01*
X157344623Y-106264714D01*
X157136619Y-106332297D01*
X157136616Y-106332298D01*
X156941739Y-106431595D01*
X156764806Y-106560142D01*
X156610146Y-106714802D01*
X156610142Y-106714807D01*
X156500008Y-106866394D01*
X156444678Y-106909060D01*
X156375065Y-106915039D01*
X156313270Y-106882433D01*
X156299372Y-106866394D01*
X156189475Y-106715133D01*
X156189471Y-106715128D01*
X156034871Y-106560528D01*
X156034866Y-106560524D01*
X155857998Y-106432023D01*
X155663191Y-106332762D01*
X155663188Y-106332761D01*
X155455258Y-106265201D01*
X155380000Y-106253281D01*
X155380000Y-107175439D01*
X155326853Y-107144755D01*
X155197143Y-107110000D01*
X155062857Y-107110000D01*
X154933147Y-107144755D01*
X154880000Y-107175439D01*
X154880000Y-106253281D01*
X154804741Y-106265201D01*
X154596811Y-106332761D01*
X154596808Y-106332762D01*
X154402001Y-106432023D01*
X154225133Y-106560524D01*
X154225128Y-106560528D01*
X154070528Y-106715128D01*
X154070524Y-106715133D01*
X153960627Y-106866394D01*
X153905297Y-106909060D01*
X153835684Y-106915039D01*
X153773889Y-106882433D01*
X153759991Y-106866394D01*
X153649857Y-106714807D01*
X153649853Y-106714802D01*
X153495193Y-106560142D01*
X153318260Y-106431595D01*
X153318259Y-106431594D01*
X153318257Y-106431593D01*
X153255825Y-106399782D01*
X153123383Y-106332298D01*
X153123380Y-106332297D01*
X152915376Y-106264714D01*
X152699361Y-106230500D01*
X152699356Y-106230500D01*
X152480644Y-106230500D01*
X152480639Y-106230500D01*
X152264623Y-106264714D01*
X152056619Y-106332297D01*
X152056616Y-106332298D01*
X151861739Y-106431595D01*
X151684806Y-106560142D01*
X151530142Y-106714806D01*
X151420318Y-106865969D01*
X151364989Y-106908635D01*
X151295375Y-106914614D01*
X151233580Y-106882009D01*
X151219682Y-106865969D01*
X151109857Y-106714806D01*
X150955193Y-106560142D01*
X150778260Y-106431595D01*
X150778259Y-106431594D01*
X150778257Y-106431593D01*
X150715825Y-106399782D01*
X150583383Y-106332298D01*
X150583380Y-106332297D01*
X150375376Y-106264714D01*
X150159361Y-106230500D01*
X150159356Y-106230500D01*
X149940644Y-106230500D01*
X149940639Y-106230500D01*
X149724623Y-106264714D01*
X149516619Y-106332297D01*
X149516616Y-106332298D01*
X149321739Y-106431595D01*
X149144806Y-106560142D01*
X148990142Y-106714806D01*
X148880318Y-106865969D01*
X148824989Y-106908635D01*
X148755375Y-106914614D01*
X148693580Y-106882009D01*
X148679682Y-106865969D01*
X148569857Y-106714806D01*
X148415193Y-106560142D01*
X148238260Y-106431595D01*
X148238259Y-106431594D01*
X148238257Y-106431593D01*
X148175825Y-106399782D01*
X148043383Y-106332298D01*
X148043380Y-106332297D01*
X147835376Y-106264714D01*
X147619361Y-106230500D01*
X147619356Y-106230500D01*
X147400644Y-106230500D01*
X147400639Y-106230500D01*
X147184623Y-106264714D01*
X146976619Y-106332297D01*
X146976616Y-106332298D01*
X146781739Y-106431595D01*
X146604806Y-106560142D01*
X146450142Y-106714806D01*
X146340318Y-106865969D01*
X146284989Y-106908635D01*
X146215375Y-106914614D01*
X146153580Y-106882009D01*
X146139682Y-106865969D01*
X146029857Y-106714806D01*
X145875193Y-106560142D01*
X145698260Y-106431595D01*
X145698259Y-106431594D01*
X145698257Y-106431593D01*
X145635825Y-106399782D01*
X145503383Y-106332298D01*
X145503380Y-106332297D01*
X145295376Y-106264714D01*
X145079361Y-106230500D01*
X145079356Y-106230500D01*
X144860644Y-106230500D01*
X144860639Y-106230500D01*
X144644623Y-106264714D01*
X144436619Y-106332297D01*
X144436616Y-106332298D01*
X144241739Y-106431595D01*
X144064806Y-106560142D01*
X143910142Y-106714806D01*
X143800318Y-106865969D01*
X143744989Y-106908635D01*
X143675375Y-106914614D01*
X143613580Y-106882009D01*
X143599682Y-106865969D01*
X143489857Y-106714806D01*
X143335193Y-106560142D01*
X143158260Y-106431595D01*
X143158259Y-106431594D01*
X143158257Y-106431593D01*
X143095825Y-106399782D01*
X142963383Y-106332298D01*
X142963380Y-106332297D01*
X142755376Y-106264714D01*
X142539361Y-106230500D01*
X142539356Y-106230500D01*
X142320644Y-106230500D01*
X142320639Y-106230500D01*
X142104623Y-106264714D01*
X141896619Y-106332297D01*
X141896616Y-106332298D01*
X141701739Y-106431595D01*
X141524806Y-106560142D01*
X141370142Y-106714806D01*
X141260318Y-106865969D01*
X141204989Y-106908635D01*
X141135375Y-106914614D01*
X141073580Y-106882009D01*
X141059682Y-106865969D01*
X140949857Y-106714806D01*
X140795193Y-106560142D01*
X140618260Y-106431595D01*
X140618259Y-106431594D01*
X140618257Y-106431593D01*
X140555825Y-106399782D01*
X140423383Y-106332298D01*
X140423380Y-106332297D01*
X140215376Y-106264714D01*
X139999361Y-106230500D01*
X139999356Y-106230500D01*
X139780644Y-106230500D01*
X139780639Y-106230500D01*
X139564623Y-106264714D01*
X139356619Y-106332297D01*
X139356616Y-106332298D01*
X139161739Y-106431595D01*
X138984806Y-106560142D01*
X138830142Y-106714806D01*
X138720318Y-106865969D01*
X138664989Y-106908635D01*
X138595375Y-106914614D01*
X138533580Y-106882009D01*
X138519682Y-106865969D01*
X138409857Y-106714806D01*
X138255193Y-106560142D01*
X138078260Y-106431595D01*
X138078259Y-106431594D01*
X138078257Y-106431593D01*
X138015825Y-106399782D01*
X137883383Y-106332298D01*
X137883380Y-106332297D01*
X137675376Y-106264714D01*
X137459361Y-106230500D01*
X137459356Y-106230500D01*
X137240644Y-106230500D01*
X137240639Y-106230500D01*
X137024623Y-106264714D01*
X136816619Y-106332297D01*
X136816616Y-106332298D01*
X136621739Y-106431595D01*
X136444806Y-106560142D01*
X136290142Y-106714806D01*
X136180318Y-106865969D01*
X136124989Y-106908635D01*
X136055375Y-106914614D01*
X135993580Y-106882009D01*
X135979682Y-106865969D01*
X135869857Y-106714806D01*
X135715193Y-106560142D01*
X135538260Y-106431595D01*
X135538259Y-106431594D01*
X135538257Y-106431593D01*
X135475825Y-106399782D01*
X135343383Y-106332298D01*
X135343380Y-106332297D01*
X135135376Y-106264714D01*
X134919361Y-106230500D01*
X134919356Y-106230500D01*
X134700644Y-106230500D01*
X134700639Y-106230500D01*
X134484623Y-106264714D01*
X134276619Y-106332297D01*
X134276616Y-106332298D01*
X134081739Y-106431595D01*
X133904806Y-106560142D01*
X133750142Y-106714806D01*
X133640318Y-106865969D01*
X133584989Y-106908635D01*
X133515375Y-106914614D01*
X133453580Y-106882009D01*
X133439682Y-106865969D01*
X133329857Y-106714806D01*
X133175193Y-106560142D01*
X132998260Y-106431595D01*
X132998259Y-106431594D01*
X132998257Y-106431593D01*
X132935825Y-106399782D01*
X132803383Y-106332298D01*
X132803380Y-106332297D01*
X132595376Y-106264714D01*
X132379361Y-106230500D01*
X132379356Y-106230500D01*
X132160644Y-106230500D01*
X132160639Y-106230500D01*
X131944623Y-106264714D01*
X131736619Y-106332297D01*
X131736616Y-106332298D01*
X131541739Y-106431595D01*
X131364806Y-106560142D01*
X131210146Y-106714802D01*
X131210142Y-106714807D01*
X131100008Y-106866394D01*
X131044678Y-106909060D01*
X130975065Y-106915039D01*
X130913270Y-106882433D01*
X130899372Y-106866394D01*
X130789475Y-106715133D01*
X130789471Y-106715128D01*
X130634871Y-106560528D01*
X130634866Y-106560524D01*
X130457998Y-106432023D01*
X130263191Y-106332762D01*
X130263188Y-106332761D01*
X130055258Y-106265201D01*
X129980000Y-106253281D01*
X129980000Y-107175439D01*
X129926853Y-107144755D01*
X129797143Y-107110000D01*
X129662857Y-107110000D01*
X129533147Y-107144755D01*
X129480000Y-107175439D01*
X129480000Y-106253281D01*
X129404741Y-106265201D01*
X129196811Y-106332761D01*
X129196808Y-106332762D01*
X129002001Y-106432023D01*
X128825133Y-106560524D01*
X128825128Y-106560528D01*
X128670528Y-106715128D01*
X128670524Y-106715133D01*
X128560627Y-106866394D01*
X128505297Y-106909060D01*
X128435684Y-106915039D01*
X128373889Y-106882433D01*
X128359991Y-106866394D01*
X128249857Y-106714807D01*
X128249853Y-106714802D01*
X128095193Y-106560142D01*
X127918260Y-106431595D01*
X127918259Y-106431594D01*
X127918257Y-106431593D01*
X127855825Y-106399782D01*
X127723383Y-106332298D01*
X127723380Y-106332297D01*
X127515376Y-106264714D01*
X127299361Y-106230500D01*
X127299356Y-106230500D01*
X127080644Y-106230500D01*
X127080639Y-106230500D01*
X126864623Y-106264714D01*
X126656619Y-106332297D01*
X126656616Y-106332298D01*
X126461739Y-106431595D01*
X126284806Y-106560142D01*
X126130142Y-106714806D01*
X126020318Y-106865969D01*
X125964989Y-106908635D01*
X125895375Y-106914614D01*
X125833580Y-106882009D01*
X125819682Y-106865969D01*
X125709857Y-106714806D01*
X125555193Y-106560142D01*
X125378260Y-106431595D01*
X125378259Y-106431594D01*
X125378257Y-106431593D01*
X125315825Y-106399782D01*
X125183383Y-106332298D01*
X125183380Y-106332297D01*
X124975376Y-106264714D01*
X124759361Y-106230500D01*
X124759356Y-106230500D01*
X124540644Y-106230500D01*
X124540639Y-106230500D01*
X124324623Y-106264714D01*
X124116619Y-106332297D01*
X124116616Y-106332298D01*
X123921739Y-106431595D01*
X123744806Y-106560142D01*
X123590142Y-106714806D01*
X123480318Y-106865969D01*
X123424989Y-106908635D01*
X123355375Y-106914614D01*
X123293580Y-106882009D01*
X123279682Y-106865969D01*
X123169857Y-106714806D01*
X123015193Y-106560142D01*
X122838260Y-106431595D01*
X122838259Y-106431594D01*
X122838257Y-106431593D01*
X122775825Y-106399782D01*
X122643383Y-106332298D01*
X122643380Y-106332297D01*
X122435376Y-106264714D01*
X122219361Y-106230500D01*
X122219356Y-106230500D01*
X122000644Y-106230500D01*
X122000639Y-106230500D01*
X121784623Y-106264714D01*
X121576619Y-106332297D01*
X121576616Y-106332298D01*
X121381739Y-106431595D01*
X121204806Y-106560142D01*
X121050142Y-106714806D01*
X120940318Y-106865969D01*
X120884989Y-106908635D01*
X120815375Y-106914614D01*
X120753580Y-106882009D01*
X120739682Y-106865969D01*
X120629857Y-106714806D01*
X120475193Y-106560142D01*
X120298260Y-106431595D01*
X120298259Y-106431594D01*
X120298257Y-106431593D01*
X120235825Y-106399782D01*
X120103383Y-106332298D01*
X120103380Y-106332297D01*
X119895376Y-106264714D01*
X119679361Y-106230500D01*
X119679356Y-106230500D01*
X119460644Y-106230500D01*
X119460639Y-106230500D01*
X119244623Y-106264714D01*
X119036619Y-106332297D01*
X119036616Y-106332298D01*
X118841739Y-106431595D01*
X118664806Y-106560142D01*
X118510142Y-106714806D01*
X118400318Y-106865969D01*
X118344989Y-106908635D01*
X118275375Y-106914614D01*
X118213580Y-106882009D01*
X118199682Y-106865969D01*
X118089857Y-106714806D01*
X117935193Y-106560142D01*
X117758260Y-106431595D01*
X117758259Y-106431594D01*
X117758257Y-106431593D01*
X117695825Y-106399782D01*
X117563383Y-106332298D01*
X117563380Y-106332297D01*
X117355376Y-106264714D01*
X117139361Y-106230500D01*
X117139356Y-106230500D01*
X116920644Y-106230500D01*
X116920639Y-106230500D01*
X116704623Y-106264714D01*
X116496619Y-106332297D01*
X116496616Y-106332298D01*
X116301739Y-106431595D01*
X116124806Y-106560142D01*
X115970142Y-106714806D01*
X115860318Y-106865969D01*
X115804989Y-106908635D01*
X115735375Y-106914614D01*
X115673580Y-106882009D01*
X115659682Y-106865969D01*
X115549857Y-106714806D01*
X115395193Y-106560142D01*
X115218260Y-106431595D01*
X115218259Y-106431594D01*
X115218257Y-106431593D01*
X115155825Y-106399782D01*
X115023383Y-106332298D01*
X115023380Y-106332297D01*
X114815376Y-106264714D01*
X114599361Y-106230500D01*
X114599356Y-106230500D01*
X114380644Y-106230500D01*
X114380639Y-106230500D01*
X114164623Y-106264714D01*
X113956619Y-106332297D01*
X113956616Y-106332298D01*
X113761739Y-106431595D01*
X113584806Y-106560142D01*
X113430142Y-106714806D01*
X113320318Y-106865969D01*
X113264989Y-106908635D01*
X113195375Y-106914614D01*
X113133580Y-106882009D01*
X113119682Y-106865969D01*
X113009857Y-106714806D01*
X112855193Y-106560142D01*
X112678260Y-106431595D01*
X112678259Y-106431594D01*
X112678257Y-106431593D01*
X112615825Y-106399782D01*
X112483383Y-106332298D01*
X112483380Y-106332297D01*
X112275376Y-106264714D01*
X112059361Y-106230500D01*
X112059356Y-106230500D01*
X111840644Y-106230500D01*
X111840639Y-106230500D01*
X111624623Y-106264714D01*
X111416619Y-106332297D01*
X111416616Y-106332298D01*
X111221739Y-106431595D01*
X111044806Y-106560142D01*
X110890142Y-106714806D01*
X110780318Y-106865969D01*
X110724989Y-106908635D01*
X110655375Y-106914614D01*
X110593580Y-106882009D01*
X110579682Y-106865969D01*
X110469857Y-106714806D01*
X110315193Y-106560142D01*
X110138260Y-106431595D01*
X110138259Y-106431594D01*
X110138257Y-106431593D01*
X110075825Y-106399782D01*
X109943383Y-106332298D01*
X109943380Y-106332297D01*
X109735376Y-106264714D01*
X109519361Y-106230500D01*
X109519356Y-106230500D01*
X109300644Y-106230500D01*
X109300639Y-106230500D01*
X109084623Y-106264714D01*
X108876619Y-106332297D01*
X108876616Y-106332298D01*
X108681739Y-106431595D01*
X108504806Y-106560142D01*
X108350146Y-106714802D01*
X108350142Y-106714807D01*
X108240008Y-106866394D01*
X108184678Y-106909060D01*
X108115065Y-106915039D01*
X108053270Y-106882433D01*
X108039372Y-106866394D01*
X107929475Y-106715133D01*
X107929471Y-106715128D01*
X107774871Y-106560528D01*
X107774866Y-106560524D01*
X107597998Y-106432023D01*
X107403191Y-106332762D01*
X107403188Y-106332761D01*
X107195258Y-106265201D01*
X107120000Y-106253281D01*
X107120000Y-107175439D01*
X107066853Y-107144755D01*
X106937143Y-107110000D01*
X106802857Y-107110000D01*
X106673147Y-107144755D01*
X106620000Y-107175439D01*
X106620000Y-106253281D01*
X106544741Y-106265201D01*
X106336811Y-106332761D01*
X106336808Y-106332762D01*
X106142001Y-106432023D01*
X105965133Y-106560524D01*
X105965128Y-106560528D01*
X105810528Y-106715128D01*
X105810524Y-106715133D01*
X105700627Y-106866394D01*
X105645297Y-106909060D01*
X105575684Y-106915039D01*
X105513889Y-106882433D01*
X105499991Y-106866394D01*
X105389857Y-106714807D01*
X105389853Y-106714802D01*
X105235193Y-106560142D01*
X105058260Y-106431595D01*
X105058259Y-106431594D01*
X105058257Y-106431593D01*
X104995825Y-106399782D01*
X104863383Y-106332298D01*
X104863380Y-106332297D01*
X104655376Y-106264714D01*
X104439361Y-106230500D01*
X104439356Y-106230500D01*
X104220644Y-106230500D01*
X104220639Y-106230500D01*
X104004623Y-106264714D01*
X103796619Y-106332297D01*
X103796616Y-106332298D01*
X103601739Y-106431595D01*
X103424806Y-106560142D01*
X103270142Y-106714806D01*
X103160318Y-106865969D01*
X103104989Y-106908635D01*
X103035375Y-106914614D01*
X102973580Y-106882009D01*
X102959682Y-106865969D01*
X102849857Y-106714806D01*
X102695193Y-106560142D01*
X102518260Y-106431595D01*
X102518259Y-106431594D01*
X102518257Y-106431593D01*
X102455825Y-106399782D01*
X102323383Y-106332298D01*
X102323380Y-106332297D01*
X102115376Y-106264714D01*
X101899361Y-106230500D01*
X101899356Y-106230500D01*
X101680644Y-106230500D01*
X101680639Y-106230500D01*
X101464623Y-106264714D01*
X101256619Y-106332297D01*
X101256616Y-106332298D01*
X101061739Y-106431595D01*
X100884806Y-106560142D01*
X100730142Y-106714806D01*
X100620318Y-106865969D01*
X100564989Y-106908635D01*
X100495375Y-106914614D01*
X100433580Y-106882009D01*
X100419682Y-106865969D01*
X100309857Y-106714806D01*
X100155193Y-106560142D01*
X99978260Y-106431595D01*
X99978259Y-106431594D01*
X99978257Y-106431593D01*
X99915825Y-106399782D01*
X99783383Y-106332298D01*
X99783380Y-106332297D01*
X99575376Y-106264714D01*
X99359361Y-106230500D01*
X99359356Y-106230500D01*
X99140644Y-106230500D01*
X99140639Y-106230500D01*
X98924623Y-106264714D01*
X98716619Y-106332297D01*
X98716616Y-106332298D01*
X98521739Y-106431595D01*
X98344806Y-106560142D01*
X98190142Y-106714806D01*
X98080318Y-106865969D01*
X98024989Y-106908635D01*
X97955375Y-106914614D01*
X97893580Y-106882009D01*
X97879682Y-106865969D01*
X97769857Y-106714806D01*
X97615193Y-106560142D01*
X97438260Y-106431595D01*
X97438259Y-106431594D01*
X97438257Y-106431593D01*
X97375825Y-106399782D01*
X97243383Y-106332298D01*
X97243380Y-106332297D01*
X97035376Y-106264714D01*
X96819361Y-106230500D01*
X96819356Y-106230500D01*
X96600644Y-106230500D01*
X96600639Y-106230500D01*
X96384623Y-106264714D01*
X96176619Y-106332297D01*
X96176616Y-106332298D01*
X95981739Y-106431595D01*
X95804806Y-106560142D01*
X95650142Y-106714806D01*
X95521595Y-106891739D01*
X95422298Y-107086616D01*
X95422297Y-107086619D01*
X95354714Y-107294623D01*
X95320500Y-107510638D01*
X87090500Y-107510638D01*
X87090500Y-107485603D01*
X87055416Y-107219109D01*
X86985847Y-106959474D01*
X86884638Y-106715133D01*
X86882988Y-106711149D01*
X86882980Y-106711133D01*
X86827876Y-106615691D01*
X86748587Y-106478359D01*
X86584956Y-106265110D01*
X86584951Y-106265104D01*
X86394895Y-106075048D01*
X86394888Y-106075042D01*
X86181645Y-105911416D01*
X86181644Y-105911415D01*
X86181641Y-105911413D01*
X86088832Y-105857830D01*
X85948866Y-105777019D01*
X85948850Y-105777011D01*
X85700524Y-105674152D01*
X85570708Y-105639368D01*
X85440891Y-105604584D01*
X85440885Y-105604583D01*
X85440880Y-105604582D01*
X85174398Y-105569500D01*
X85174397Y-105569500D01*
X84905603Y-105569500D01*
X84905602Y-105569500D01*
X84639119Y-105604582D01*
X84639112Y-105604583D01*
X84639109Y-105604584D01*
X84584239Y-105619286D01*
X84379475Y-105674152D01*
X84131149Y-105777011D01*
X84131133Y-105777019D01*
X83898354Y-105911416D01*
X83685111Y-106075042D01*
X83685104Y-106075048D01*
X83495048Y-106265104D01*
X83495042Y-106265111D01*
X83331418Y-106478351D01*
X83331414Y-106478356D01*
X83331413Y-106478359D01*
X83267683Y-106588742D01*
X83231887Y-106650743D01*
X83181320Y-106698958D01*
X83112712Y-106712180D01*
X83047848Y-106686212D01*
X83007320Y-106629298D01*
X83000500Y-106588742D01*
X83000500Y-97787135D01*
X98599500Y-97787135D01*
X98599500Y-99682870D01*
X98599501Y-99682876D01*
X98605908Y-99742483D01*
X98656202Y-99877328D01*
X98656206Y-99877335D01*
X98742452Y-99992544D01*
X98742455Y-99992547D01*
X98857664Y-100078793D01*
X98857671Y-100078797D01*
X98902618Y-100095561D01*
X98992517Y-100129091D01*
X99052127Y-100135500D01*
X99162693Y-100135499D01*
X99229730Y-100155183D01*
X99250372Y-100171818D01*
X99911415Y-100832861D01*
X99826306Y-100855667D01*
X99723694Y-100914910D01*
X99639910Y-100998694D01*
X99580667Y-101101306D01*
X99557861Y-101186414D01*
X98848932Y-100477485D01*
X98848931Y-100477485D01*
X98802616Y-100541233D01*
X98702567Y-100737589D01*
X98634473Y-100947164D01*
X98600000Y-101164818D01*
X98600000Y-101385181D01*
X98634473Y-101602835D01*
X98702567Y-101812410D01*
X98802611Y-102008756D01*
X98848932Y-102072513D01*
X99557861Y-101363584D01*
X99580667Y-101448694D01*
X99639910Y-101551306D01*
X99723694Y-101635090D01*
X99826306Y-101694333D01*
X99911414Y-101717137D01*
X99202485Y-102426065D01*
X99202485Y-102426066D01*
X99266243Y-102472388D01*
X99462589Y-102572432D01*
X99672164Y-102640526D01*
X99889819Y-102675000D01*
X100110181Y-102675000D01*
X100327835Y-102640526D01*
X100537410Y-102572432D01*
X100733760Y-102472386D01*
X100797513Y-102426066D01*
X100797514Y-102426066D01*
X100088585Y-101717138D01*
X100173694Y-101694333D01*
X100276306Y-101635090D01*
X100360090Y-101551306D01*
X100419333Y-101448694D01*
X100442138Y-101363585D01*
X101151066Y-102072514D01*
X101151066Y-102072513D01*
X101197386Y-102008760D01*
X101297432Y-101812410D01*
X101365526Y-101602835D01*
X101400000Y-101385181D01*
X101400000Y-101164818D01*
X101365526Y-100947164D01*
X101297432Y-100737589D01*
X101197388Y-100541243D01*
X101151066Y-100477485D01*
X101151065Y-100477485D01*
X100442137Y-101186413D01*
X100419333Y-101101306D01*
X100360090Y-100998694D01*
X100276306Y-100914910D01*
X100173694Y-100855667D01*
X100088584Y-100832861D01*
X100749628Y-100171818D01*
X100810951Y-100138333D01*
X100837308Y-100135499D01*
X100947872Y-100135499D01*
X101007483Y-100129091D01*
X101142331Y-100078796D01*
X101257546Y-99992546D01*
X101343796Y-99877331D01*
X101394091Y-99742483D01*
X101400500Y-99682873D01*
X101400499Y-97787135D01*
X104599500Y-97787135D01*
X104599500Y-99682870D01*
X104599501Y-99682876D01*
X104605908Y-99742483D01*
X104656202Y-99877328D01*
X104656206Y-99877335D01*
X104742452Y-99992544D01*
X104742455Y-99992547D01*
X104857664Y-100078793D01*
X104857671Y-100078797D01*
X104902618Y-100095561D01*
X104992517Y-100129091D01*
X105052127Y-100135500D01*
X105162693Y-100135499D01*
X105229730Y-100155183D01*
X105250372Y-100171818D01*
X105911415Y-100832861D01*
X105826306Y-100855667D01*
X105723694Y-100914910D01*
X105639910Y-100998694D01*
X105580667Y-101101306D01*
X105557861Y-101186414D01*
X104848932Y-100477485D01*
X104848931Y-100477485D01*
X104802616Y-100541233D01*
X104702567Y-100737589D01*
X104634473Y-100947164D01*
X104600000Y-101164818D01*
X104600000Y-101385181D01*
X104634473Y-101602835D01*
X104702567Y-101812410D01*
X104802611Y-102008756D01*
X104848932Y-102072513D01*
X105557861Y-101363584D01*
X105580667Y-101448694D01*
X105639910Y-101551306D01*
X105723694Y-101635090D01*
X105826306Y-101694333D01*
X105911414Y-101717137D01*
X105202485Y-102426065D01*
X105202485Y-102426066D01*
X105266243Y-102472388D01*
X105462589Y-102572432D01*
X105672164Y-102640526D01*
X105889819Y-102675000D01*
X106110181Y-102675000D01*
X106327835Y-102640526D01*
X106537410Y-102572432D01*
X106733760Y-102472386D01*
X106797513Y-102426066D01*
X106797514Y-102426066D01*
X106088585Y-101717138D01*
X106173694Y-101694333D01*
X106276306Y-101635090D01*
X106360090Y-101551306D01*
X106419333Y-101448694D01*
X106442137Y-101363585D01*
X107151066Y-102072514D01*
X107151066Y-102072513D01*
X107197386Y-102008760D01*
X107297432Y-101812410D01*
X107365526Y-101602835D01*
X107400000Y-101385181D01*
X107400000Y-101164818D01*
X107365526Y-100947164D01*
X107297432Y-100737589D01*
X107197388Y-100541243D01*
X107151066Y-100477485D01*
X107151065Y-100477485D01*
X106442137Y-101186413D01*
X106419333Y-101101306D01*
X106360090Y-100998694D01*
X106276306Y-100914910D01*
X106173694Y-100855667D01*
X106088584Y-100832861D01*
X106749628Y-100171818D01*
X106810951Y-100138333D01*
X106837308Y-100135499D01*
X106947872Y-100135499D01*
X107007483Y-100129091D01*
X107142331Y-100078796D01*
X107257546Y-99992546D01*
X107343796Y-99877331D01*
X107394091Y-99742483D01*
X107400500Y-99682873D01*
X107400499Y-97787135D01*
X110599500Y-97787135D01*
X110599500Y-99682870D01*
X110599501Y-99682876D01*
X110605908Y-99742483D01*
X110656202Y-99877328D01*
X110656206Y-99877335D01*
X110742452Y-99992544D01*
X110742455Y-99992547D01*
X110857664Y-100078793D01*
X110857671Y-100078797D01*
X110902618Y-100095561D01*
X110992517Y-100129091D01*
X111052127Y-100135500D01*
X111162693Y-100135499D01*
X111229730Y-100155183D01*
X111250372Y-100171818D01*
X111911415Y-100832861D01*
X111826306Y-100855667D01*
X111723694Y-100914910D01*
X111639910Y-100998694D01*
X111580667Y-101101306D01*
X111557861Y-101186414D01*
X110848932Y-100477485D01*
X110848931Y-100477485D01*
X110802616Y-100541233D01*
X110702567Y-100737589D01*
X110634473Y-100947164D01*
X110600000Y-101164818D01*
X110600000Y-101385181D01*
X110634473Y-101602835D01*
X110702567Y-101812410D01*
X110802611Y-102008756D01*
X110848932Y-102072513D01*
X111557861Y-101363584D01*
X111580667Y-101448694D01*
X111639910Y-101551306D01*
X111723694Y-101635090D01*
X111826306Y-101694333D01*
X111911414Y-101717137D01*
X111202485Y-102426065D01*
X111202485Y-102426066D01*
X111266243Y-102472388D01*
X111462589Y-102572432D01*
X111672164Y-102640526D01*
X111889819Y-102675000D01*
X112110181Y-102675000D01*
X112327835Y-102640526D01*
X112537410Y-102572432D01*
X112733760Y-102472386D01*
X112797513Y-102426066D01*
X112797514Y-102426066D01*
X112088585Y-101717138D01*
X112173694Y-101694333D01*
X112276306Y-101635090D01*
X112360090Y-101551306D01*
X112419333Y-101448694D01*
X112442138Y-101363585D01*
X113151066Y-102072514D01*
X113151066Y-102072513D01*
X113197386Y-102008760D01*
X113297432Y-101812410D01*
X113365526Y-101602835D01*
X113400000Y-101385181D01*
X113400000Y-101164818D01*
X113365526Y-100947164D01*
X113297432Y-100737589D01*
X113197388Y-100541243D01*
X113151066Y-100477485D01*
X113151065Y-100477485D01*
X112442137Y-101186413D01*
X112419333Y-101101306D01*
X112360090Y-100998694D01*
X112276306Y-100914910D01*
X112173694Y-100855667D01*
X112088584Y-100832861D01*
X112749628Y-100171818D01*
X112810951Y-100138333D01*
X112837308Y-100135499D01*
X112947872Y-100135499D01*
X113007483Y-100129091D01*
X113142331Y-100078796D01*
X113257546Y-99992546D01*
X113343796Y-99877331D01*
X113394091Y-99742483D01*
X113400500Y-99682873D01*
X113400499Y-97787135D01*
X116599500Y-97787135D01*
X116599500Y-99682870D01*
X116599501Y-99682876D01*
X116605908Y-99742483D01*
X116656202Y-99877328D01*
X116656206Y-99877335D01*
X116742452Y-99992544D01*
X116742455Y-99992547D01*
X116857664Y-100078793D01*
X116857671Y-100078797D01*
X116902618Y-100095561D01*
X116992517Y-100129091D01*
X117052127Y-100135500D01*
X117162693Y-100135499D01*
X117229730Y-100155183D01*
X117250372Y-100171818D01*
X117911415Y-100832861D01*
X117826306Y-100855667D01*
X117723694Y-100914910D01*
X117639910Y-100998694D01*
X117580667Y-101101306D01*
X117557861Y-101186414D01*
X116848932Y-100477485D01*
X116848931Y-100477485D01*
X116802616Y-100541233D01*
X116702567Y-100737589D01*
X116634473Y-100947164D01*
X116600000Y-101164818D01*
X116600000Y-101385181D01*
X116634473Y-101602835D01*
X116702567Y-101812410D01*
X116802611Y-102008756D01*
X116848932Y-102072513D01*
X117557861Y-101363584D01*
X117580667Y-101448694D01*
X117639910Y-101551306D01*
X117723694Y-101635090D01*
X117826306Y-101694333D01*
X117911414Y-101717137D01*
X117202485Y-102426065D01*
X117202485Y-102426066D01*
X117266243Y-102472388D01*
X117462589Y-102572432D01*
X117672164Y-102640526D01*
X117889819Y-102675000D01*
X118110181Y-102675000D01*
X118327835Y-102640526D01*
X118537410Y-102572432D01*
X118733760Y-102472386D01*
X118797513Y-102426066D01*
X118797514Y-102426066D01*
X118088585Y-101717138D01*
X118173694Y-101694333D01*
X118276306Y-101635090D01*
X118360090Y-101551306D01*
X118419333Y-101448694D01*
X118442137Y-101363585D01*
X119151066Y-102072514D01*
X119151066Y-102072513D01*
X119197386Y-102008760D01*
X119297432Y-101812410D01*
X119365526Y-101602835D01*
X119400000Y-101385181D01*
X119400000Y-101164818D01*
X119365526Y-100947164D01*
X119297432Y-100737589D01*
X119197388Y-100541243D01*
X119151066Y-100477485D01*
X119151065Y-100477485D01*
X118442137Y-101186413D01*
X118419333Y-101101306D01*
X118360090Y-100998694D01*
X118276306Y-100914910D01*
X118173694Y-100855667D01*
X118088584Y-100832861D01*
X118749628Y-100171818D01*
X118810951Y-100138333D01*
X118837308Y-100135499D01*
X118947872Y-100135499D01*
X119007483Y-100129091D01*
X119142331Y-100078796D01*
X119257546Y-99992546D01*
X119343796Y-99877331D01*
X119394091Y-99742483D01*
X119400500Y-99682873D01*
X119400499Y-97787135D01*
X122599500Y-97787135D01*
X122599500Y-99682870D01*
X122599501Y-99682876D01*
X122605908Y-99742483D01*
X122656202Y-99877328D01*
X122656206Y-99877335D01*
X122742452Y-99992544D01*
X122742455Y-99992547D01*
X122857664Y-100078793D01*
X122857671Y-100078797D01*
X122902618Y-100095561D01*
X122992517Y-100129091D01*
X123052127Y-100135500D01*
X123162693Y-100135499D01*
X123229730Y-100155183D01*
X123250372Y-100171818D01*
X123911415Y-100832861D01*
X123826306Y-100855667D01*
X123723694Y-100914910D01*
X123639910Y-100998694D01*
X123580667Y-101101306D01*
X123557861Y-101186414D01*
X122848932Y-100477485D01*
X122848931Y-100477485D01*
X122802616Y-100541233D01*
X122702567Y-100737589D01*
X122634473Y-100947164D01*
X122600000Y-101164818D01*
X122600000Y-101385181D01*
X122634473Y-101602835D01*
X122702567Y-101812410D01*
X122802611Y-102008756D01*
X122848932Y-102072513D01*
X123557861Y-101363584D01*
X123580667Y-101448694D01*
X123639910Y-101551306D01*
X123723694Y-101635090D01*
X123826306Y-101694333D01*
X123911414Y-101717137D01*
X123202485Y-102426065D01*
X123202485Y-102426066D01*
X123266243Y-102472388D01*
X123462589Y-102572432D01*
X123672164Y-102640526D01*
X123889819Y-102675000D01*
X124110181Y-102675000D01*
X124327835Y-102640526D01*
X124537410Y-102572432D01*
X124733760Y-102472386D01*
X124797513Y-102426066D01*
X124797514Y-102426066D01*
X124088585Y-101717138D01*
X124173694Y-101694333D01*
X124276306Y-101635090D01*
X124360090Y-101551306D01*
X124419333Y-101448694D01*
X124442137Y-101363585D01*
X125151066Y-102072514D01*
X125151066Y-102072513D01*
X125197386Y-102008760D01*
X125297432Y-101812410D01*
X125365526Y-101602835D01*
X125400000Y-101385181D01*
X125400000Y-101321153D01*
X133649500Y-101321153D01*
X133649500Y-101478846D01*
X133680261Y-101633489D01*
X133680264Y-101633501D01*
X133740602Y-101779172D01*
X133740609Y-101779185D01*
X133828210Y-101910288D01*
X133828213Y-101910292D01*
X133939707Y-102021786D01*
X133939711Y-102021789D01*
X134070814Y-102109390D01*
X134070827Y-102109397D01*
X134216498Y-102169735D01*
X134216503Y-102169737D01*
X134371153Y-102200499D01*
X134371156Y-102200500D01*
X134371158Y-102200500D01*
X134528844Y-102200500D01*
X134528845Y-102200499D01*
X134683497Y-102169737D01*
X134829179Y-102109394D01*
X134960289Y-102021789D01*
X135071789Y-101910289D01*
X135159394Y-101779179D01*
X135219737Y-101633497D01*
X135250500Y-101478842D01*
X135250500Y-101378269D01*
X135270185Y-101311230D01*
X135322989Y-101265475D01*
X135392147Y-101255531D01*
X135455703Y-101284556D01*
X135474292Y-101305626D01*
X135474347Y-101305581D01*
X135475609Y-101307119D01*
X135477603Y-101309379D01*
X135478212Y-101310291D01*
X135589707Y-101421786D01*
X135589711Y-101421789D01*
X135720814Y-101509390D01*
X135720827Y-101509397D01*
X135822006Y-101551306D01*
X135866503Y-101569737D01*
X136021153Y-101600499D01*
X136021156Y-101600500D01*
X136021158Y-101600500D01*
X136178844Y-101600500D01*
X136178845Y-101600499D01*
X136333497Y-101569737D01*
X136446166Y-101523067D01*
X136479172Y-101509397D01*
X136479172Y-101509396D01*
X136479179Y-101509394D01*
X136610289Y-101421789D01*
X136710925Y-101321153D01*
X139149500Y-101321153D01*
X139149500Y-101478846D01*
X139180261Y-101633489D01*
X139180264Y-101633501D01*
X139240602Y-101779172D01*
X139240609Y-101779185D01*
X139328210Y-101910288D01*
X139328213Y-101910292D01*
X139439707Y-102021786D01*
X139439711Y-102021789D01*
X139570814Y-102109390D01*
X139570827Y-102109397D01*
X139716498Y-102169735D01*
X139716503Y-102169737D01*
X139871153Y-102200499D01*
X139871156Y-102200500D01*
X139871158Y-102200500D01*
X140028844Y-102200500D01*
X140028845Y-102200499D01*
X140183497Y-102169737D01*
X140329179Y-102109394D01*
X140460289Y-102021789D01*
X140571789Y-101910289D01*
X140659394Y-101779179D01*
X140719737Y-101633497D01*
X140750500Y-101478842D01*
X140750500Y-101400513D01*
X140770185Y-101333474D01*
X140822989Y-101287719D01*
X140892147Y-101277775D01*
X140955703Y-101306800D01*
X140970359Y-101321855D01*
X140971739Y-101323537D01*
X141083230Y-101435028D01*
X141083234Y-101435031D01*
X141214337Y-101522632D01*
X141214350Y-101522639D01*
X141328059Y-101569738D01*
X141360026Y-101582979D01*
X141514676Y-101613741D01*
X141514679Y-101613742D01*
X141514681Y-101613742D01*
X141672367Y-101613742D01*
X141672368Y-101613741D01*
X141827020Y-101582979D01*
X141972702Y-101522636D01*
X142103812Y-101435031D01*
X142215312Y-101323531D01*
X142216901Y-101321153D01*
X144649500Y-101321153D01*
X144649500Y-101478846D01*
X144680261Y-101633489D01*
X144680264Y-101633501D01*
X144740602Y-101779172D01*
X144740609Y-101779185D01*
X144828210Y-101910288D01*
X144828213Y-101910292D01*
X144939707Y-102021786D01*
X144939711Y-102021789D01*
X145070814Y-102109390D01*
X145070827Y-102109397D01*
X145216498Y-102169735D01*
X145216503Y-102169737D01*
X145371153Y-102200499D01*
X145371156Y-102200500D01*
X145371158Y-102200500D01*
X145528844Y-102200500D01*
X145528845Y-102200499D01*
X145683497Y-102169737D01*
X145829179Y-102109394D01*
X145960289Y-102021789D01*
X146071789Y-101910289D01*
X146159394Y-101779179D01*
X146219737Y-101633497D01*
X146250500Y-101478842D01*
X146250500Y-101321158D01*
X146250500Y-101321155D01*
X146250499Y-101321153D01*
X146247410Y-101305626D01*
X146219737Y-101166503D01*
X146164645Y-101033497D01*
X146159397Y-101020827D01*
X146159395Y-101020823D01*
X146159394Y-101020821D01*
X146098652Y-100929915D01*
X146077775Y-100863239D01*
X146096259Y-100795859D01*
X146114070Y-100773348D01*
X146462328Y-100425089D01*
X146523649Y-100391606D01*
X146525648Y-100391189D01*
X146633497Y-100369737D01*
X146779179Y-100309394D01*
X146910289Y-100221789D01*
X147021789Y-100110289D01*
X147109394Y-99979179D01*
X147169737Y-99833497D01*
X147200500Y-99678842D01*
X147200500Y-99521158D01*
X147200500Y-99521155D01*
X147200499Y-99521153D01*
X147169738Y-99366510D01*
X147169738Y-99366508D01*
X147169737Y-99366503D01*
X147169735Y-99366498D01*
X147109397Y-99220827D01*
X147109390Y-99220814D01*
X147021789Y-99089711D01*
X147021786Y-99089707D01*
X146910292Y-98978213D01*
X146910288Y-98978210D01*
X146779185Y-98890609D01*
X146779172Y-98890602D01*
X146633501Y-98830264D01*
X146633489Y-98830261D01*
X146478845Y-98799500D01*
X146478842Y-98799500D01*
X146321158Y-98799500D01*
X146321155Y-98799500D01*
X146166510Y-98830261D01*
X146166498Y-98830264D01*
X146020827Y-98890602D01*
X146020814Y-98890609D01*
X145889711Y-98978210D01*
X145889707Y-98978213D01*
X145778213Y-99089707D01*
X145778210Y-99089711D01*
X145690609Y-99220814D01*
X145690602Y-99220827D01*
X145630264Y-99366498D01*
X145630261Y-99366508D01*
X145608843Y-99474183D01*
X145576458Y-99536094D01*
X145574907Y-99537672D01*
X145133409Y-99979172D01*
X145049992Y-100062589D01*
X145006289Y-100106292D01*
X144962586Y-100149994D01*
X144962585Y-100149996D01*
X144893233Y-100253789D01*
X144891586Y-100258393D01*
X144846614Y-100366964D01*
X144846612Y-100366972D01*
X144826072Y-100470229D01*
X144826073Y-100470230D01*
X144822500Y-100488194D01*
X144822500Y-100860642D01*
X144802815Y-100927681D01*
X144801602Y-100929533D01*
X144740609Y-101020814D01*
X144740602Y-101020827D01*
X144680264Y-101166498D01*
X144680261Y-101166510D01*
X144649500Y-101321153D01*
X142216901Y-101321153D01*
X142302917Y-101192421D01*
X142308400Y-101179185D01*
X142313650Y-101166510D01*
X142363260Y-101046739D01*
X142386359Y-100930609D01*
X142418742Y-100868703D01*
X142420182Y-100867235D01*
X142714411Y-100573008D01*
X142757016Y-100509245D01*
X142771082Y-100488194D01*
X142783078Y-100470241D01*
X142783079Y-100470238D01*
X142783083Y-100470233D01*
X142812178Y-100399992D01*
X142830386Y-100356034D01*
X142854500Y-100234803D01*
X142854500Y-100111197D01*
X142854500Y-99039356D01*
X142874185Y-98972317D01*
X142875398Y-98970465D01*
X142936394Y-98879179D01*
X142996737Y-98733497D01*
X143027500Y-98578842D01*
X143027500Y-98421158D01*
X143027500Y-98421155D01*
X143027499Y-98421153D01*
X143005447Y-98310292D01*
X142996737Y-98266503D01*
X142960569Y-98179185D01*
X142936397Y-98120827D01*
X142936390Y-98120814D01*
X142848789Y-97989711D01*
X142848786Y-97989707D01*
X142737292Y-97878213D01*
X142737288Y-97878210D01*
X142606185Y-97790609D01*
X142606172Y-97790602D01*
X142458321Y-97729361D01*
X142403917Y-97685520D01*
X142384156Y-97638991D01*
X142369738Y-97566510D01*
X142369737Y-97566503D01*
X142369735Y-97566498D01*
X142309397Y-97420827D01*
X142309390Y-97420814D01*
X142248398Y-97329533D01*
X142227520Y-97262855D01*
X142227500Y-97260642D01*
X142227500Y-96639356D01*
X142247185Y-96572317D01*
X142248398Y-96570465D01*
X142309394Y-96479179D01*
X142369737Y-96333497D01*
X142400500Y-96178842D01*
X142400500Y-96021158D01*
X142400500Y-96021155D01*
X142400499Y-96021153D01*
X145099500Y-96021153D01*
X145099500Y-96178846D01*
X145130261Y-96333489D01*
X145130264Y-96333501D01*
X145190603Y-96479174D01*
X145190604Y-96479175D01*
X145190606Y-96479179D01*
X145251602Y-96570465D01*
X145272480Y-96637142D01*
X145272500Y-96639356D01*
X145272500Y-97260642D01*
X145252815Y-97327681D01*
X145251602Y-97329533D01*
X145190609Y-97420814D01*
X145190602Y-97420827D01*
X145130264Y-97566498D01*
X145130261Y-97566510D01*
X145099500Y-97721153D01*
X145099500Y-97878846D01*
X145130261Y-98033489D01*
X145130264Y-98033501D01*
X145190602Y-98179172D01*
X145190609Y-98179185D01*
X145278210Y-98310288D01*
X145278213Y-98310292D01*
X145389707Y-98421786D01*
X145389711Y-98421789D01*
X145520814Y-98509390D01*
X145520827Y-98509397D01*
X145666498Y-98569735D01*
X145666503Y-98569737D01*
X145798731Y-98596039D01*
X145821153Y-98600499D01*
X145821156Y-98600500D01*
X145821158Y-98600500D01*
X145978844Y-98600500D01*
X145978845Y-98600499D01*
X146133497Y-98569737D01*
X146279179Y-98509394D01*
X146410289Y-98421789D01*
X146521789Y-98310289D01*
X146609394Y-98179179D01*
X146669737Y-98033497D01*
X146700500Y-97878842D01*
X146700500Y-97721158D01*
X146700500Y-97721155D01*
X146700499Y-97721153D01*
X146674942Y-97592671D01*
X146669737Y-97566503D01*
X146669735Y-97566498D01*
X146609397Y-97420827D01*
X146609390Y-97420814D01*
X146548398Y-97329533D01*
X146527520Y-97262855D01*
X146527500Y-97260642D01*
X146527500Y-96639356D01*
X146547185Y-96572317D01*
X146548398Y-96570465D01*
X146609394Y-96479179D01*
X146669737Y-96333497D01*
X146700500Y-96178842D01*
X146700500Y-96021158D01*
X146700500Y-96021155D01*
X146700499Y-96021153D01*
X146669738Y-95866510D01*
X146669737Y-95866503D01*
X146669735Y-95866498D01*
X146609397Y-95720827D01*
X146609390Y-95720814D01*
X146521789Y-95589711D01*
X146521786Y-95589707D01*
X146410292Y-95478213D01*
X146410288Y-95478210D01*
X146279185Y-95390609D01*
X146279172Y-95390602D01*
X146133501Y-95330264D01*
X146133489Y-95330261D01*
X145978845Y-95299500D01*
X145978842Y-95299500D01*
X145821158Y-95299500D01*
X145821155Y-95299500D01*
X145666510Y-95330261D01*
X145666498Y-95330264D01*
X145520827Y-95390602D01*
X145520814Y-95390609D01*
X145389711Y-95478210D01*
X145389707Y-95478213D01*
X145278213Y-95589707D01*
X145278210Y-95589711D01*
X145190609Y-95720814D01*
X145190602Y-95720827D01*
X145130264Y-95866498D01*
X145130261Y-95866510D01*
X145099500Y-96021153D01*
X142400499Y-96021153D01*
X142369738Y-95866510D01*
X142369737Y-95866503D01*
X142369735Y-95866498D01*
X142309397Y-95720827D01*
X142309390Y-95720814D01*
X142221789Y-95589711D01*
X142221786Y-95589707D01*
X142110292Y-95478213D01*
X142110288Y-95478210D01*
X141979185Y-95390609D01*
X141979172Y-95390602D01*
X141833501Y-95330264D01*
X141833489Y-95330261D01*
X141678845Y-95299500D01*
X141678842Y-95299500D01*
X141521158Y-95299500D01*
X141521155Y-95299500D01*
X141366510Y-95330261D01*
X141366498Y-95330264D01*
X141220827Y-95390602D01*
X141220814Y-95390609D01*
X141089711Y-95478210D01*
X141089707Y-95478213D01*
X141087681Y-95480240D01*
X141086357Y-95480962D01*
X141085001Y-95482076D01*
X141084789Y-95481818D01*
X141026358Y-95513725D01*
X140956666Y-95508741D01*
X140915060Y-95482001D01*
X140914999Y-95482076D01*
X140914360Y-95481552D01*
X140912319Y-95480240D01*
X140910292Y-95478213D01*
X140910288Y-95478210D01*
X140779185Y-95390609D01*
X140779172Y-95390602D01*
X140633501Y-95330264D01*
X140633489Y-95330261D01*
X140478845Y-95299500D01*
X140478842Y-95299500D01*
X140321158Y-95299500D01*
X140321155Y-95299500D01*
X140166510Y-95330261D01*
X140166498Y-95330264D01*
X140020827Y-95390602D01*
X140020814Y-95390609D01*
X139889711Y-95478210D01*
X139889707Y-95478213D01*
X139778213Y-95589707D01*
X139778210Y-95589711D01*
X139690609Y-95720814D01*
X139690602Y-95720827D01*
X139630264Y-95866498D01*
X139630261Y-95866510D01*
X139599500Y-96021153D01*
X139599500Y-96178846D01*
X139630261Y-96333489D01*
X139630264Y-96333501D01*
X139690603Y-96479174D01*
X139690604Y-96479175D01*
X139690606Y-96479179D01*
X139751602Y-96570465D01*
X139772480Y-96637142D01*
X139772500Y-96639356D01*
X139772500Y-97260642D01*
X139752815Y-97327681D01*
X139751602Y-97329533D01*
X139690609Y-97420814D01*
X139690602Y-97420827D01*
X139630264Y-97566498D01*
X139630261Y-97566510D01*
X139599500Y-97721153D01*
X139599500Y-97878846D01*
X139630261Y-98033489D01*
X139630264Y-98033501D01*
X139690602Y-98179172D01*
X139690609Y-98179185D01*
X139778210Y-98310288D01*
X139778213Y-98310292D01*
X139889707Y-98421786D01*
X139889711Y-98421789D01*
X140020814Y-98509390D01*
X140020827Y-98509397D01*
X140166498Y-98569735D01*
X140166503Y-98569737D01*
X140298731Y-98596039D01*
X140321153Y-98600499D01*
X140321156Y-98600500D01*
X140321158Y-98600500D01*
X140478844Y-98600500D01*
X140478845Y-98600499D01*
X140633497Y-98569737D01*
X140779179Y-98509394D01*
X140910289Y-98421789D01*
X140912312Y-98419766D01*
X140913634Y-98419043D01*
X140914999Y-98417924D01*
X140915211Y-98418182D01*
X140973632Y-98386276D01*
X141043324Y-98391255D01*
X141084939Y-98417999D01*
X141085001Y-98417924D01*
X141085648Y-98418454D01*
X141087688Y-98419766D01*
X141089711Y-98421789D01*
X141220814Y-98509390D01*
X141220821Y-98509394D01*
X141366503Y-98569737D01*
X141366509Y-98569738D01*
X141368677Y-98570636D01*
X141373309Y-98574369D01*
X141379139Y-98575553D01*
X141400201Y-98596039D01*
X141423081Y-98614477D01*
X141426058Y-98621190D01*
X141429224Y-98624269D01*
X141438383Y-98648977D01*
X141442015Y-98657164D01*
X141442462Y-98659090D01*
X141457263Y-98733497D01*
X141462876Y-98747049D01*
X141465190Y-98757017D01*
X141463745Y-98782090D01*
X141466431Y-98807066D01*
X141461770Y-98816376D01*
X141461172Y-98826771D01*
X141446399Y-98847085D01*
X141435157Y-98869546D01*
X141426203Y-98874858D01*
X141420080Y-98883279D01*
X141396668Y-98892382D01*
X141375068Y-98905199D01*
X141364664Y-98904827D01*
X141354960Y-98908601D01*
X141330344Y-98903602D01*
X141305243Y-98902706D01*
X141290559Y-98895522D01*
X141286488Y-98894696D01*
X141284787Y-98893042D01*
X141284554Y-98893479D01*
X141279172Y-98890602D01*
X141133501Y-98830264D01*
X141133489Y-98830261D01*
X140978845Y-98799500D01*
X140978842Y-98799500D01*
X140821158Y-98799500D01*
X140821155Y-98799500D01*
X140666510Y-98830261D01*
X140666498Y-98830264D01*
X140520827Y-98890602D01*
X140520814Y-98890609D01*
X140389711Y-98978210D01*
X140389707Y-98978213D01*
X140278213Y-99089707D01*
X140278210Y-99089711D01*
X140190609Y-99220814D01*
X140190602Y-99220827D01*
X140130264Y-99366498D01*
X140130261Y-99366508D01*
X140108843Y-99474183D01*
X140076458Y-99536094D01*
X140074907Y-99537672D01*
X139633409Y-99979172D01*
X139549992Y-100062589D01*
X139506289Y-100106292D01*
X139462586Y-100149994D01*
X139462585Y-100149996D01*
X139393233Y-100253789D01*
X139391586Y-100258393D01*
X139346614Y-100366964D01*
X139346612Y-100366972D01*
X139326072Y-100470229D01*
X139326073Y-100470230D01*
X139322500Y-100488194D01*
X139322500Y-100860642D01*
X139302815Y-100927681D01*
X139301602Y-100929533D01*
X139240609Y-101020814D01*
X139240602Y-101020827D01*
X139180264Y-101166498D01*
X139180261Y-101166510D01*
X139149500Y-101321153D01*
X136710925Y-101321153D01*
X136721789Y-101310289D01*
X136809394Y-101179179D01*
X136815343Y-101164818D01*
X136841650Y-101101306D01*
X136869737Y-101033497D01*
X136891156Y-100925812D01*
X136923539Y-100863906D01*
X136924979Y-100862438D01*
X137214411Y-100573008D01*
X137257016Y-100509245D01*
X137271082Y-100488194D01*
X137283078Y-100470241D01*
X137283079Y-100470238D01*
X137283083Y-100470233D01*
X137299281Y-100431127D01*
X137309495Y-100406470D01*
X137324710Y-100369737D01*
X137330386Y-100356035D01*
X137354500Y-100234803D01*
X137354500Y-100111197D01*
X137354500Y-99039356D01*
X137374185Y-98972317D01*
X137375398Y-98970465D01*
X137436394Y-98879179D01*
X137496737Y-98733497D01*
X137527500Y-98578842D01*
X137527500Y-98421158D01*
X137527500Y-98421155D01*
X137527499Y-98421153D01*
X137505447Y-98310292D01*
X137496737Y-98266503D01*
X137460569Y-98179185D01*
X137436397Y-98120827D01*
X137436390Y-98120814D01*
X137348789Y-97989711D01*
X137348786Y-97989707D01*
X137237292Y-97878213D01*
X137237288Y-97878210D01*
X137106185Y-97790609D01*
X137106172Y-97790602D01*
X136958321Y-97729361D01*
X136903917Y-97685520D01*
X136884156Y-97638991D01*
X136869738Y-97566510D01*
X136869737Y-97566503D01*
X136869735Y-97566498D01*
X136809397Y-97420827D01*
X136809390Y-97420814D01*
X136748398Y-97329533D01*
X136727520Y-97262855D01*
X136727500Y-97260642D01*
X136727500Y-96639356D01*
X136747185Y-96572317D01*
X136748398Y-96570465D01*
X136809394Y-96479179D01*
X136869737Y-96333497D01*
X136900500Y-96178842D01*
X136900500Y-96021158D01*
X136900500Y-96021155D01*
X136900499Y-96021153D01*
X136869738Y-95866510D01*
X136869737Y-95866503D01*
X136869735Y-95866498D01*
X136809397Y-95720827D01*
X136809390Y-95720814D01*
X136721789Y-95589711D01*
X136721786Y-95589707D01*
X136610292Y-95478213D01*
X136610288Y-95478210D01*
X136479185Y-95390609D01*
X136479172Y-95390602D01*
X136333501Y-95330264D01*
X136333489Y-95330261D01*
X136178845Y-95299500D01*
X136178842Y-95299500D01*
X136021158Y-95299500D01*
X136021155Y-95299500D01*
X135866510Y-95330261D01*
X135866498Y-95330264D01*
X135720827Y-95390602D01*
X135720814Y-95390609D01*
X135589711Y-95478210D01*
X135589707Y-95478213D01*
X135587681Y-95480240D01*
X135586357Y-95480962D01*
X135585001Y-95482076D01*
X135584789Y-95481818D01*
X135526358Y-95513725D01*
X135456666Y-95508741D01*
X135415060Y-95482001D01*
X135414999Y-95482076D01*
X135414360Y-95481552D01*
X135412319Y-95480240D01*
X135410292Y-95478213D01*
X135410288Y-95478210D01*
X135279185Y-95390609D01*
X135279172Y-95390602D01*
X135133501Y-95330264D01*
X135133489Y-95330261D01*
X134978845Y-95299500D01*
X134978842Y-95299500D01*
X134821158Y-95299500D01*
X134821155Y-95299500D01*
X134666510Y-95330261D01*
X134666498Y-95330264D01*
X134520827Y-95390602D01*
X134520814Y-95390609D01*
X134389711Y-95478210D01*
X134389707Y-95478213D01*
X134278213Y-95589707D01*
X134278210Y-95589711D01*
X134190609Y-95720814D01*
X134190602Y-95720827D01*
X134130264Y-95866498D01*
X134130261Y-95866510D01*
X134099500Y-96021153D01*
X134099500Y-96178846D01*
X134130261Y-96333489D01*
X134130264Y-96333501D01*
X134190603Y-96479174D01*
X134190604Y-96479175D01*
X134190606Y-96479179D01*
X134251602Y-96570465D01*
X134272480Y-96637142D01*
X134272500Y-96639356D01*
X134272500Y-97260642D01*
X134252815Y-97327681D01*
X134251602Y-97329533D01*
X134190609Y-97420814D01*
X134190602Y-97420827D01*
X134130264Y-97566498D01*
X134130261Y-97566510D01*
X134099500Y-97721153D01*
X134099500Y-97878846D01*
X134130261Y-98033489D01*
X134130264Y-98033501D01*
X134190602Y-98179172D01*
X134190609Y-98179185D01*
X134278210Y-98310288D01*
X134278213Y-98310292D01*
X134389707Y-98421786D01*
X134389711Y-98421789D01*
X134520814Y-98509390D01*
X134520827Y-98509397D01*
X134666498Y-98569735D01*
X134666503Y-98569737D01*
X134798731Y-98596039D01*
X134821153Y-98600499D01*
X134821156Y-98600500D01*
X134821158Y-98600500D01*
X134978844Y-98600500D01*
X134978845Y-98600499D01*
X135133497Y-98569737D01*
X135279179Y-98509394D01*
X135410289Y-98421789D01*
X135412312Y-98419766D01*
X135413634Y-98419043D01*
X135414999Y-98417924D01*
X135415211Y-98418182D01*
X135473632Y-98386276D01*
X135543324Y-98391255D01*
X135584939Y-98417999D01*
X135585001Y-98417924D01*
X135585648Y-98418454D01*
X135587688Y-98419766D01*
X135589711Y-98421789D01*
X135720814Y-98509390D01*
X135720821Y-98509394D01*
X135866503Y-98569737D01*
X135866509Y-98569738D01*
X135868677Y-98570636D01*
X135873309Y-98574369D01*
X135879139Y-98575553D01*
X135900201Y-98596039D01*
X135923081Y-98614477D01*
X135926058Y-98621190D01*
X135929224Y-98624269D01*
X135938383Y-98648977D01*
X135942015Y-98657164D01*
X135942462Y-98659090D01*
X135957263Y-98733497D01*
X135962876Y-98747049D01*
X135965190Y-98757017D01*
X135963745Y-98782090D01*
X135966431Y-98807066D01*
X135961770Y-98816376D01*
X135961172Y-98826771D01*
X135946399Y-98847085D01*
X135935157Y-98869546D01*
X135926203Y-98874858D01*
X135920080Y-98883279D01*
X135896668Y-98892382D01*
X135875068Y-98905199D01*
X135864664Y-98904827D01*
X135854960Y-98908601D01*
X135830344Y-98903602D01*
X135805243Y-98902706D01*
X135790559Y-98895522D01*
X135786488Y-98894696D01*
X135784787Y-98893042D01*
X135784554Y-98893479D01*
X135779172Y-98890602D01*
X135633501Y-98830264D01*
X135633489Y-98830261D01*
X135478845Y-98799500D01*
X135478842Y-98799500D01*
X135321158Y-98799500D01*
X135321155Y-98799500D01*
X135166510Y-98830261D01*
X135166498Y-98830264D01*
X135020827Y-98890602D01*
X135020814Y-98890609D01*
X134889711Y-98978210D01*
X134889707Y-98978213D01*
X134778213Y-99089707D01*
X134778210Y-99089711D01*
X134690609Y-99220814D01*
X134690602Y-99220827D01*
X134630264Y-99366498D01*
X134630261Y-99366508D01*
X134608843Y-99474183D01*
X134576458Y-99536094D01*
X134574907Y-99537672D01*
X134133409Y-99979172D01*
X134049992Y-100062589D01*
X134006289Y-100106292D01*
X133962586Y-100149994D01*
X133962585Y-100149996D01*
X133893233Y-100253789D01*
X133891586Y-100258393D01*
X133846614Y-100366964D01*
X133846612Y-100366972D01*
X133826072Y-100470229D01*
X133826073Y-100470230D01*
X133822500Y-100488194D01*
X133822500Y-100860642D01*
X133802815Y-100927681D01*
X133801602Y-100929533D01*
X133740609Y-101020814D01*
X133740602Y-101020827D01*
X133680264Y-101166498D01*
X133680261Y-101166510D01*
X133649500Y-101321153D01*
X125400000Y-101321153D01*
X125400000Y-101164818D01*
X125365526Y-100947164D01*
X125297432Y-100737589D01*
X125197388Y-100541243D01*
X125151066Y-100477485D01*
X125151065Y-100477485D01*
X124442137Y-101186413D01*
X124419333Y-101101306D01*
X124360090Y-100998694D01*
X124276306Y-100914910D01*
X124173694Y-100855667D01*
X124088584Y-100832861D01*
X124749628Y-100171818D01*
X124810951Y-100138333D01*
X124837308Y-100135499D01*
X124947872Y-100135499D01*
X125007483Y-100129091D01*
X125142331Y-100078796D01*
X125257546Y-99992546D01*
X125343796Y-99877331D01*
X125394091Y-99742483D01*
X125400500Y-99682873D01*
X125400499Y-97787128D01*
X125394091Y-97727517D01*
X125391719Y-97721158D01*
X125343797Y-97592671D01*
X125343793Y-97592664D01*
X125257547Y-97477455D01*
X125257544Y-97477452D01*
X125142335Y-97391206D01*
X125142328Y-97391202D01*
X125007482Y-97340908D01*
X125007483Y-97340908D01*
X124947883Y-97334501D01*
X124947881Y-97334500D01*
X124947873Y-97334500D01*
X124947864Y-97334500D01*
X123052129Y-97334500D01*
X123052123Y-97334501D01*
X122992516Y-97340908D01*
X122857671Y-97391202D01*
X122857664Y-97391206D01*
X122742455Y-97477452D01*
X122742452Y-97477455D01*
X122656206Y-97592664D01*
X122656202Y-97592671D01*
X122605908Y-97727517D01*
X122599501Y-97787116D01*
X122599501Y-97787123D01*
X122599500Y-97787135D01*
X119400499Y-97787135D01*
X119400499Y-97787128D01*
X119394091Y-97727517D01*
X119391719Y-97721158D01*
X119343797Y-97592671D01*
X119343793Y-97592664D01*
X119257547Y-97477455D01*
X119257544Y-97477452D01*
X119142335Y-97391206D01*
X119142328Y-97391202D01*
X119007482Y-97340908D01*
X119007483Y-97340908D01*
X118947883Y-97334501D01*
X118947881Y-97334500D01*
X118947873Y-97334500D01*
X118947864Y-97334500D01*
X117052129Y-97334500D01*
X117052123Y-97334501D01*
X116992516Y-97340908D01*
X116857671Y-97391202D01*
X116857664Y-97391206D01*
X116742455Y-97477452D01*
X116742452Y-97477455D01*
X116656206Y-97592664D01*
X116656202Y-97592671D01*
X116605908Y-97727517D01*
X116599501Y-97787116D01*
X116599501Y-97787123D01*
X116599500Y-97787135D01*
X113400499Y-97787135D01*
X113400499Y-97787128D01*
X113394091Y-97727517D01*
X113391719Y-97721158D01*
X113343797Y-97592671D01*
X113343793Y-97592664D01*
X113257547Y-97477455D01*
X113257544Y-97477452D01*
X113142335Y-97391206D01*
X113142328Y-97391202D01*
X113007482Y-97340908D01*
X113007483Y-97340908D01*
X112947883Y-97334501D01*
X112947881Y-97334500D01*
X112947873Y-97334500D01*
X112947864Y-97334500D01*
X111052129Y-97334500D01*
X111052123Y-97334501D01*
X110992516Y-97340908D01*
X110857671Y-97391202D01*
X110857664Y-97391206D01*
X110742455Y-97477452D01*
X110742452Y-97477455D01*
X110656206Y-97592664D01*
X110656202Y-97592671D01*
X110605908Y-97727517D01*
X110599501Y-97787116D01*
X110599501Y-97787123D01*
X110599500Y-97787135D01*
X107400499Y-97787135D01*
X107400499Y-97787128D01*
X107394091Y-97727517D01*
X107391719Y-97721158D01*
X107343797Y-97592671D01*
X107343793Y-97592664D01*
X107257547Y-97477455D01*
X107257544Y-97477452D01*
X107142335Y-97391206D01*
X107142328Y-97391202D01*
X107007482Y-97340908D01*
X107007483Y-97340908D01*
X106947883Y-97334501D01*
X106947881Y-97334500D01*
X106947873Y-97334500D01*
X106947864Y-97334500D01*
X105052129Y-97334500D01*
X105052123Y-97334501D01*
X104992516Y-97340908D01*
X104857671Y-97391202D01*
X104857664Y-97391206D01*
X104742455Y-97477452D01*
X104742452Y-97477455D01*
X104656206Y-97592664D01*
X104656202Y-97592671D01*
X104605908Y-97727517D01*
X104599501Y-97787116D01*
X104599501Y-97787123D01*
X104599500Y-97787135D01*
X101400499Y-97787135D01*
X101400499Y-97787128D01*
X101394091Y-97727517D01*
X101391719Y-97721158D01*
X101343797Y-97592671D01*
X101343793Y-97592664D01*
X101257547Y-97477455D01*
X101257544Y-97477452D01*
X101142335Y-97391206D01*
X101142328Y-97391202D01*
X101007482Y-97340908D01*
X101007483Y-97340908D01*
X100947883Y-97334501D01*
X100947881Y-97334500D01*
X100947873Y-97334500D01*
X100947864Y-97334500D01*
X99052129Y-97334500D01*
X99052123Y-97334501D01*
X98992516Y-97340908D01*
X98857671Y-97391202D01*
X98857664Y-97391206D01*
X98742455Y-97477452D01*
X98742452Y-97477455D01*
X98656206Y-97592664D01*
X98656202Y-97592671D01*
X98605908Y-97727517D01*
X98599501Y-97787116D01*
X98599501Y-97787123D01*
X98599500Y-97787135D01*
X83000500Y-97787135D01*
X83000500Y-93411257D01*
X83020185Y-93344218D01*
X83072989Y-93298463D01*
X83142147Y-93288519D01*
X83205703Y-93317544D01*
X83231886Y-93349256D01*
X83331413Y-93521641D01*
X83331415Y-93521644D01*
X83331416Y-93521645D01*
X83495042Y-93734888D01*
X83495048Y-93734895D01*
X83685104Y-93924951D01*
X83685110Y-93924956D01*
X83898359Y-94088587D01*
X84047968Y-94174964D01*
X84131133Y-94222980D01*
X84131149Y-94222988D01*
X84286008Y-94287132D01*
X84379474Y-94325847D01*
X84639109Y-94395416D01*
X84827319Y-94420193D01*
X84905602Y-94430500D01*
X84905603Y-94430500D01*
X85174398Y-94430500D01*
X85234905Y-94422534D01*
X85440891Y-94395416D01*
X85700526Y-94325847D01*
X85887457Y-94248417D01*
X85948850Y-94222988D01*
X85948853Y-94222986D01*
X85948859Y-94222984D01*
X86181641Y-94088587D01*
X86394890Y-93924956D01*
X86584956Y-93734890D01*
X86748587Y-93521641D01*
X86882984Y-93288859D01*
X86985847Y-93040526D01*
X87055416Y-92780891D01*
X87090500Y-92514397D01*
X87090500Y-92270638D01*
X95320500Y-92270638D01*
X95320500Y-92489361D01*
X95354714Y-92705376D01*
X95422297Y-92913380D01*
X95422298Y-92913383D01*
X95487081Y-93040524D01*
X95509722Y-93084960D01*
X95521595Y-93108260D01*
X95650142Y-93285193D01*
X95804806Y-93439857D01*
X95917380Y-93521645D01*
X95981743Y-93568407D01*
X96109132Y-93633315D01*
X96176616Y-93667701D01*
X96176619Y-93667702D01*
X96280621Y-93701493D01*
X96384625Y-93735286D01*
X96484672Y-93751132D01*
X96600639Y-93769500D01*
X96600644Y-93769500D01*
X96819361Y-93769500D01*
X96924082Y-93752912D01*
X97035375Y-93735286D01*
X97243383Y-93667701D01*
X97438257Y-93568407D01*
X97537601Y-93496229D01*
X97615193Y-93439857D01*
X97615195Y-93439854D01*
X97615199Y-93439852D01*
X97769852Y-93285199D01*
X97879683Y-93134028D01*
X97935011Y-93091364D01*
X98004624Y-93085385D01*
X98066420Y-93117990D01*
X98080313Y-93134023D01*
X98189906Y-93284866D01*
X98190148Y-93285199D01*
X98344806Y-93439857D01*
X98457380Y-93521645D01*
X98521743Y-93568407D01*
X98649132Y-93633315D01*
X98716616Y-93667701D01*
X98716619Y-93667702D01*
X98820621Y-93701493D01*
X98924625Y-93735286D01*
X99024672Y-93751132D01*
X99140639Y-93769500D01*
X99140644Y-93769500D01*
X99359361Y-93769500D01*
X99464082Y-93752912D01*
X99575375Y-93735286D01*
X99783383Y-93667701D01*
X99978257Y-93568407D01*
X100077601Y-93496229D01*
X100155193Y-93439857D01*
X100155195Y-93439854D01*
X100155199Y-93439852D01*
X100309852Y-93285199D01*
X100419683Y-93134028D01*
X100475011Y-93091364D01*
X100544624Y-93085385D01*
X100606420Y-93117990D01*
X100620313Y-93134023D01*
X100729906Y-93284866D01*
X100730148Y-93285199D01*
X100884806Y-93439857D01*
X100997380Y-93521645D01*
X101061743Y-93568407D01*
X101189132Y-93633315D01*
X101256616Y-93667701D01*
X101256619Y-93667702D01*
X101360621Y-93701493D01*
X101464625Y-93735286D01*
X101564672Y-93751132D01*
X101680639Y-93769500D01*
X101680644Y-93769500D01*
X101899361Y-93769500D01*
X102004082Y-93752912D01*
X102115375Y-93735286D01*
X102323383Y-93667701D01*
X102518257Y-93568407D01*
X102617601Y-93496229D01*
X102695193Y-93439857D01*
X102695195Y-93439854D01*
X102695199Y-93439852D01*
X102849852Y-93285199D01*
X102959683Y-93134028D01*
X103015011Y-93091364D01*
X103084624Y-93085385D01*
X103146420Y-93117990D01*
X103160313Y-93134023D01*
X103269906Y-93284866D01*
X103270148Y-93285199D01*
X103424806Y-93439857D01*
X103537380Y-93521645D01*
X103601743Y-93568407D01*
X103729132Y-93633315D01*
X103796616Y-93667701D01*
X103796619Y-93667702D01*
X103900621Y-93701493D01*
X104004625Y-93735286D01*
X104104672Y-93751132D01*
X104220639Y-93769500D01*
X104220644Y-93769500D01*
X104439361Y-93769500D01*
X104544082Y-93752912D01*
X104655375Y-93735286D01*
X104863383Y-93667701D01*
X105058257Y-93568407D01*
X105157601Y-93496229D01*
X105235193Y-93439857D01*
X105235195Y-93439854D01*
X105235199Y-93439852D01*
X105389852Y-93285199D01*
X105499991Y-93133603D01*
X105555320Y-93090939D01*
X105624933Y-93084960D01*
X105686729Y-93117565D01*
X105700627Y-93133605D01*
X105810524Y-93284866D01*
X105810528Y-93284871D01*
X105965128Y-93439471D01*
X105965133Y-93439475D01*
X106142001Y-93567976D01*
X106336808Y-93667237D01*
X106336811Y-93667238D01*
X106544739Y-93734797D01*
X106619999Y-93746717D01*
X106620000Y-93746717D01*
X106620000Y-92824560D01*
X106673147Y-92855245D01*
X106802857Y-92890000D01*
X106937143Y-92890000D01*
X107066853Y-92855245D01*
X107120000Y-92824560D01*
X107120000Y-93746717D01*
X107195258Y-93734797D01*
X107195261Y-93734797D01*
X107403188Y-93667238D01*
X107403191Y-93667237D01*
X107597998Y-93567976D01*
X107774866Y-93439475D01*
X107774871Y-93439471D01*
X107929469Y-93284873D01*
X108039371Y-93133605D01*
X108094701Y-93090939D01*
X108164314Y-93084960D01*
X108226110Y-93117565D01*
X108240008Y-93133605D01*
X108350142Y-93285192D01*
X108350146Y-93285197D01*
X108504806Y-93439857D01*
X108617380Y-93521645D01*
X108681743Y-93568407D01*
X108809132Y-93633315D01*
X108876616Y-93667701D01*
X108876619Y-93667702D01*
X108980621Y-93701493D01*
X109084625Y-93735286D01*
X109184672Y-93751132D01*
X109300639Y-93769500D01*
X109300644Y-93769500D01*
X109519361Y-93769500D01*
X109624082Y-93752912D01*
X109735375Y-93735286D01*
X109943383Y-93667701D01*
X110138257Y-93568407D01*
X110237601Y-93496229D01*
X110315193Y-93439857D01*
X110315195Y-93439854D01*
X110315199Y-93439852D01*
X110469852Y-93285199D01*
X110579683Y-93134028D01*
X110635011Y-93091364D01*
X110704624Y-93085385D01*
X110766420Y-93117990D01*
X110780313Y-93134023D01*
X110889906Y-93284866D01*
X110890148Y-93285199D01*
X111044806Y-93439857D01*
X111157380Y-93521645D01*
X111221743Y-93568407D01*
X111349132Y-93633315D01*
X111416616Y-93667701D01*
X111416619Y-93667702D01*
X111520621Y-93701493D01*
X111624625Y-93735286D01*
X111724672Y-93751132D01*
X111840639Y-93769500D01*
X111840644Y-93769500D01*
X112059361Y-93769500D01*
X112164082Y-93752912D01*
X112275375Y-93735286D01*
X112483383Y-93667701D01*
X112678257Y-93568407D01*
X112777601Y-93496229D01*
X112855193Y-93439857D01*
X112855195Y-93439854D01*
X112855199Y-93439852D01*
X113009852Y-93285199D01*
X113119683Y-93134028D01*
X113175011Y-93091364D01*
X113244624Y-93085385D01*
X113306420Y-93117990D01*
X113320313Y-93134023D01*
X113429906Y-93284866D01*
X113430148Y-93285199D01*
X113584806Y-93439857D01*
X113697380Y-93521645D01*
X113761743Y-93568407D01*
X113889132Y-93633315D01*
X113956616Y-93667701D01*
X113956619Y-93667702D01*
X114060621Y-93701493D01*
X114164625Y-93735286D01*
X114264672Y-93751132D01*
X114380639Y-93769500D01*
X114380644Y-93769500D01*
X114599361Y-93769500D01*
X114704082Y-93752912D01*
X114815375Y-93735286D01*
X115023383Y-93667701D01*
X115218257Y-93568407D01*
X115317601Y-93496229D01*
X115395193Y-93439857D01*
X115395195Y-93439854D01*
X115395199Y-93439852D01*
X115549852Y-93285199D01*
X115659683Y-93134028D01*
X115715011Y-93091364D01*
X115784624Y-93085385D01*
X115846420Y-93117990D01*
X115860313Y-93134023D01*
X115969906Y-93284866D01*
X115970148Y-93285199D01*
X116124806Y-93439857D01*
X116237380Y-93521645D01*
X116301743Y-93568407D01*
X116429132Y-93633315D01*
X116496616Y-93667701D01*
X116496619Y-93667702D01*
X116600621Y-93701493D01*
X116704625Y-93735286D01*
X116804672Y-93751132D01*
X116920639Y-93769500D01*
X116920644Y-93769500D01*
X117139361Y-93769500D01*
X117244082Y-93752912D01*
X117355375Y-93735286D01*
X117563383Y-93667701D01*
X117758257Y-93568407D01*
X117857601Y-93496229D01*
X117935193Y-93439857D01*
X117935195Y-93439854D01*
X117935199Y-93439852D01*
X118089852Y-93285199D01*
X118199683Y-93134028D01*
X118255011Y-93091364D01*
X118324624Y-93085385D01*
X118386420Y-93117990D01*
X118400313Y-93134023D01*
X118509906Y-93284866D01*
X118510148Y-93285199D01*
X118664806Y-93439857D01*
X118777380Y-93521645D01*
X118841743Y-93568407D01*
X118969132Y-93633315D01*
X119036616Y-93667701D01*
X119036619Y-93667702D01*
X119140621Y-93701493D01*
X119244625Y-93735286D01*
X119344672Y-93751132D01*
X119460639Y-93769500D01*
X119460644Y-93769500D01*
X119679361Y-93769500D01*
X119784082Y-93752912D01*
X119895375Y-93735286D01*
X120103383Y-93667701D01*
X120298257Y-93568407D01*
X120397601Y-93496229D01*
X120475193Y-93439857D01*
X120475195Y-93439854D01*
X120475199Y-93439852D01*
X120629852Y-93285199D01*
X120739683Y-93134028D01*
X120795011Y-93091364D01*
X120864624Y-93085385D01*
X120926420Y-93117990D01*
X120940313Y-93134023D01*
X121049906Y-93284866D01*
X121050148Y-93285199D01*
X121204806Y-93439857D01*
X121317380Y-93521645D01*
X121381743Y-93568407D01*
X121509132Y-93633315D01*
X121576616Y-93667701D01*
X121576619Y-93667702D01*
X121680621Y-93701493D01*
X121784625Y-93735286D01*
X121884672Y-93751132D01*
X122000639Y-93769500D01*
X122000644Y-93769500D01*
X122219361Y-93769500D01*
X122324082Y-93752912D01*
X122435375Y-93735286D01*
X122643383Y-93667701D01*
X122838257Y-93568407D01*
X122937601Y-93496229D01*
X123015193Y-93439857D01*
X123015195Y-93439854D01*
X123015199Y-93439852D01*
X123169852Y-93285199D01*
X123279683Y-93134028D01*
X123335011Y-93091364D01*
X123404624Y-93085385D01*
X123466420Y-93117990D01*
X123480313Y-93134023D01*
X123589906Y-93284866D01*
X123590148Y-93285199D01*
X123744806Y-93439857D01*
X123857380Y-93521645D01*
X123921743Y-93568407D01*
X124049132Y-93633315D01*
X124116616Y-93667701D01*
X124116619Y-93667702D01*
X124220621Y-93701493D01*
X124324625Y-93735286D01*
X124424672Y-93751132D01*
X124540639Y-93769500D01*
X124540644Y-93769500D01*
X124759361Y-93769500D01*
X124864082Y-93752912D01*
X124975375Y-93735286D01*
X125183383Y-93667701D01*
X125378257Y-93568407D01*
X125477601Y-93496229D01*
X125555193Y-93439857D01*
X125555195Y-93439854D01*
X125555199Y-93439852D01*
X125709852Y-93285199D01*
X125819683Y-93134028D01*
X125875011Y-93091364D01*
X125944624Y-93085385D01*
X126006420Y-93117990D01*
X126020313Y-93134023D01*
X126129906Y-93284866D01*
X126130148Y-93285199D01*
X126284806Y-93439857D01*
X126397380Y-93521645D01*
X126461743Y-93568407D01*
X126589132Y-93633315D01*
X126656616Y-93667701D01*
X126656619Y-93667702D01*
X126760621Y-93701493D01*
X126864625Y-93735286D01*
X126964672Y-93751132D01*
X127080639Y-93769500D01*
X127080644Y-93769500D01*
X127299361Y-93769500D01*
X127404082Y-93752912D01*
X127515375Y-93735286D01*
X127723383Y-93667701D01*
X127918257Y-93568407D01*
X128017601Y-93496229D01*
X128095193Y-93439857D01*
X128095195Y-93439854D01*
X128095199Y-93439852D01*
X128249852Y-93285199D01*
X128359991Y-93133603D01*
X128415320Y-93090939D01*
X128484933Y-93084960D01*
X128546729Y-93117565D01*
X128560627Y-93133605D01*
X128670524Y-93284866D01*
X128670528Y-93284871D01*
X128825128Y-93439471D01*
X128825133Y-93439475D01*
X129002001Y-93567976D01*
X129196808Y-93667237D01*
X129196811Y-93667238D01*
X129404739Y-93734797D01*
X129479999Y-93746717D01*
X129480000Y-93746717D01*
X129480000Y-92824560D01*
X129533147Y-92855245D01*
X129662857Y-92890000D01*
X129797143Y-92890000D01*
X129926853Y-92855245D01*
X129980000Y-92824560D01*
X129980000Y-93746717D01*
X130055258Y-93734797D01*
X130055261Y-93734797D01*
X130263188Y-93667238D01*
X130263191Y-93667237D01*
X130457998Y-93567976D01*
X130634866Y-93439475D01*
X130634871Y-93439471D01*
X130789469Y-93284873D01*
X130899371Y-93133605D01*
X130954701Y-93090939D01*
X131024314Y-93084960D01*
X131086110Y-93117565D01*
X131100008Y-93133605D01*
X131210142Y-93285192D01*
X131210146Y-93285197D01*
X131364806Y-93439857D01*
X131477380Y-93521645D01*
X131541743Y-93568407D01*
X131669132Y-93633315D01*
X131736616Y-93667701D01*
X131736619Y-93667702D01*
X131840621Y-93701493D01*
X131944625Y-93735286D01*
X132044672Y-93751132D01*
X132160639Y-93769500D01*
X132160644Y-93769500D01*
X132379361Y-93769500D01*
X132484082Y-93752912D01*
X132595375Y-93735286D01*
X132803383Y-93667701D01*
X132998257Y-93568407D01*
X133097601Y-93496229D01*
X133175193Y-93439857D01*
X133175195Y-93439854D01*
X133175199Y-93439852D01*
X133329852Y-93285199D01*
X133439683Y-93134028D01*
X133495011Y-93091364D01*
X133564624Y-93085385D01*
X133626420Y-93117990D01*
X133640313Y-93134023D01*
X133749906Y-93284866D01*
X133750148Y-93285199D01*
X133904806Y-93439857D01*
X134017380Y-93521645D01*
X134081743Y-93568407D01*
X134209132Y-93633315D01*
X134276616Y-93667701D01*
X134276619Y-93667702D01*
X134380621Y-93701493D01*
X134484625Y-93735286D01*
X134584672Y-93751132D01*
X134700639Y-93769500D01*
X134700644Y-93769500D01*
X134919361Y-93769500D01*
X135024082Y-93752912D01*
X135135375Y-93735286D01*
X135343383Y-93667701D01*
X135538257Y-93568407D01*
X135637601Y-93496229D01*
X135715193Y-93439857D01*
X135715195Y-93439854D01*
X135715199Y-93439852D01*
X135869852Y-93285199D01*
X135979683Y-93134028D01*
X136035011Y-93091364D01*
X136104624Y-93085385D01*
X136166420Y-93117990D01*
X136180313Y-93134023D01*
X136289906Y-93284866D01*
X136290148Y-93285199D01*
X136444806Y-93439857D01*
X136557380Y-93521645D01*
X136621743Y-93568407D01*
X136749132Y-93633315D01*
X136816616Y-93667701D01*
X136816619Y-93667702D01*
X136920621Y-93701493D01*
X137024625Y-93735286D01*
X137124672Y-93751132D01*
X137240639Y-93769500D01*
X137240644Y-93769500D01*
X137459361Y-93769500D01*
X137564082Y-93752912D01*
X137675375Y-93735286D01*
X137883383Y-93667701D01*
X138078257Y-93568407D01*
X138177601Y-93496229D01*
X138255193Y-93439857D01*
X138255195Y-93439854D01*
X138255199Y-93439852D01*
X138409852Y-93285199D01*
X138519683Y-93134028D01*
X138575011Y-93091364D01*
X138644624Y-93085385D01*
X138706420Y-93117990D01*
X138720313Y-93134023D01*
X138829906Y-93284866D01*
X138830148Y-93285199D01*
X138984806Y-93439857D01*
X139097380Y-93521645D01*
X139161743Y-93568407D01*
X139289132Y-93633315D01*
X139356616Y-93667701D01*
X139356619Y-93667702D01*
X139460621Y-93701493D01*
X139564625Y-93735286D01*
X139664672Y-93751132D01*
X139780639Y-93769500D01*
X139780644Y-93769500D01*
X139999361Y-93769500D01*
X140104082Y-93752912D01*
X140215375Y-93735286D01*
X140423383Y-93667701D01*
X140618257Y-93568407D01*
X140717601Y-93496229D01*
X140795193Y-93439857D01*
X140795195Y-93439854D01*
X140795199Y-93439852D01*
X140949852Y-93285199D01*
X141059683Y-93134028D01*
X141115011Y-93091364D01*
X141184624Y-93085385D01*
X141246420Y-93117990D01*
X141260313Y-93134023D01*
X141369906Y-93284866D01*
X141370148Y-93285199D01*
X141524806Y-93439857D01*
X141637380Y-93521645D01*
X141701743Y-93568407D01*
X141829132Y-93633315D01*
X141896616Y-93667701D01*
X141896619Y-93667702D01*
X142000621Y-93701493D01*
X142104625Y-93735286D01*
X142204672Y-93751132D01*
X142320639Y-93769500D01*
X142320644Y-93769500D01*
X142539361Y-93769500D01*
X142644082Y-93752912D01*
X142755375Y-93735286D01*
X142963383Y-93667701D01*
X143158257Y-93568407D01*
X143257601Y-93496229D01*
X143335193Y-93439857D01*
X143335195Y-93439854D01*
X143335199Y-93439852D01*
X143489852Y-93285199D01*
X143599683Y-93134028D01*
X143655011Y-93091364D01*
X143724624Y-93085385D01*
X143786420Y-93117990D01*
X143800313Y-93134023D01*
X143909906Y-93284866D01*
X143910148Y-93285199D01*
X144064806Y-93439857D01*
X144177380Y-93521645D01*
X144241743Y-93568407D01*
X144369132Y-93633315D01*
X144436616Y-93667701D01*
X144436619Y-93667702D01*
X144540621Y-93701493D01*
X144644625Y-93735286D01*
X144744672Y-93751132D01*
X144860639Y-93769500D01*
X144860644Y-93769500D01*
X145079361Y-93769500D01*
X145184082Y-93752912D01*
X145295375Y-93735286D01*
X145503383Y-93667701D01*
X145698257Y-93568407D01*
X145797601Y-93496229D01*
X145875193Y-93439857D01*
X145875195Y-93439854D01*
X145875199Y-93439852D01*
X146029852Y-93285199D01*
X146139683Y-93134028D01*
X146195011Y-93091364D01*
X146264624Y-93085385D01*
X146326420Y-93117990D01*
X146340313Y-93134023D01*
X146449906Y-93284866D01*
X146450148Y-93285199D01*
X146604806Y-93439857D01*
X146717380Y-93521645D01*
X146781743Y-93568407D01*
X146909132Y-93633315D01*
X146976616Y-93667701D01*
X146976619Y-93667702D01*
X147080621Y-93701493D01*
X147184625Y-93735286D01*
X147284672Y-93751132D01*
X147400639Y-93769500D01*
X147400644Y-93769500D01*
X147619361Y-93769500D01*
X147724082Y-93752912D01*
X147835375Y-93735286D01*
X148043383Y-93667701D01*
X148238257Y-93568407D01*
X148337601Y-93496229D01*
X148415193Y-93439857D01*
X148415195Y-93439854D01*
X148415199Y-93439852D01*
X148569852Y-93285199D01*
X148679683Y-93134028D01*
X148735011Y-93091364D01*
X148804624Y-93085385D01*
X148866420Y-93117990D01*
X148880313Y-93134023D01*
X148989906Y-93284866D01*
X148990148Y-93285199D01*
X149144806Y-93439857D01*
X149257380Y-93521645D01*
X149321743Y-93568407D01*
X149449132Y-93633315D01*
X149516616Y-93667701D01*
X149516619Y-93667702D01*
X149620621Y-93701493D01*
X149724625Y-93735286D01*
X149824672Y-93751132D01*
X149940639Y-93769500D01*
X149940644Y-93769500D01*
X150159361Y-93769500D01*
X150264082Y-93752912D01*
X150375375Y-93735286D01*
X150583383Y-93667701D01*
X150778257Y-93568407D01*
X150877601Y-93496229D01*
X150955193Y-93439857D01*
X150955195Y-93439854D01*
X150955199Y-93439852D01*
X151109852Y-93285199D01*
X151219683Y-93134028D01*
X151275011Y-93091364D01*
X151344624Y-93085385D01*
X151406420Y-93117990D01*
X151420313Y-93134023D01*
X151529906Y-93284866D01*
X151530148Y-93285199D01*
X151684806Y-93439857D01*
X151797380Y-93521645D01*
X151861743Y-93568407D01*
X151989132Y-93633315D01*
X152056616Y-93667701D01*
X152056619Y-93667702D01*
X152160621Y-93701493D01*
X152264625Y-93735286D01*
X152364672Y-93751132D01*
X152480639Y-93769500D01*
X152480644Y-93769500D01*
X152699361Y-93769500D01*
X152804082Y-93752912D01*
X152915375Y-93735286D01*
X153123383Y-93667701D01*
X153318257Y-93568407D01*
X153417601Y-93496229D01*
X153495193Y-93439857D01*
X153495195Y-93439854D01*
X153495199Y-93439852D01*
X153649852Y-93285199D01*
X153759683Y-93134028D01*
X153815011Y-93091364D01*
X153884624Y-93085385D01*
X153946420Y-93117990D01*
X153960313Y-93134023D01*
X154069906Y-93284866D01*
X154070148Y-93285199D01*
X154224806Y-93439857D01*
X154337380Y-93521645D01*
X154401743Y-93568407D01*
X154529132Y-93633315D01*
X154596616Y-93667701D01*
X154596619Y-93667702D01*
X154700621Y-93701493D01*
X154804625Y-93735286D01*
X154904672Y-93751132D01*
X155020639Y-93769500D01*
X155020644Y-93769500D01*
X155239361Y-93769500D01*
X155344082Y-93752912D01*
X155455375Y-93735286D01*
X155663383Y-93667701D01*
X155858257Y-93568407D01*
X155957601Y-93496229D01*
X156035193Y-93439857D01*
X156035195Y-93439854D01*
X156035199Y-93439852D01*
X156189852Y-93285199D01*
X156299683Y-93134028D01*
X156355011Y-93091364D01*
X156424624Y-93085385D01*
X156486420Y-93117990D01*
X156500313Y-93134023D01*
X156609906Y-93284866D01*
X156610148Y-93285199D01*
X156764806Y-93439857D01*
X156877380Y-93521645D01*
X156941743Y-93568407D01*
X157069132Y-93633315D01*
X157136616Y-93667701D01*
X157136619Y-93667702D01*
X157240621Y-93701493D01*
X157344625Y-93735286D01*
X157444672Y-93751132D01*
X157560639Y-93769500D01*
X157560644Y-93769500D01*
X157779361Y-93769500D01*
X157884082Y-93752912D01*
X157995375Y-93735286D01*
X158203383Y-93667701D01*
X158398257Y-93568407D01*
X158497601Y-93496229D01*
X158575193Y-93439857D01*
X158575195Y-93439854D01*
X158575199Y-93439852D01*
X158729852Y-93285199D01*
X158839683Y-93134028D01*
X158895011Y-93091364D01*
X158964624Y-93085385D01*
X159026420Y-93117990D01*
X159040313Y-93134023D01*
X159149906Y-93284866D01*
X159150148Y-93285199D01*
X159304806Y-93439857D01*
X159417380Y-93521645D01*
X159481743Y-93568407D01*
X159609132Y-93633315D01*
X159676616Y-93667701D01*
X159676619Y-93667702D01*
X159780621Y-93701493D01*
X159884625Y-93735286D01*
X159984672Y-93751132D01*
X160100639Y-93769500D01*
X160100644Y-93769500D01*
X160319361Y-93769500D01*
X160424082Y-93752912D01*
X160535375Y-93735286D01*
X160743383Y-93667701D01*
X160938257Y-93568407D01*
X161037601Y-93496229D01*
X161115193Y-93439857D01*
X161115195Y-93439854D01*
X161115199Y-93439852D01*
X161269852Y-93285199D01*
X161379683Y-93134028D01*
X161435011Y-93091364D01*
X161504624Y-93085385D01*
X161566420Y-93117990D01*
X161580313Y-93134023D01*
X161689906Y-93284866D01*
X161690148Y-93285199D01*
X161844806Y-93439857D01*
X161957380Y-93521645D01*
X162021743Y-93568407D01*
X162149132Y-93633315D01*
X162216616Y-93667701D01*
X162216619Y-93667702D01*
X162320621Y-93701493D01*
X162424625Y-93735286D01*
X162524672Y-93751132D01*
X162640639Y-93769500D01*
X162640644Y-93769500D01*
X162859361Y-93769500D01*
X162964082Y-93752912D01*
X163075375Y-93735286D01*
X163283383Y-93667701D01*
X163478257Y-93568407D01*
X163577601Y-93496229D01*
X163655193Y-93439857D01*
X163655195Y-93439854D01*
X163655199Y-93439852D01*
X163809852Y-93285199D01*
X163919683Y-93134028D01*
X163975011Y-93091364D01*
X164044624Y-93085385D01*
X164106420Y-93117990D01*
X164120313Y-93134023D01*
X164229906Y-93284866D01*
X164230148Y-93285199D01*
X164384806Y-93439857D01*
X164497380Y-93521645D01*
X164561743Y-93568407D01*
X164689132Y-93633315D01*
X164756616Y-93667701D01*
X164756619Y-93667702D01*
X164860621Y-93701493D01*
X164964625Y-93735286D01*
X165064672Y-93751132D01*
X165180639Y-93769500D01*
X165180644Y-93769500D01*
X165399361Y-93769500D01*
X165504082Y-93752912D01*
X165615375Y-93735286D01*
X165823383Y-93667701D01*
X166018257Y-93568407D01*
X166117601Y-93496229D01*
X166195193Y-93439857D01*
X166195195Y-93439854D01*
X166195199Y-93439852D01*
X166349852Y-93285199D01*
X166349854Y-93285195D01*
X166349857Y-93285193D01*
X166418092Y-93191274D01*
X166478407Y-93108257D01*
X166577701Y-92913383D01*
X166645286Y-92705375D01*
X166665642Y-92576853D01*
X166679500Y-92489361D01*
X166679500Y-92270638D01*
X166659595Y-92144971D01*
X166645286Y-92054625D01*
X166590260Y-91885269D01*
X166577702Y-91846619D01*
X166577701Y-91846616D01*
X166512918Y-91719475D01*
X166478407Y-91651743D01*
X166434988Y-91591981D01*
X166349857Y-91474806D01*
X166195193Y-91320142D01*
X166018260Y-91191595D01*
X166018259Y-91191594D01*
X166018257Y-91191593D01*
X165955825Y-91159782D01*
X165823383Y-91092298D01*
X165823380Y-91092297D01*
X165615376Y-91024714D01*
X165399361Y-90990500D01*
X165399356Y-90990500D01*
X165180644Y-90990500D01*
X165180639Y-90990500D01*
X164964623Y-91024714D01*
X164756619Y-91092297D01*
X164756616Y-91092298D01*
X164561739Y-91191595D01*
X164384806Y-91320142D01*
X164230142Y-91474806D01*
X164120318Y-91625969D01*
X164064989Y-91668635D01*
X163995375Y-91674614D01*
X163933580Y-91642009D01*
X163919682Y-91625969D01*
X163809857Y-91474806D01*
X163655193Y-91320142D01*
X163478260Y-91191595D01*
X163478259Y-91191594D01*
X163478257Y-91191593D01*
X163415825Y-91159782D01*
X163283383Y-91092298D01*
X163283380Y-91092297D01*
X163075376Y-91024714D01*
X162859361Y-90990500D01*
X162859356Y-90990500D01*
X162640644Y-90990500D01*
X162640639Y-90990500D01*
X162424623Y-91024714D01*
X162216619Y-91092297D01*
X162216616Y-91092298D01*
X162021739Y-91191595D01*
X161844806Y-91320142D01*
X161690142Y-91474806D01*
X161580318Y-91625969D01*
X161524989Y-91668635D01*
X161455375Y-91674614D01*
X161393580Y-91642009D01*
X161379682Y-91625969D01*
X161269857Y-91474806D01*
X161115193Y-91320142D01*
X160938260Y-91191595D01*
X160938259Y-91191594D01*
X160938257Y-91191593D01*
X160875825Y-91159782D01*
X160743383Y-91092298D01*
X160743380Y-91092297D01*
X160535376Y-91024714D01*
X160319361Y-90990500D01*
X160319356Y-90990500D01*
X160100644Y-90990500D01*
X160100639Y-90990500D01*
X159884623Y-91024714D01*
X159676619Y-91092297D01*
X159676616Y-91092298D01*
X159481739Y-91191595D01*
X159304806Y-91320142D01*
X159150142Y-91474806D01*
X159040318Y-91625969D01*
X158984989Y-91668635D01*
X158915375Y-91674614D01*
X158853580Y-91642009D01*
X158839682Y-91625969D01*
X158729857Y-91474806D01*
X158575193Y-91320142D01*
X158398260Y-91191595D01*
X158398259Y-91191594D01*
X158398257Y-91191593D01*
X158335825Y-91159782D01*
X158203383Y-91092298D01*
X158203380Y-91092297D01*
X157995376Y-91024714D01*
X157779361Y-90990500D01*
X157779356Y-90990500D01*
X157560644Y-90990500D01*
X157560639Y-90990500D01*
X157344623Y-91024714D01*
X157136619Y-91092297D01*
X157136616Y-91092298D01*
X156941739Y-91191595D01*
X156764806Y-91320142D01*
X156610142Y-91474806D01*
X156500318Y-91625969D01*
X156444989Y-91668635D01*
X156375375Y-91674614D01*
X156313580Y-91642009D01*
X156299682Y-91625969D01*
X156189857Y-91474806D01*
X156035193Y-91320142D01*
X155858260Y-91191595D01*
X155858259Y-91191594D01*
X155858257Y-91191593D01*
X155795825Y-91159782D01*
X155663383Y-91092298D01*
X155663380Y-91092297D01*
X155455376Y-91024714D01*
X155239361Y-90990500D01*
X155239356Y-90990500D01*
X155020644Y-90990500D01*
X155020639Y-90990500D01*
X154804623Y-91024714D01*
X154596619Y-91092297D01*
X154596616Y-91092298D01*
X154401739Y-91191595D01*
X154224806Y-91320142D01*
X154070142Y-91474806D01*
X153960318Y-91625969D01*
X153904989Y-91668635D01*
X153835375Y-91674614D01*
X153773580Y-91642009D01*
X153759682Y-91625969D01*
X153649857Y-91474806D01*
X153495193Y-91320142D01*
X153318260Y-91191595D01*
X153318259Y-91191594D01*
X153318257Y-91191593D01*
X153255825Y-91159782D01*
X153123383Y-91092298D01*
X153123380Y-91092297D01*
X152915376Y-91024714D01*
X152699361Y-90990500D01*
X152699356Y-90990500D01*
X152480644Y-90990500D01*
X152480639Y-90990500D01*
X152264623Y-91024714D01*
X152056619Y-91092297D01*
X152056616Y-91092298D01*
X151861739Y-91191595D01*
X151684806Y-91320142D01*
X151530142Y-91474806D01*
X151420318Y-91625969D01*
X151364989Y-91668635D01*
X151295375Y-91674614D01*
X151233580Y-91642009D01*
X151219682Y-91625969D01*
X151109857Y-91474806D01*
X150955193Y-91320142D01*
X150778260Y-91191595D01*
X150778259Y-91191594D01*
X150778257Y-91191593D01*
X150715825Y-91159782D01*
X150583383Y-91092298D01*
X150583380Y-91092297D01*
X150375376Y-91024714D01*
X150159361Y-90990500D01*
X150159356Y-90990500D01*
X149940644Y-90990500D01*
X149940639Y-90990500D01*
X149724623Y-91024714D01*
X149516619Y-91092297D01*
X149516616Y-91092298D01*
X149321739Y-91191595D01*
X149144806Y-91320142D01*
X148990142Y-91474806D01*
X148880318Y-91625969D01*
X148824989Y-91668635D01*
X148755375Y-91674614D01*
X148693580Y-91642009D01*
X148679682Y-91625969D01*
X148569857Y-91474806D01*
X148415193Y-91320142D01*
X148238260Y-91191595D01*
X148238259Y-91191594D01*
X148238257Y-91191593D01*
X148175825Y-91159782D01*
X148043383Y-91092298D01*
X148043380Y-91092297D01*
X147835376Y-91024714D01*
X147619361Y-90990500D01*
X147619356Y-90990500D01*
X147400644Y-90990500D01*
X147400639Y-90990500D01*
X147184623Y-91024714D01*
X146976619Y-91092297D01*
X146976616Y-91092298D01*
X146781739Y-91191595D01*
X146604806Y-91320142D01*
X146450142Y-91474806D01*
X146340318Y-91625969D01*
X146284989Y-91668635D01*
X146215375Y-91674614D01*
X146153580Y-91642009D01*
X146139682Y-91625969D01*
X146029857Y-91474806D01*
X145875193Y-91320142D01*
X145698260Y-91191595D01*
X145698259Y-91191594D01*
X145698257Y-91191593D01*
X145635825Y-91159782D01*
X145503383Y-91092298D01*
X145503380Y-91092297D01*
X145295376Y-91024714D01*
X145079361Y-90990500D01*
X145079356Y-90990500D01*
X144860644Y-90990500D01*
X144860639Y-90990500D01*
X144644623Y-91024714D01*
X144436619Y-91092297D01*
X144436616Y-91092298D01*
X144241739Y-91191595D01*
X144064806Y-91320142D01*
X143910142Y-91474806D01*
X143800318Y-91625969D01*
X143744989Y-91668635D01*
X143675375Y-91674614D01*
X143613580Y-91642009D01*
X143599682Y-91625969D01*
X143489857Y-91474806D01*
X143335193Y-91320142D01*
X143158260Y-91191595D01*
X143158259Y-91191594D01*
X143158257Y-91191593D01*
X143095825Y-91159782D01*
X142963383Y-91092298D01*
X142963380Y-91092297D01*
X142755376Y-91024714D01*
X142539361Y-90990500D01*
X142539356Y-90990500D01*
X142320644Y-90990500D01*
X142320639Y-90990500D01*
X142104623Y-91024714D01*
X141896619Y-91092297D01*
X141896616Y-91092298D01*
X141701739Y-91191595D01*
X141524806Y-91320142D01*
X141370142Y-91474806D01*
X141260318Y-91625969D01*
X141204989Y-91668635D01*
X141135375Y-91674614D01*
X141073580Y-91642009D01*
X141059682Y-91625969D01*
X140949857Y-91474806D01*
X140795193Y-91320142D01*
X140618260Y-91191595D01*
X140618259Y-91191594D01*
X140618257Y-91191593D01*
X140555825Y-91159782D01*
X140423383Y-91092298D01*
X140423380Y-91092297D01*
X140215376Y-91024714D01*
X139999361Y-90990500D01*
X139999356Y-90990500D01*
X139780644Y-90990500D01*
X139780639Y-90990500D01*
X139564623Y-91024714D01*
X139356619Y-91092297D01*
X139356616Y-91092298D01*
X139161739Y-91191595D01*
X138984806Y-91320142D01*
X138830142Y-91474806D01*
X138720318Y-91625969D01*
X138664989Y-91668635D01*
X138595375Y-91674614D01*
X138533580Y-91642009D01*
X138519682Y-91625969D01*
X138409857Y-91474806D01*
X138255193Y-91320142D01*
X138078260Y-91191595D01*
X138078259Y-91191594D01*
X138078257Y-91191593D01*
X138015825Y-91159782D01*
X137883383Y-91092298D01*
X137883380Y-91092297D01*
X137675376Y-91024714D01*
X137459361Y-90990500D01*
X137459356Y-90990500D01*
X137240644Y-90990500D01*
X137240639Y-90990500D01*
X137024623Y-91024714D01*
X136816619Y-91092297D01*
X136816616Y-91092298D01*
X136621739Y-91191595D01*
X136444806Y-91320142D01*
X136290142Y-91474806D01*
X136180318Y-91625969D01*
X136124989Y-91668635D01*
X136055375Y-91674614D01*
X135993580Y-91642009D01*
X135979682Y-91625969D01*
X135869857Y-91474806D01*
X135715193Y-91320142D01*
X135538260Y-91191595D01*
X135538259Y-91191594D01*
X135538257Y-91191593D01*
X135475825Y-91159782D01*
X135343383Y-91092298D01*
X135343380Y-91092297D01*
X135135376Y-91024714D01*
X134919361Y-90990500D01*
X134919356Y-90990500D01*
X134700644Y-90990500D01*
X134700639Y-90990500D01*
X134484623Y-91024714D01*
X134276619Y-91092297D01*
X134276616Y-91092298D01*
X134081739Y-91191595D01*
X133904806Y-91320142D01*
X133750142Y-91474806D01*
X133640318Y-91625969D01*
X133584989Y-91668635D01*
X133515375Y-91674614D01*
X133453580Y-91642009D01*
X133439682Y-91625969D01*
X133329857Y-91474806D01*
X133175193Y-91320142D01*
X132998260Y-91191595D01*
X132998259Y-91191594D01*
X132998257Y-91191593D01*
X132935825Y-91159782D01*
X132803383Y-91092298D01*
X132803380Y-91092297D01*
X132595376Y-91024714D01*
X132379361Y-90990500D01*
X132379356Y-90990500D01*
X132160644Y-90990500D01*
X132160639Y-90990500D01*
X131944623Y-91024714D01*
X131736619Y-91092297D01*
X131736616Y-91092298D01*
X131541739Y-91191595D01*
X131364806Y-91320142D01*
X131210146Y-91474802D01*
X131210142Y-91474807D01*
X131100008Y-91626394D01*
X131044678Y-91669060D01*
X130975065Y-91675039D01*
X130913270Y-91642433D01*
X130899372Y-91626394D01*
X130789475Y-91475133D01*
X130789471Y-91475128D01*
X130634871Y-91320528D01*
X130634866Y-91320524D01*
X130457998Y-91192023D01*
X130263191Y-91092762D01*
X130263188Y-91092761D01*
X130055258Y-91025201D01*
X129980000Y-91013281D01*
X129980000Y-91935439D01*
X129926853Y-91904755D01*
X129797143Y-91870000D01*
X129662857Y-91870000D01*
X129533147Y-91904755D01*
X129480000Y-91935439D01*
X129480000Y-91013281D01*
X129404741Y-91025201D01*
X129196811Y-91092761D01*
X129196808Y-91092762D01*
X129002001Y-91192023D01*
X128825133Y-91320524D01*
X128825128Y-91320528D01*
X128670528Y-91475128D01*
X128670524Y-91475133D01*
X128560627Y-91626394D01*
X128505297Y-91669060D01*
X128435684Y-91675039D01*
X128373889Y-91642433D01*
X128359991Y-91626394D01*
X128249857Y-91474807D01*
X128249853Y-91474802D01*
X128095193Y-91320142D01*
X127918260Y-91191595D01*
X127918259Y-91191594D01*
X127918257Y-91191593D01*
X127855825Y-91159782D01*
X127723383Y-91092298D01*
X127723380Y-91092297D01*
X127515376Y-91024714D01*
X127299361Y-90990500D01*
X127299356Y-90990500D01*
X127080644Y-90990500D01*
X127080639Y-90990500D01*
X126864623Y-91024714D01*
X126656619Y-91092297D01*
X126656616Y-91092298D01*
X126461739Y-91191595D01*
X126284806Y-91320142D01*
X126130142Y-91474806D01*
X126020318Y-91625969D01*
X125964989Y-91668635D01*
X125895375Y-91674614D01*
X125833580Y-91642009D01*
X125819682Y-91625969D01*
X125709857Y-91474806D01*
X125555193Y-91320142D01*
X125378260Y-91191595D01*
X125378259Y-91191594D01*
X125378257Y-91191593D01*
X125315825Y-91159782D01*
X125183383Y-91092298D01*
X125183380Y-91092297D01*
X124975376Y-91024714D01*
X124759361Y-90990500D01*
X124759356Y-90990500D01*
X124540644Y-90990500D01*
X124540639Y-90990500D01*
X124324623Y-91024714D01*
X124116619Y-91092297D01*
X124116616Y-91092298D01*
X123921739Y-91191595D01*
X123744806Y-91320142D01*
X123590142Y-91474806D01*
X123480318Y-91625969D01*
X123424989Y-91668635D01*
X123355375Y-91674614D01*
X123293580Y-91642009D01*
X123279682Y-91625969D01*
X123169857Y-91474806D01*
X123015193Y-91320142D01*
X122838260Y-91191595D01*
X122838259Y-91191594D01*
X122838257Y-91191593D01*
X122775825Y-91159782D01*
X122643383Y-91092298D01*
X122643380Y-91092297D01*
X122435376Y-91024714D01*
X122219361Y-90990500D01*
X122219356Y-90990500D01*
X122000644Y-90990500D01*
X122000639Y-90990500D01*
X121784623Y-91024714D01*
X121576619Y-91092297D01*
X121576616Y-91092298D01*
X121381739Y-91191595D01*
X121204806Y-91320142D01*
X121050142Y-91474806D01*
X120940318Y-91625969D01*
X120884989Y-91668635D01*
X120815375Y-91674614D01*
X120753580Y-91642009D01*
X120739682Y-91625969D01*
X120629857Y-91474806D01*
X120475193Y-91320142D01*
X120298260Y-91191595D01*
X120298259Y-91191594D01*
X120298257Y-91191593D01*
X120235825Y-91159782D01*
X120103383Y-91092298D01*
X120103380Y-91092297D01*
X119895376Y-91024714D01*
X119679361Y-90990500D01*
X119679356Y-90990500D01*
X119460644Y-90990500D01*
X119460639Y-90990500D01*
X119244623Y-91024714D01*
X119036619Y-91092297D01*
X119036616Y-91092298D01*
X118841739Y-91191595D01*
X118664806Y-91320142D01*
X118510142Y-91474806D01*
X118400318Y-91625969D01*
X118344989Y-91668635D01*
X118275375Y-91674614D01*
X118213580Y-91642009D01*
X118199682Y-91625969D01*
X118089857Y-91474806D01*
X117935193Y-91320142D01*
X117758260Y-91191595D01*
X117758259Y-91191594D01*
X117758257Y-91191593D01*
X117695825Y-91159782D01*
X117563383Y-91092298D01*
X117563380Y-91092297D01*
X117355376Y-91024714D01*
X117139361Y-90990500D01*
X117139356Y-90990500D01*
X116920644Y-90990500D01*
X116920639Y-90990500D01*
X116704623Y-91024714D01*
X116496619Y-91092297D01*
X116496616Y-91092298D01*
X116301739Y-91191595D01*
X116124806Y-91320142D01*
X115970142Y-91474806D01*
X115860318Y-91625969D01*
X115804989Y-91668635D01*
X115735375Y-91674614D01*
X115673580Y-91642009D01*
X115659682Y-91625969D01*
X115549857Y-91474806D01*
X115395193Y-91320142D01*
X115218260Y-91191595D01*
X115218259Y-91191594D01*
X115218257Y-91191593D01*
X115155825Y-91159782D01*
X115023383Y-91092298D01*
X115023380Y-91092297D01*
X114815376Y-91024714D01*
X114599361Y-90990500D01*
X114599356Y-90990500D01*
X114380644Y-90990500D01*
X114380639Y-90990500D01*
X114164623Y-91024714D01*
X113956619Y-91092297D01*
X113956616Y-91092298D01*
X113761739Y-91191595D01*
X113584806Y-91320142D01*
X113430142Y-91474806D01*
X113320318Y-91625969D01*
X113264989Y-91668635D01*
X113195375Y-91674614D01*
X113133580Y-91642009D01*
X113119682Y-91625969D01*
X113009857Y-91474806D01*
X112855193Y-91320142D01*
X112678260Y-91191595D01*
X112678259Y-91191594D01*
X112678257Y-91191593D01*
X112615825Y-91159782D01*
X112483383Y-91092298D01*
X112483380Y-91092297D01*
X112275376Y-91024714D01*
X112059361Y-90990500D01*
X112059356Y-90990500D01*
X111840644Y-90990500D01*
X111840639Y-90990500D01*
X111624623Y-91024714D01*
X111416619Y-91092297D01*
X111416616Y-91092298D01*
X111221739Y-91191595D01*
X111044806Y-91320142D01*
X110890142Y-91474806D01*
X110780318Y-91625969D01*
X110724989Y-91668635D01*
X110655375Y-91674614D01*
X110593580Y-91642009D01*
X110579682Y-91625969D01*
X110469857Y-91474806D01*
X110315193Y-91320142D01*
X110138260Y-91191595D01*
X110138259Y-91191594D01*
X110138257Y-91191593D01*
X110075825Y-91159782D01*
X109943383Y-91092298D01*
X109943380Y-91092297D01*
X109735376Y-91024714D01*
X109519361Y-90990500D01*
X109519356Y-90990500D01*
X109300644Y-90990500D01*
X109300639Y-90990500D01*
X109084623Y-91024714D01*
X108876619Y-91092297D01*
X108876616Y-91092298D01*
X108681739Y-91191595D01*
X108504806Y-91320142D01*
X108350146Y-91474802D01*
X108350142Y-91474807D01*
X108240008Y-91626394D01*
X108184678Y-91669060D01*
X108115065Y-91675039D01*
X108053270Y-91642433D01*
X108039372Y-91626394D01*
X107929475Y-91475133D01*
X107929471Y-91475128D01*
X107774871Y-91320528D01*
X107774866Y-91320524D01*
X107597998Y-91192023D01*
X107403191Y-91092762D01*
X107403188Y-91092761D01*
X107195258Y-91025201D01*
X107120000Y-91013281D01*
X107120000Y-91935439D01*
X107066853Y-91904755D01*
X106937143Y-91870000D01*
X106802857Y-91870000D01*
X106673147Y-91904755D01*
X106620000Y-91935439D01*
X106620000Y-91013281D01*
X106544741Y-91025201D01*
X106336811Y-91092761D01*
X106336808Y-91092762D01*
X106142001Y-91192023D01*
X105965133Y-91320524D01*
X105965128Y-91320528D01*
X105810528Y-91475128D01*
X105810524Y-91475133D01*
X105700627Y-91626394D01*
X105645297Y-91669060D01*
X105575684Y-91675039D01*
X105513889Y-91642433D01*
X105499991Y-91626394D01*
X105389857Y-91474807D01*
X105389853Y-91474802D01*
X105235193Y-91320142D01*
X105058260Y-91191595D01*
X105058259Y-91191594D01*
X105058257Y-91191593D01*
X104995825Y-91159782D01*
X104863383Y-91092298D01*
X104863380Y-91092297D01*
X104655376Y-91024714D01*
X104439361Y-90990500D01*
X104439356Y-90990500D01*
X104220644Y-90990500D01*
X104220639Y-90990500D01*
X104004623Y-91024714D01*
X103796619Y-91092297D01*
X103796616Y-91092298D01*
X103601739Y-91191595D01*
X103424806Y-91320142D01*
X103270142Y-91474806D01*
X103160318Y-91625969D01*
X103104989Y-91668635D01*
X103035375Y-91674614D01*
X102973580Y-91642009D01*
X102959682Y-91625969D01*
X102849857Y-91474806D01*
X102695193Y-91320142D01*
X102518260Y-91191595D01*
X102518259Y-91191594D01*
X102518257Y-91191593D01*
X102455825Y-91159782D01*
X102323383Y-91092298D01*
X102323380Y-91092297D01*
X102115376Y-91024714D01*
X101899361Y-90990500D01*
X101899356Y-90990500D01*
X101680644Y-90990500D01*
X101680639Y-90990500D01*
X101464623Y-91024714D01*
X101256619Y-91092297D01*
X101256616Y-91092298D01*
X101061739Y-91191595D01*
X100884806Y-91320142D01*
X100730142Y-91474806D01*
X100620318Y-91625969D01*
X100564989Y-91668635D01*
X100495375Y-91674614D01*
X100433580Y-91642009D01*
X100419682Y-91625969D01*
X100309857Y-91474806D01*
X100155193Y-91320142D01*
X99978260Y-91191595D01*
X99978259Y-91191594D01*
X99978257Y-91191593D01*
X99915825Y-91159782D01*
X99783383Y-91092298D01*
X99783380Y-91092297D01*
X99575376Y-91024714D01*
X99359361Y-90990500D01*
X99359356Y-90990500D01*
X99140644Y-90990500D01*
X99140639Y-90990500D01*
X98924623Y-91024714D01*
X98716619Y-91092297D01*
X98716616Y-91092298D01*
X98521739Y-91191595D01*
X98344806Y-91320142D01*
X98190142Y-91474806D01*
X98080318Y-91625969D01*
X98024989Y-91668635D01*
X97955375Y-91674614D01*
X97893580Y-91642009D01*
X97879682Y-91625969D01*
X97769857Y-91474806D01*
X97615193Y-91320142D01*
X97438260Y-91191595D01*
X97438259Y-91191594D01*
X97438257Y-91191593D01*
X97375825Y-91159782D01*
X97243383Y-91092298D01*
X97243380Y-91092297D01*
X97035376Y-91024714D01*
X96819361Y-90990500D01*
X96819356Y-90990500D01*
X96600644Y-90990500D01*
X96600639Y-90990500D01*
X96384623Y-91024714D01*
X96176619Y-91092297D01*
X96176616Y-91092298D01*
X95981739Y-91191595D01*
X95804806Y-91320142D01*
X95650142Y-91474806D01*
X95521595Y-91651739D01*
X95422298Y-91846616D01*
X95422297Y-91846619D01*
X95354714Y-92054623D01*
X95320500Y-92270638D01*
X87090500Y-92270638D01*
X87090500Y-92245603D01*
X87087215Y-92220654D01*
X87080193Y-92167319D01*
X87055416Y-91979109D01*
X86985847Y-91719474D01*
X86884638Y-91475133D01*
X86882988Y-91471149D01*
X86882980Y-91471133D01*
X86827876Y-91375691D01*
X86748587Y-91238359D01*
X86584956Y-91025110D01*
X86584951Y-91025104D01*
X86394895Y-90835048D01*
X86394888Y-90835042D01*
X86181648Y-90671418D01*
X86181646Y-90671416D01*
X86181641Y-90671413D01*
X86009256Y-90571886D01*
X85961042Y-90521320D01*
X85947820Y-90452712D01*
X85973788Y-90387848D01*
X86030702Y-90347320D01*
X86071258Y-90340500D01*
X169428742Y-90340500D01*
X169495781Y-90360185D01*
G37*
%TD.AperFunction*%
%TD*%
M02*
