%TF.GenerationSoftware,KiCad,Pcbnew,9.0.7*%
%TF.CreationDate,2026-03-15T09:41:37-05:00*%
%TF.ProjectId,Sensor-LCD5,53656e73-6f72-42d4-9c43-44352e6b6963,rev?*%
%TF.SameCoordinates,Original*%
%TF.FileFunction,Soldermask,Bot*%
%TF.FilePolarity,Negative*%
%FSLAX46Y46*%
G04 Gerber Fmt 4.6, Leading zero omitted, Abs format (unit mm)*
G04 Created by KiCad (PCBNEW 9.0.7) date 2026-03-15 09:41:37*
%MOMM*%
%LPD*%
G01*
G04 APERTURE LIST*
%ADD10C,1.778000*%
%ADD11R,1.800000X1.800000*%
%ADD12C,1.800000*%
G04 APERTURE END LIST*
D10*
%TO.C,U4*%
X165290000Y-92380000D03*
X162750000Y-92380000D03*
X160210000Y-92380000D03*
X157670000Y-92380000D03*
X155130000Y-92380000D03*
X152590000Y-92380000D03*
X150050000Y-92380000D03*
X147510000Y-92380000D03*
X144970000Y-92380000D03*
X142430000Y-92380000D03*
X139890000Y-92380000D03*
X137350000Y-92380000D03*
X134810000Y-92380000D03*
X132270000Y-92380000D03*
X129730000Y-92380000D03*
X127190000Y-92380000D03*
X124650000Y-92380000D03*
X122110000Y-92380000D03*
X119570000Y-92380000D03*
X117030000Y-92380000D03*
X114490000Y-92380000D03*
X111950000Y-92380000D03*
X109410000Y-92380000D03*
X106870000Y-92380000D03*
X104330000Y-92380000D03*
X101790000Y-92380000D03*
X99250000Y-92380000D03*
X96710000Y-92380000D03*
X96710000Y-107620000D03*
X99250000Y-107620000D03*
X101790000Y-107620000D03*
X104330000Y-107620000D03*
X106870000Y-107620000D03*
X109410000Y-107620000D03*
X111950000Y-107620000D03*
X114490000Y-107620000D03*
X117030000Y-107620000D03*
X119570000Y-107620000D03*
X122110000Y-107620000D03*
X124650000Y-107620000D03*
X127190000Y-107620000D03*
X129730000Y-107620000D03*
X132270000Y-107620000D03*
X134810000Y-107620000D03*
X137350000Y-107620000D03*
X139890000Y-107620000D03*
X142430000Y-107620000D03*
X144970000Y-107620000D03*
X147510000Y-107620000D03*
X150050000Y-107620000D03*
X152590000Y-107620000D03*
X155130000Y-107620000D03*
X157670000Y-107620000D03*
X160210000Y-107620000D03*
X162750000Y-107620000D03*
X165290000Y-107620000D03*
%TD*%
D11*
%TO.C,Q2*%
X106000000Y-98735000D03*
D12*
X106000000Y-101275000D03*
%TD*%
D11*
%TO.C,Q3*%
X112000000Y-98735000D03*
D12*
X112000000Y-101275000D03*
%TD*%
D11*
%TO.C,Q1*%
X100000000Y-98735000D03*
D12*
X100000000Y-101275000D03*
%TD*%
D11*
%TO.C,Q4*%
X118000000Y-98735000D03*
D12*
X118000000Y-101275000D03*
%TD*%
D11*
%TO.C,Q5*%
X124000000Y-98735000D03*
D12*
X124000000Y-101275000D03*
%TD*%
M02*
