0
SECTION
2
HEADER
9
$INSUNITS
70
4
9
$ACADVER
1
AC1014
9
$HANDSEED
5
FFFF
0
ENDSEC
0
SECTION
2
TABLES
0
TABLE
2
VPORT
5
8
100
AcDbSymbolTable
0
ENDTAB
0
TABLE
2
LTYPE
5
5
100
AcDbSymbolTable
0
LTYPE
5
14
100
AcDbSymbolTableRecord
100
AcDbLinetypeTableRecord
2
BYBLOCK
70
0
0
LTYPE
5
15
100
AcDbSymbolTableRecord
100
AcDbLinetypeTableRecord
2
BYLAYER
70
0
0
LTYPE
5
16
100
AcDbSymbolTableRecord
100
AcDbLinetypeTableRecord
2
DASHED
70
0
3
Dashed __ __ __ __ __ __ __ __ __ __ __ __ __ _
72
65
73
2
40
0.75
49
0.5
74
0
49
-0.25
74
0
0
ENDTAB
0
TABLE
2
LAYER
5
2
100
AcDbSymbolTable
70
2
0
LAYER
5
50
100
AcDbSymbolTableRecord
100
AcDbLayerTableRecord
2
0
70
0
62
7
6
CONTINUOUS
0
ENDTAB
0
TABLE
2
STYLE
5
3
100
AcDbSymbolTable
70
1
0
STYLE
5
11
100
AcDbSymbolTableRecord
100
AcDbTextStyleTableRecord
2
STANDARD
70
0
0
ENDTAB
0
TABLE
2
VIEW
5
6
100
AcDbSymbolTable
70
0
0
ENDTAB
0
TABLE
2
UCS
5
7
100
AcDbSymbolTable
70
0
0
ENDTAB
0
TABLE
2
APPID
5
9
100
AcDbSymbolTable
70
2
0
APPID
5
12
100
AcDbSymbolTableRecord
100
AcDbRegAppTableRecord
2
ACAD
70
0
0
ENDTAB
0
TABLE
2
DIMSTYLE
5
A
100
AcDbSymbolTable
70
1
0
ENDTAB
0
TABLE
2
BLOCK_RECORD
5
1
100
AcDbSymbolTable
70
1
0
BLOCK_RECORD
5
1F
100
AcDbSymbolTableRecord
100
AcDbBlockTableRecord
2
*MODEL_SPACE
0
BLOCK_RECORD
5
1B
100
AcDbSymbolTableRecord
100
AcDbBlockTableRecord
2
*PAPER_SPACE
0
ENDTAB
0
ENDSEC
0
SECTION
2
BLOCKS
0
BLOCK
5
20
100
AcDbEntity
100
AcDbBlockBegin
2
*MODEL_SPACE
0
ENDBLK
5
21
100
AcDbEntity
100
AcDbBlockEnd
0
BLOCK
5
1C
100
AcDbEntity
100
AcDbBlockBegin
2
*PAPER_SPACE
0
ENDBLK
5
1D
100
AcDbEntity
100
AcDbBlockEnd
0
ENDSEC
0
SECTION
2
ENTITIES
0
CIRCLE
5
100
100
AcDbEntity
8
0
100
AcDbCircle
10
229.00000000000003
20
285
30
0
40
1.6999999999999993
210
0
220
-0
230
1
0
CIRCLE
5
101
100
AcDbEntity
8
0
100
AcDbCircle
10
229.00000000000003
20
110
30
0
40
1.6999999999999993
210
0
220
-0
230
1
0
CIRCLE
5
102
100
AcDbEntity
8
0
100
AcDbCircle
10
277
20
137.5
30
0
40
1.7000000000000171
210
0
220
-0
230
1
0
CIRCLE
5
103
100
AcDbEntity
8
0
100
AcDbCircle
10
20.999999999999996
20
137.5
30
0
40
1.6999999999999993
210
0
220
-0
230
1
0
LWPOLYLINE
5
104
100
AcDbEntity
8
0
100
AcDbPolyline
90
8
70
1
43
0.0
10
115
20
115
10
115
20
120
10
35
20
120
10
35
20
270
10
265
20
270
10
265
20
120
10
185
20
120
10
185
20
115
0
LWPOLYLINE
5
105
100
AcDbEntity
8
0
100
AcDbPolyline
90
4
70
1
43
0.0
10
0
20
300
10
0
20
0
10
300
20
0
10
300
20
300
0
CIRCLE
5
106
100
AcDbEntity
8
0
100
AcDbCircle
10
292.5
20
15
30
0
40
2.1000000000000085
210
0
220
-0
230
1
0
CIRCLE
5
107
100
AcDbEntity
8
0
100
AcDbCircle
10
7.5
20
45
30
0
40
2.0999999999999996
210
0
220
-0
230
1
0
CIRCLE
5
108
100
AcDbEntity
8
0
100
AcDbCircle
10
7.5
20
15
30
0
40
2.0999999999999996
210
0
220
-0
230
1
0
CIRCLE
5
109
100
AcDbEntity
8
0
100
AcDbCircle
10
292.5
20
45
30
0
40
2.1000000000000085
210
0
220
-0
230
1
0
CIRCLE
5
110
100
AcDbEntity
8
0
100
AcDbCircle
10
7.5
20
75
30
0
40
2.0999999999999996
210
0
220
-0
230
1
0
CIRCLE
5
111
100
AcDbEntity
8
0
100
AcDbCircle
10
292.5
20
75
30
0
40
2.1000000000000085
210
0
220
-0
230
1
0
LINE
5
112
100
AcDbEntity
8
0
100
AcDbLine
10
270.69999999999959
20
77.799999999999514
30
0
11
270.6999999999997
21
13.599999999999532
31
0
0
ARC
5
113
100
AcDbEntity
8
0
100
AcDbCircle
10
268.99999999999972
20
13.599999999999522
30
0
40
1.7000000000000015
210
0
220
0
230
1
100
AcDbArc
50
-90
51
0
0
LINE
5
114
100
AcDbEntity
8
0
100
AcDbLine
10
268.99999999999972
20
11.899999999999519
30
0
11
263.87989898732206
21
11.899999999999517
31
0
0
ARC
5
115
100
AcDbEntity
8
0
100
AcDbCircle
10
261.89999999999969
20
11.199999999999497
30
0
40
2.0999999999999881
210
0
220
0
230
1
100
AcDbArc
50
-199.47122063449126
51
19.47122063449098
0
LINE
5
116
100
AcDbEntity
8
0
100
AcDbLine
10
259.92010101267738
20
11.899999999999514
30
0
11
183.87989898732204
21
11.899999999999469
31
0
0
ARC
5
117
100
AcDbEntity
8
0
100
AcDbCircle
10
181.89999999999969
20
11.199999999999449
30
0
40
2.0999999999999881
210
0
220
0
230
1
100
AcDbArc
50
-199.47122063449123
51
19.471220634491136
0
LINE
5
118
100
AcDbEntity
8
0
100
AcDbLine
10
179.92010101267738
20
11.899999999999464
30
0
11
174.79999999999967
21
11.899999999999464
31
0
0
ARC
5
119
100
AcDbEntity
8
0
100
AcDbCircle
10
174.79999999999967
20
13.599999999999476
30
0
40
1.6999999999999815
210
0
220
0
230
1
100
AcDbArc
50
180
51
270
0
LINE
5
120
100
AcDbEntity
8
0
100
AcDbLine
10
173.09999999999971
20
13.599999999999465
30
0
11
173.09999999999968
21
77.799999999999471
31
0
0
ARC
5
121
100
AcDbEntity
8
0
100
AcDbCircle
10
174.79999999999964
20
77.799999999999443
30
0
40
1.6999999999999993
210
0
220
-0
230
1
100
AcDbArc
50
90
51
180
0
LINE
5
122
100
AcDbEntity
8
0
100
AcDbLine
10
174.79999999999964
20
79.499999999999446
30
0
11
179.92010101267732
21
79.499999999999446
31
0
0
ARC
5
123
100
AcDbEntity
8
0
100
AcDbCircle
10
181.89999999999966
20
80.199999999999505
30
0
40
2.1000000000000352
210
0
220
0
230
1
100
AcDbArc
50
-19.471220634492109
51
199.47122063449174
0
LINE
5
124
100
AcDbEntity
8
0
100
AcDbLine
10
183.87989898732201
20
79.499999999999446
30
0
11
259.92010101267732
21
79.499999999999474
31
0
0
ARC
5
125
100
AcDbEntity
8
0
100
AcDbCircle
10
261.89999999999964
20
80.19999999999952
30
0
40
2.1000000000000321
210
0
220
0
230
1
100
AcDbArc
50
-19.471220634491498
51
199.47122063449217
0
LINE
5
126
100
AcDbEntity
8
0
100
AcDbLine
10
263.87989898732201
20
79.499999999999474
30
0
11
268.9999999999996
21
79.499999999999474
31
0
0
ARC
5
127
100
AcDbEntity
8
0
100
AcDbCircle
10
268.99999999999966
20
77.799999999999528
30
0
40
1.699999999999946
210
0
220
0
230
1
100
AcDbArc
50
0
51
90.000000000001918
0
CIRCLE
5
128
100
AcDbEntity
8
0
100
AcDbCircle
10
149.00000000000003
20
110
30
0
40
1.6999999999999993
210
0
220
-0
230
1
0
CIRCLE
5
129
100
AcDbEntity
8
0
100
AcDbCircle
10
149.00000000000003
20
285
30
0
40
1.6999999999999993
210
0
220
-0
230
1
0
CIRCLE
5
130
100
AcDbEntity
8
0
100
AcDbCircle
10
277
20
197.5
30
0
40
1.7000000000000171
210
0
220
-0
230
1
0
CIRCLE
5
131
100
AcDbEntity
8
0
100
AcDbCircle
10
20.999999999999996
20
197.5
30
0
40
1.6999999999999993
210
0
220
-0
230
1
0
CIRCLE
5
132
100
AcDbEntity
8
0
100
AcDbCircle
10
20.999999999999996
20
257.5
30
0
40
1.6999999999999993
210
0
220
-0
230
1
0
CIRCLE
5
133
100
AcDbEntity
8
0
100
AcDbCircle
10
277
20
257.5
30
0
40
1.7000000000000171
210
0
220
-0
230
1
0
CIRCLE
5
134
100
AcDbEntity
8
0
100
AcDbCircle
10
69.000000000000028
20
110
30
0
40
1.6999999999999993
210
0
220
-0
230
1
0
CIRCLE
5
135
100
AcDbEntity
8
0
100
AcDbCircle
10
69.000000000000028
20
285
30
0
40
1.6999999999999993
210
0
220
-0
230
1
0
ENDSEC
0
SECTION
2
OBJECTS
0
DICTIONARY
5
C
100
AcDbDictionary
3
ACAD_GROUP
350
D
3
ACAD_MLINESTYLE
350
17
0
DICTIONARY
5
D
100
AcDbDictionary
0
DICTIONARY
5
1A
330
C
100
AcDbDictionary
0
DICTIONARY
5
17
100
AcDbDictionary
0
ENDSEC
0
EOF
